<?xml version="1.0" encoding="UTF-8"?>
<svg id="Layer_1" data-name="Layer 1" xmlns="http://www.w3.org/2000/svg" version="1.1" xmlns:xlink="http://www.w3.org/1999/xlink" viewBox="0 0 720 720">
  <defs>
    <style>
      .cls-1 {
        letter-spacing: -.12em;
      }

      .cls-2 {
        stroke: #000;
      }

      .cls-2, .cls-3, .cls-4, .cls-5, .cls-6, .cls-7, .cls-8, .cls-9 {
        fill: none;
      }

      .cls-2, .cls-4, .cls-5, .cls-6, .cls-7, .cls-8, .cls-9 {
        stroke-linejoin: round;
      }

      .cls-2, .cls-5, .cls-7, .cls-8, .cls-9 {
        stroke-width: 1.07px;
      }

      .cls-10 {
        letter-spacing: .02em;
      }

      .cls-11 {
        fill: #00bfc4;
      }

      .cls-11, .cls-3, .cls-12, .cls-13 {
        stroke-width: 0px;
      }

      .cls-14 {
        letter-spacing: -.05em;
      }

      .cls-15 {
        letter-spacing: -.03em;
      }

      .cls-4, .cls-6 {
        stroke-width: .71px;
      }

      .cls-4, .cls-6, .cls-8 {
        stroke-linecap: round;
      }

      .cls-4, .cls-9 {
        stroke: #f8766d;
      }

      .cls-12 {
        fill: #f8766d;
      }

      .cls-16 {
        letter-spacing: .01em;
      }

      .cls-5 {
        stroke: #333;
      }

      .cls-17 {
        letter-spacing: -.04em;
      }

      .cls-6, .cls-7 {
        stroke: #00bfc4;
      }

      .cls-18 {
        letter-spacing: .03em;
      }

      .cls-19 {
        clip-path: url(#clippath);
      }

      .cls-20 {
        letter-spacing: .04em;
      }

      .cls-21 {
        font-size: 11px;
      }

      .cls-21, .cls-22, .cls-23 {
        font-family: ArialMT, Arial;
      }

      .cls-21, .cls-23 {
        fill: #000;
      }

      .cls-22 {
        fill: #4d4d4d;
        font-size: 9px;
      }

      .cls-13 {
        fill: #fff;
      }

      .cls-8 {
        stroke: #fff;
      }

      .cls-24 {
        letter-spacing: -.04em;
      }

      .cls-25 {
        letter-spacing: -.01em;
      }

      .cls-26 {
        letter-spacing: -.03em;
      }

      .cls-27 {
        letter-spacing: -.02em;
      }

      .cls-23 {
        font-size: 13px;
      }
    </style>
    <clipPath id="clippath">
      <rect class="cls-3" x="88.55" y="24.04" width="625.97" height="662.91"/>
    </clipPath>
  </defs>
  <rect class="cls-13" width="720" height="720"/>
  <rect class="cls-8" width="720" height="720"/>
  <g class="cls-19">
    <rect class="cls-13" x="88.55" y="24.04" width="625.97" height="662.91"/>
    <line class="cls-9" x1="411.7" y1="625.29" x2="255.44" y2="625.29"/>
    <line class="cls-9" x1="411.7" y1="658.32" x2="137.3" y2="658.32"/>
    <line class="cls-9" x1="411.7" y1="405.05" x2="309.95" y2="405.05"/>
    <line class="cls-7" x1="411.7" y1="85.71" x2="583.99" y2="85.71"/>
    <line class="cls-9" x1="411.7" y1="581.24" x2="276.81" y2="581.24"/>
    <line class="cls-9" x1="411.7" y1="592.25" x2="270.53" y2="592.25"/>
    <line class="cls-7" x1="411.7" y1="195.83" x2="564.03" y2="195.83"/>
    <line class="cls-7" x1="411.7" y1="41.66" x2="681.41" y2="41.66"/>
    <line class="cls-9" x1="411.7" y1="548.2" x2="285.38" y2="548.2"/>
    <line class="cls-9" x1="411.7" y1="338.98" x2="316.04" y2="338.98"/>
    <line class="cls-7" x1="411.7" y1="74.7" x2="618.24" y2="74.7"/>
    <line class="cls-7" x1="411.7" y1="140.77" x2="573.26" y2="140.77"/>
    <line class="cls-7" x1="411.7" y1="118.74" x2="573.65" y2="118.74"/>
    <line class="cls-9" x1="411.7" y1="669.33" x2="120.71" y2="669.33"/>
    <line class="cls-7" x1="411.7" y1="239.87" x2="538.08" y2="239.87"/>
    <line class="cls-9" x1="411.7" y1="372.01" x2="312.77" y2="372.01"/>
    <line class="cls-9" x1="411.7" y1="614.27" x2="255.72" y2="614.27"/>
    <line class="cls-9" x1="411.7" y1="680.34" x2="117" y2="680.34"/>
    <line class="cls-9" x1="411.7" y1="515.17" x2="297.19" y2="515.17"/>
    <line class="cls-7" x1="411.7" y1="52.67" x2="625.43" y2="52.67"/>
    <line class="cls-7" x1="411.7" y1="107.73" x2="577.91" y2="107.73"/>
    <line class="cls-9" x1="411.7" y1="559.21" x2="284.47" y2="559.21"/>
    <line class="cls-7" x1="411.7" y1="184.81" x2="566.54" y2="184.81"/>
    <line class="cls-9" x1="411.7" y1="427.07" x2="308.14" y2="427.07"/>
    <line class="cls-9" x1="411.7" y1="504.16" x2="297.63" y2="504.16"/>
    <line class="cls-7" x1="411.7" y1="162.79" x2="572.84" y2="162.79"/>
    <line class="cls-7" x1="411.7" y1="129.76" x2="573.3" y2="129.76"/>
    <line class="cls-9" x1="411.7" y1="438.09" x2="307.36" y2="438.09"/>
    <line class="cls-9" x1="411.7" y1="460.11" x2="303.98" y2="460.11"/>
    <line class="cls-9" x1="411.7" y1="250.89" x2="323.07" y2="250.89"/>
    <line class="cls-7" x1="411.7" y1="30.65" x2="686.07" y2="30.65"/>
    <line class="cls-9" x1="411.7" y1="493.14" x2="298.13" y2="493.14"/>
    <line class="cls-9" x1="411.7" y1="526.18" x2="294.93" y2="526.18"/>
    <line class="cls-7" x1="411.7" y1="173.8" x2="568.45" y2="173.8"/>
    <line class="cls-7" x1="411.7" y1="206.84" x2="560.6" y2="206.84"/>
    <line class="cls-9" x1="411.7" y1="636.3" x2="219.38" y2="636.3"/>
    <line class="cls-9" x1="411.7" y1="316.96" x2="320.19" y2="316.96"/>
    <line class="cls-9" x1="411.7" y1="537.19" x2="290.63" y2="537.19"/>
    <line class="cls-9" x1="411.7" y1="482.13" x2="298.57" y2="482.13"/>
    <line class="cls-9" x1="411.7" y1="471.12" x2="300.18" y2="471.12"/>
    <line class="cls-9" x1="411.7" y1="603.26" x2="266.81" y2="603.26"/>
    <line class="cls-7" x1="411.7" y1="228.86" x2="552.11" y2="228.86"/>
    <line class="cls-9" x1="411.7" y1="361" x2="313.42" y2="361"/>
    <line class="cls-9" x1="411.7" y1="449.1" x2="304.22" y2="449.1"/>
    <line class="cls-9" x1="411.7" y1="349.99" x2="314.82" y2="349.99"/>
    <line class="cls-9" x1="411.7" y1="283.92" x2="322.04" y2="283.92"/>
    <line class="cls-9" x1="411.7" y1="327.97" x2="318.32" y2="327.97"/>
    <line class="cls-7" x1="411.7" y1="151.78" x2="573.1" y2="151.78"/>
    <line class="cls-7" x1="411.7" y1="96.72" x2="581.23" y2="96.72"/>
    <line class="cls-9" x1="411.7" y1="570.23" x2="283.87" y2="570.23"/>
    <line class="cls-9" x1="411.7" y1="305.94" x2="321.22" y2="305.94"/>
    <line class="cls-9" x1="411.7" y1="647.31" x2="198.66" y2="647.31"/>
    <line class="cls-9" x1="411.7" y1="272.91" x2="322.09" y2="272.91"/>
    <line class="cls-9" x1="411.7" y1="261.9" x2="322.44" y2="261.9"/>
    <line class="cls-9" x1="411.7" y1="394.04" x2="310.27" y2="394.04"/>
    <line class="cls-9" x1="411.7" y1="294.93" x2="321.69" y2="294.93"/>
    <line class="cls-7" x1="411.7" y1="63.69" x2="621.02" y2="63.69"/>
    <line class="cls-7" x1="411.7" y1="217.85" x2="553.36" y2="217.85"/>
    <line class="cls-9" x1="411.7" y1="416.06" x2="309.86" y2="416.06"/>
    <line class="cls-9" x1="411.7" y1="383.03" x2="311.11" y2="383.03"/>
    <path class="cls-12" d="M254.02,625.29c0-.79.64-1.43,1.42-1.43s1.42.64,1.42,1.43-.64,1.42-1.42,1.42-1.42-.64-1.42-1.42"/>
    <path class="cls-4" d="M254.02,625.29c0-.79.64-1.43,1.42-1.43s1.42.64,1.42,1.43-.64,1.42-1.42,1.42-1.42-.64-1.42-1.42"/>
    <path class="cls-12" d="M135.88,658.32c0-.78.64-1.42,1.42-1.42s1.43.64,1.43,1.42-.64,1.42-1.43,1.42-1.42-.64-1.42-1.42"/>
    <path class="cls-4" d="M135.88,658.32c0-.78.64-1.42,1.42-1.42s1.43.64,1.43,1.42-.64,1.42-1.43,1.42-1.42-.64-1.42-1.42"/>
    <path class="cls-12" d="M308.53,405.05c0-.78.64-1.42,1.42-1.42s1.43.64,1.43,1.42-.64,1.42-1.43,1.42-1.42-.64-1.42-1.42"/>
    <path class="cls-4" d="M308.53,405.05c0-.78.64-1.42,1.42-1.42s1.43.64,1.43,1.42-.64,1.42-1.43,1.42-1.42-.64-1.42-1.42"/>
    <path class="cls-11" d="M582.57,85.71c0-.78.64-1.42,1.42-1.42s1.42.64,1.42,1.42-.64,1.42-1.42,1.42-1.42-.64-1.42-1.42"/>
    <path class="cls-6" d="M582.57,85.71c0-.78.64-1.42,1.42-1.42s1.42.64,1.42,1.42-.64,1.42-1.42,1.42-1.42-.64-1.42-1.42"/>
    <path class="cls-12" d="M275.39,581.24c0-.78.64-1.42,1.42-1.42s1.42.64,1.42,1.42-.64,1.42-1.42,1.42-1.42-.64-1.42-1.42"/>
    <path class="cls-4" d="M275.39,581.24c0-.78.64-1.42,1.42-1.42s1.42.64,1.42,1.42-.64,1.42-1.42,1.42-1.42-.64-1.42-1.42"/>
    <path class="cls-12" d="M269.11,592.25c0-.78.64-1.42,1.42-1.42s1.42.64,1.42,1.42-.64,1.42-1.42,1.42-1.42-.64-1.42-1.42"/>
    <path class="cls-4" d="M269.11,592.25c0-.78.64-1.42,1.42-1.42s1.42.64,1.42,1.42-.64,1.42-1.42,1.42-1.42-.64-1.42-1.42"/>
    <path class="cls-11" d="M562.61,195.83c0-.79.64-1.42,1.42-1.42s1.42.63,1.42,1.42-.64,1.42-1.42,1.42-1.42-.64-1.42-1.42"/>
    <path class="cls-6" d="M562.61,195.83c0-.79.64-1.42,1.42-1.42s1.42.63,1.42,1.42-.64,1.42-1.42,1.42-1.42-.64-1.42-1.42"/>
    <path class="cls-11" d="M679.99,41.66c0-.78.64-1.42,1.42-1.42s1.42.64,1.42,1.42-.64,1.42-1.42,1.42-1.42-.64-1.42-1.42"/>
    <path class="cls-6" d="M679.99,41.66c0-.78.64-1.42,1.42-1.42s1.42.64,1.42,1.42-.64,1.42-1.42,1.42-1.42-.64-1.42-1.42"/>
    <path class="cls-12" d="M283.96,548.2c0-.78.64-1.42,1.42-1.42s1.42.64,1.42,1.42-.64,1.42-1.42,1.42-1.42-.64-1.42-1.42"/>
    <path class="cls-4" d="M283.96,548.2c0-.78.64-1.42,1.42-1.42s1.42.64,1.42,1.42-.64,1.42-1.42,1.42-1.42-.64-1.42-1.42"/>
    <path class="cls-12" d="M314.62,338.98c0-.78.64-1.42,1.42-1.42s1.42.64,1.42,1.42-.63,1.42-1.42,1.42-1.42-.64-1.42-1.42"/>
    <path class="cls-4" d="M314.62,338.98c0-.78.64-1.42,1.42-1.42s1.42.64,1.42,1.42-.63,1.42-1.42,1.42-1.42-.64-1.42-1.42"/>
    <path class="cls-11" d="M616.82,74.7c0-.78.64-1.42,1.42-1.42s1.42.64,1.42,1.42-.64,1.42-1.42,1.42-1.42-.64-1.42-1.42"/>
    <path class="cls-6" d="M616.82,74.7c0-.78.64-1.42,1.42-1.42s1.42.64,1.42,1.42-.64,1.42-1.42,1.42-1.42-.64-1.42-1.42"/>
    <path class="cls-11" d="M571.84,140.77c0-.78.64-1.42,1.42-1.42s1.43.64,1.43,1.42-.64,1.42-1.43,1.42-1.42-.64-1.42-1.42"/>
    <path class="cls-6" d="M571.84,140.77c0-.78.64-1.42,1.42-1.42s1.43.64,1.43,1.42-.64,1.42-1.43,1.42-1.42-.64-1.42-1.42"/>
    <path class="cls-11" d="M572.23,118.74c0-.78.64-1.42,1.42-1.42s1.42.64,1.42,1.42-.64,1.43-1.42,1.43-1.42-.64-1.42-1.43"/>
    <path class="cls-6" d="M572.23,118.74c0-.78.64-1.42,1.42-1.42s1.42.64,1.42,1.42-.64,1.43-1.42,1.43-1.42-.64-1.42-1.43"/>
    <path class="cls-12" d="M119.29,669.33c0-.78.64-1.42,1.42-1.42s1.43.64,1.43,1.42-.64,1.42-1.43,1.42-1.42-.64-1.42-1.42"/>
    <path class="cls-4" d="M119.29,669.33c0-.78.64-1.42,1.42-1.42s1.43.64,1.43,1.42-.64,1.42-1.43,1.42-1.42-.64-1.42-1.42"/>
    <path class="cls-11" d="M536.66,239.87c0-.78.64-1.42,1.42-1.42s1.42.64,1.42,1.42-.64,1.42-1.42,1.42-1.42-.63-1.42-1.42"/>
    <path class="cls-6" d="M536.66,239.87c0-.78.64-1.42,1.42-1.42s1.42.64,1.42,1.42-.64,1.42-1.42,1.42-1.42-.63-1.42-1.42"/>
    <path class="cls-12" d="M311.35,372.01c0-.78.64-1.42,1.42-1.42s1.42.64,1.42,1.42-.64,1.43-1.42,1.43-1.42-.64-1.42-1.43"/>
    <path class="cls-4" d="M311.35,372.01c0-.78.64-1.42,1.42-1.42s1.42.64,1.42,1.42-.64,1.43-1.42,1.43-1.42-.64-1.42-1.43"/>
    <path class="cls-12" d="M254.3,614.27c0-.78.64-1.42,1.42-1.42s1.42.64,1.42,1.42-.64,1.42-1.42,1.42-1.42-.63-1.42-1.42"/>
    <path class="cls-4" d="M254.3,614.27c0-.78.64-1.42,1.42-1.42s1.42.64,1.42,1.42-.64,1.42-1.42,1.42-1.42-.63-1.42-1.42"/>
    <path class="cls-12" d="M115.58,680.34c0-.78.64-1.42,1.42-1.42s1.42.64,1.42,1.42-.64,1.43-1.42,1.43-1.42-.64-1.42-1.43"/>
    <path class="cls-4" d="M115.58,680.34c0-.78.64-1.42,1.42-1.42s1.42.64,1.42,1.42-.64,1.43-1.42,1.43-1.42-.64-1.42-1.43"/>
    <path class="cls-12" d="M295.77,515.17c0-.78.64-1.42,1.42-1.42s1.43.64,1.43,1.42-.64,1.42-1.43,1.42-1.42-.64-1.42-1.42"/>
    <path class="cls-4" d="M295.77,515.17c0-.78.64-1.42,1.42-1.42s1.43.64,1.43,1.42-.64,1.42-1.43,1.42-1.42-.64-1.42-1.42"/>
    <path class="cls-11" d="M624,52.67c0-.78.64-1.42,1.43-1.42s1.42.64,1.42,1.42-.64,1.42-1.42,1.42-1.43-.63-1.43-1.42"/>
    <path class="cls-6" d="M624,52.67c0-.78.64-1.42,1.43-1.42s1.42.64,1.42,1.42-.64,1.42-1.42,1.42-1.43-.63-1.43-1.42"/>
    <path class="cls-11" d="M576.49,107.73c0-.78.64-1.42,1.42-1.42s1.42.64,1.42,1.42-.64,1.42-1.42,1.42-1.42-.64-1.42-1.42"/>
    <path class="cls-6" d="M576.49,107.73c0-.78.64-1.42,1.42-1.42s1.42.64,1.42,1.42-.64,1.42-1.42,1.42-1.42-.64-1.42-1.42"/>
    <path class="cls-12" d="M283.04,559.21c0-.78.64-1.42,1.43-1.42s1.42.64,1.42,1.42-.64,1.43-1.42,1.43-1.43-.64-1.43-1.43"/>
    <path class="cls-4" d="M283.04,559.21c0-.78.64-1.42,1.43-1.42s1.42.64,1.42,1.42-.64,1.43-1.42,1.43-1.43-.64-1.43-1.43"/>
    <path class="cls-11" d="M565.12,184.81c0-.78.64-1.42,1.42-1.42s1.43.64,1.43,1.42-.64,1.43-1.43,1.43-1.42-.64-1.42-1.43"/>
    <path class="cls-6" d="M565.12,184.81c0-.78.64-1.42,1.42-1.42s1.43.64,1.43,1.42-.64,1.43-1.43,1.43-1.42-.64-1.42-1.43"/>
    <path class="cls-12" d="M306.72,427.07c0-.78.64-1.42,1.42-1.42s1.42.64,1.42,1.42-.64,1.42-1.42,1.42-1.42-.63-1.42-1.42"/>
    <path class="cls-4" d="M306.72,427.07c0-.78.64-1.42,1.42-1.42s1.42.64,1.42,1.42-.64,1.42-1.42,1.42-1.42-.63-1.42-1.42"/>
    <path class="cls-12" d="M296.21,504.16c0-.79.64-1.43,1.42-1.43s1.42.64,1.42,1.43-.64,1.42-1.42,1.42-1.42-.64-1.42-1.42"/>
    <path class="cls-4" d="M296.21,504.16c0-.79.64-1.43,1.42-1.43s1.42.64,1.42,1.43-.64,1.42-1.42,1.42-1.42-.64-1.42-1.42"/>
    <path class="cls-11" d="M571.42,162.79c0-.78.64-1.42,1.42-1.42s1.42.64,1.42,1.42-.64,1.42-1.42,1.42-1.42-.64-1.42-1.42"/>
    <path class="cls-6" d="M571.42,162.79c0-.78.64-1.42,1.42-1.42s1.42.64,1.42,1.42-.64,1.42-1.42,1.42-1.42-.64-1.42-1.42"/>
    <path class="cls-11" d="M571.88,129.76c0-.79.64-1.43,1.42-1.43s1.42.64,1.42,1.43-.64,1.42-1.42,1.42-1.42-.64-1.42-1.42"/>
    <path class="cls-6" d="M571.88,129.76c0-.79.64-1.43,1.42-1.43s1.42.64,1.42,1.43-.64,1.42-1.42,1.42-1.42-.64-1.42-1.42"/>
    <path class="cls-12" d="M305.94,438.09c0-.79.64-1.43,1.42-1.43s1.42.64,1.42,1.43-.64,1.42-1.42,1.42-1.42-.64-1.42-1.42"/>
    <path class="cls-4" d="M305.94,438.09c0-.79.64-1.43,1.42-1.43s1.42.64,1.42,1.43-.64,1.42-1.42,1.42-1.42-.64-1.42-1.42"/>
    <path class="cls-12" d="M302.55,460.11c0-.78.64-1.42,1.43-1.42s1.42.64,1.42,1.42-.64,1.42-1.42,1.42-1.43-.64-1.43-1.42"/>
    <path class="cls-4" d="M302.55,460.11c0-.78.64-1.42,1.43-1.42s1.42.64,1.42,1.42-.64,1.42-1.42,1.42-1.43-.64-1.43-1.42"/>
    <path class="cls-12" d="M321.65,250.89c0-.79.64-1.43,1.42-1.43s1.43.64,1.43,1.43-.64,1.42-1.43,1.42-1.42-.64-1.42-1.42"/>
    <path class="cls-4" d="M321.65,250.89c0-.79.64-1.43,1.42-1.43s1.43.64,1.43,1.43-.64,1.42-1.43,1.42-1.42-.64-1.42-1.42"/>
    <path class="cls-11" d="M684.65,30.65c0-.78.64-1.42,1.42-1.42s1.42.64,1.42,1.42-.64,1.42-1.42,1.42-1.42-.64-1.42-1.42"/>
    <path class="cls-6" d="M684.65,30.65c0-.78.64-1.42,1.42-1.42s1.42.64,1.42,1.42-.64,1.42-1.42,1.42-1.42-.64-1.42-1.42"/>
    <path class="cls-12" d="M296.71,493.14c0-.78.64-1.42,1.42-1.42s1.42.64,1.42,1.42-.64,1.43-1.42,1.43-1.42-.64-1.42-1.43"/>
    <path class="cls-4" d="M296.71,493.14c0-.78.64-1.42,1.42-1.42s1.42.64,1.42,1.42-.64,1.43-1.42,1.43-1.42-.64-1.42-1.43"/>
    <path class="cls-12" d="M293.5,526.18c0-.78.64-1.42,1.43-1.42s1.42.64,1.42,1.42-.64,1.42-1.42,1.42-1.43-.64-1.43-1.42"/>
    <path class="cls-4" d="M293.5,526.18c0-.78.64-1.42,1.43-1.42s1.42.64,1.42,1.42-.64,1.42-1.42,1.42-1.43-.64-1.43-1.42"/>
    <path class="cls-11" d="M567.03,173.8c0-.78.64-1.42,1.42-1.42s1.42.64,1.42,1.42-.64,1.42-1.42,1.42-1.42-.64-1.42-1.42"/>
    <path class="cls-6" d="M567.03,173.8c0-.78.64-1.42,1.42-1.42s1.42.64,1.42,1.42-.64,1.42-1.42,1.42-1.42-.64-1.42-1.42"/>
    <path class="cls-11" d="M559.17,206.84c0-.78.64-1.42,1.43-1.42s1.42.64,1.42,1.42-.64,1.42-1.42,1.42-1.43-.64-1.43-1.42"/>
    <path class="cls-6" d="M559.17,206.84c0-.78.64-1.42,1.43-1.42s1.42.64,1.42,1.42-.64,1.42-1.42,1.42-1.43-.64-1.43-1.42"/>
    <path class="cls-12" d="M217.96,636.3c0-.78.64-1.42,1.42-1.42s1.42.64,1.42,1.42-.63,1.42-1.42,1.42-1.42-.64-1.42-1.42"/>
    <path class="cls-4" d="M217.96,636.3c0-.78.64-1.42,1.42-1.42s1.42.64,1.42,1.42-.63,1.42-1.42,1.42-1.42-.64-1.42-1.42"/>
    <path class="cls-12" d="M318.77,316.96c0-.79.64-1.43,1.42-1.43s1.42.64,1.42,1.43-.64,1.42-1.42,1.42-1.42-.64-1.42-1.42"/>
    <path class="cls-4" d="M318.77,316.96c0-.79.64-1.43,1.42-1.43s1.42.64,1.42,1.43-.64,1.42-1.42,1.42-1.42-.64-1.42-1.42"/>
    <path class="cls-12" d="M289.21,537.19c0-.78.64-1.42,1.42-1.42s1.42.64,1.42,1.42-.64,1.42-1.42,1.42-1.42-.64-1.42-1.42"/>
    <path class="cls-4" d="M289.21,537.19c0-.78.64-1.42,1.42-1.42s1.42.64,1.42,1.42-.64,1.42-1.42,1.42-1.42-.64-1.42-1.42"/>
    <path class="cls-12" d="M297.15,482.13c0-.78.64-1.42,1.42-1.42s1.42.64,1.42,1.42-.64,1.42-1.42,1.42-1.42-.64-1.42-1.42"/>
    <path class="cls-4" d="M297.15,482.13c0-.78.64-1.42,1.42-1.42s1.42.64,1.42,1.42-.64,1.42-1.42,1.42-1.42-.64-1.42-1.42"/>
    <path class="cls-12" d="M298.76,471.12c0-.78.64-1.42,1.42-1.42s1.42.64,1.42,1.42-.64,1.42-1.42,1.42-1.42-.64-1.42-1.42"/>
    <path class="cls-4" d="M298.76,471.12c0-.78.64-1.42,1.42-1.42s1.42.64,1.42,1.42-.64,1.42-1.42,1.42-1.42-.64-1.42-1.42"/>
    <path class="cls-12" d="M265.39,603.26c0-.78.64-1.42,1.42-1.42s1.42.64,1.42,1.42-.64,1.42-1.42,1.42-1.42-.64-1.42-1.42"/>
    <path class="cls-4" d="M265.39,603.26c0-.78.64-1.42,1.42-1.42s1.42.64,1.42,1.42-.64,1.42-1.42,1.42-1.42-.64-1.42-1.42"/>
    <path class="cls-11" d="M550.69,228.86c0-.78.64-1.42,1.42-1.42s1.42.64,1.42,1.42-.64,1.42-1.42,1.42-1.42-.64-1.42-1.42"/>
    <path class="cls-6" d="M550.69,228.86c0-.78.64-1.42,1.42-1.42s1.42.64,1.42,1.42-.64,1.42-1.42,1.42-1.42-.64-1.42-1.42"/>
    <path class="cls-12" d="M312,361c0-.78.64-1.42,1.42-1.42s1.42.64,1.42,1.42-.64,1.42-1.42,1.42-1.42-.64-1.42-1.42"/>
    <path class="cls-4" d="M312,361c0-.78.64-1.42,1.42-1.42s1.42.64,1.42,1.42-.64,1.42-1.42,1.42-1.42-.64-1.42-1.42"/>
    <path class="cls-12" d="M302.8,449.1c0-.78.64-1.42,1.42-1.42s1.42.64,1.42,1.42-.64,1.42-1.42,1.42-1.42-.64-1.42-1.42"/>
    <path class="cls-4" d="M302.8,449.1c0-.78.64-1.42,1.42-1.42s1.42.64,1.42,1.42-.64,1.42-1.42,1.42-1.42-.64-1.42-1.42"/>
    <path class="cls-12" d="M313.4,349.99c0-.78.64-1.42,1.42-1.42s1.42.64,1.42,1.42-.64,1.42-1.42,1.42-1.42-.64-1.42-1.42"/>
    <path class="cls-4" d="M313.4,349.99c0-.78.64-1.42,1.42-1.42s1.42.64,1.42,1.42-.64,1.42-1.42,1.42-1.42-.64-1.42-1.42"/>
    <path class="cls-12" d="M320.62,283.92c0-.78.64-1.42,1.42-1.42s1.42.64,1.42,1.42-.64,1.42-1.42,1.42-1.42-.64-1.42-1.42"/>
    <path class="cls-4" d="M320.62,283.92c0-.78.64-1.42,1.42-1.42s1.42.64,1.42,1.42-.64,1.42-1.42,1.42-1.42-.64-1.42-1.42"/>
    <path class="cls-12" d="M316.9,327.97c0-.78.64-1.42,1.42-1.42s1.42.64,1.42,1.42-.64,1.42-1.42,1.42-1.42-.64-1.42-1.42"/>
    <path class="cls-4" d="M316.9,327.97c0-.78.64-1.42,1.42-1.42s1.42.64,1.42,1.42-.64,1.42-1.42,1.42-1.42-.64-1.42-1.42"/>
    <path class="cls-11" d="M571.68,151.78c0-.78.64-1.42,1.42-1.42s1.42.64,1.42,1.42-.64,1.42-1.42,1.42-1.42-.64-1.42-1.42"/>
    <path class="cls-6" d="M571.68,151.78c0-.78.64-1.42,1.42-1.42s1.42.64,1.42,1.42-.64,1.42-1.42,1.42-1.42-.64-1.42-1.42"/>
    <path class="cls-11" d="M579.81,96.72c0-.78.63-1.42,1.42-1.42s1.42.64,1.42,1.42-.64,1.42-1.42,1.42-1.42-.64-1.42-1.42"/>
    <path class="cls-6" d="M579.81,96.72c0-.78.63-1.42,1.42-1.42s1.42.64,1.42,1.42-.64,1.42-1.42,1.42-1.42-.64-1.42-1.42"/>
    <path class="cls-12" d="M282.45,570.23c0-.79.64-1.42,1.42-1.42s1.42.63,1.42,1.42-.64,1.42-1.42,1.42-1.42-.64-1.42-1.42"/>
    <path class="cls-4" d="M282.45,570.23c0-.79.64-1.42,1.42-1.42s1.42.63,1.42,1.42-.64,1.42-1.42,1.42-1.42-.64-1.42-1.42"/>
    <path class="cls-12" d="M319.8,305.94c0-.78.64-1.42,1.42-1.42s1.42.64,1.42,1.42-.64,1.43-1.42,1.43-1.42-.64-1.42-1.43"/>
    <path class="cls-4" d="M319.8,305.94c0-.78.64-1.42,1.42-1.42s1.42.64,1.42,1.42-.64,1.43-1.42,1.43-1.42-.64-1.42-1.43"/>
    <path class="cls-12" d="M197.24,647.31c0-.78.63-1.42,1.42-1.42s1.42.64,1.42,1.42-.64,1.42-1.42,1.42-1.42-.64-1.42-1.42"/>
    <path class="cls-4" d="M197.24,647.31c0-.78.63-1.42,1.42-1.42s1.42.64,1.42,1.42-.64,1.42-1.42,1.42-1.42-.64-1.42-1.42"/>
    <path class="cls-12" d="M320.67,272.91c0-.78.64-1.42,1.42-1.42s1.42.64,1.42,1.42-.64,1.42-1.42,1.42-1.42-.64-1.42-1.42"/>
    <path class="cls-4" d="M320.67,272.91c0-.78.64-1.42,1.42-1.42s1.42.64,1.42,1.42-.64,1.42-1.42,1.42-1.42-.64-1.42-1.42"/>
    <path class="cls-12" d="M321.02,261.9c0-.78.64-1.42,1.42-1.42s1.42.64,1.42,1.42-.64,1.42-1.42,1.42-1.42-.64-1.42-1.42"/>
    <path class="cls-4" d="M321.02,261.9c0-.78.64-1.42,1.42-1.42s1.42.64,1.42,1.42-.64,1.42-1.42,1.42-1.42-.64-1.42-1.42"/>
    <path class="cls-12" d="M308.85,394.04c0-.78.64-1.42,1.42-1.42s1.42.64,1.42,1.42-.64,1.42-1.42,1.42-1.42-.64-1.42-1.42"/>
    <path class="cls-4" d="M308.85,394.04c0-.78.64-1.42,1.42-1.42s1.42.64,1.42,1.42-.64,1.42-1.42,1.42-1.42-.64-1.42-1.42"/>
    <path class="cls-12" d="M320.26,294.93c0-.78.64-1.42,1.43-1.42s1.42.64,1.42,1.42-.64,1.42-1.42,1.42-1.43-.64-1.43-1.42"/>
    <path class="cls-4" d="M320.26,294.93c0-.78.64-1.42,1.43-1.42s1.42.64,1.42,1.42-.64,1.42-1.42,1.42-1.43-.64-1.43-1.42"/>
    <path class="cls-11" d="M619.6,63.69c0-.79.64-1.43,1.42-1.43s1.42.64,1.42,1.43-.64,1.42-1.42,1.42-1.42-.64-1.42-1.42"/>
    <path class="cls-6" d="M619.6,63.69c0-.79.64-1.43,1.42-1.43s1.42.64,1.42,1.43-.64,1.42-1.42,1.42-1.42-.64-1.42-1.42"/>
    <path class="cls-11" d="M551.94,217.85c0-.78.64-1.42,1.42-1.42s1.42.64,1.42,1.42-.64,1.42-1.42,1.42-1.42-.64-1.42-1.42"/>
    <path class="cls-6" d="M551.94,217.85c0-.78.64-1.42,1.42-1.42s1.42.64,1.42,1.42-.64,1.42-1.42,1.42-1.42-.64-1.42-1.42"/>
    <path class="cls-12" d="M308.44,416.06c0-.78.64-1.42,1.42-1.42s1.42.64,1.42,1.42-.64,1.42-1.42,1.42-1.42-.64-1.42-1.42"/>
    <path class="cls-4" d="M308.44,416.06c0-.78.64-1.42,1.42-1.42s1.42.64,1.42,1.42-.64,1.42-1.42,1.42-1.42-.64-1.42-1.42"/>
    <path class="cls-12" d="M309.69,383.03c0-.79.64-1.42,1.42-1.42s1.42.63,1.42,1.42-.64,1.42-1.42,1.42-1.42-.64-1.42-1.42"/>
    <path class="cls-4" d="M309.69,383.03c0-.79.64-1.42,1.42-1.42s1.42.63,1.42,1.42-.64,1.42-1.42,1.42-1.42-.64-1.42-1.42"/>
  </g>
  <line class="cls-2" x1="88.55" y1="686.95" x2="88.55" y2="24.04"/>
  <text class="cls-22" transform="translate(57.61 683.58)"><tspan x="0" y="0">Barhl2</tspan></text>
  <text class="cls-22" transform="translate(60.1 672.56)"><tspan x="0" y="0">Atoh7</tspan></text>
  <text class="cls-22" transform="translate(49.1 661.55)"><tspan x="0" y="0">Gm2694</tspan></text>
  <text class="cls-22" transform="translate(58.76 650.54)"><tspan x="0" y="0">C</tspan><tspan class="cls-20" x="6.5" y="0">r</tspan><tspan x="9.85" y="0">tam</tspan></text>
  <text class="cls-22" transform="translate(61.12 639.53)"><tspan x="0" y="0">Dkkl1</tspan></text>
  <text class="cls-22" transform="translate(63.11 628.52)"><tspan x="0" y="0">Pcp2</tspan></text>
  <text class="cls-22" transform="translate(55.97 617.5)"><tspan class="cls-1" x="0" y="0">T</tspan><tspan class="cls-10" x="4.43" y="0">r</tspan><tspan x="7.64" y="0">mt9b</tspan></text>
  <text class="cls-22" transform="translate(66.62 606.49)"><tspan x="0" y="0">Zic2</tspan></text>
  <text class="cls-22" transform="translate(59.11 595.48)"><tspan x="0" y="0">Mgst3</tspan></text>
  <text class="cls-22" transform="translate(53.11 584.47)"><tspan x="0" y="0">Atp5mk</tspan></text>
  <text class="cls-22" transform="translate(54.6 573.46)"><tspan x="0" y="0">Rnf152</tspan></text>
  <text class="cls-22" transform="translate(54.87 562.45)"><tspan x="0" y="0">Ndu</tspan><tspan class="cls-15" x="16.51" y="0">f</tspan><tspan x="18.75" y="0">a4</tspan></text>
  <text class="cls-22" transform="translate(65.61 551.43)"><tspan x="0" y="0">Itpr1</tspan></text>
  <text class="cls-22" transform="translate(52.6 540.42)"><tspan x="0" y="0">Necab3</tspan></text>
  <text class="cls-22" transform="translate(57.6 529.41)"><tspan x="0" y="0">Abhd8</tspan></text>
  <text class="cls-22" transform="translate(52.87 518.4)"><tspan x="0" y="0">C</tspan><tspan class="cls-26" x="6.5" y="0">o</tspan><tspan x="11.23" y="0">x7a2</tspan></text>
  <text class="cls-22" transform="translate(54.96 507.39)"><tspan class="cls-24" x="0" y="0">P</tspan><tspan x="5.64" y="0">ard6a</tspan></text>
  <text class="cls-22" transform="translate(62.6 496.38)"><tspan x="0" y="0">Pdp1</tspan></text>
  <text class="cls-22" transform="translate(54.87 485.36)"><tspan x="0" y="0">Ndu</tspan><tspan class="cls-15" x="16.51" y="0">f</tspan><tspan x="18.75" y="0">a5</tspan></text>
  <text class="cls-22" transform="translate(51.12 474.35)"><tspan x="0" y="0">Timm8b</tspan></text>
  <text class="cls-22" transform="translate(55.88 463.34)"><tspan x="0" y="0">C</tspan><tspan class="cls-26" x="6.5" y="0">o</tspan><tspan x="11.23" y="0">x4i1</tspan></text>
  <text class="cls-22" transform="translate(58.11 452.33)"><tspan x="0" y="0">Lrrc24</tspan></text>
  <text class="cls-22" transform="translate(57.88 441.32)"><tspan x="0" y="0">C</tspan><tspan class="cls-26" x="6.5" y="0">o</tspan><tspan x="11.23" y="0">x5a</tspan></text>
  <text class="cls-22" transform="translate(58.38 430.3)"><tspan x="0" y="0">C</tspan><tspan class="cls-26" x="6.5" y="0">o</tspan><tspan x="11.23" y="0">x7c</tspan></text>
  <text class="cls-22" transform="translate(57.88 419.29)"><tspan x="0" y="0">C</tspan><tspan class="cls-26" x="6.5" y="0">o</tspan><tspan x="11.23" y="0">x7b</tspan></text>
  <text class="cls-22" transform="translate(53.1 408.28)"><tspan x="0" y="0">Kcnab1</tspan></text>
  <text class="cls-22" transform="translate(57.88 397.27)"><tspan x="0" y="0">C</tspan><tspan class="cls-26" x="6.5" y="0">o</tspan><tspan x="11.23" y="0">x8a</tspan></text>
  <text class="cls-22" transform="translate(57.88 386.26)"><tspan x="0" y="0">C</tspan><tspan class="cls-26" x="6.5" y="0">o</tspan><tspan x="11.23" y="0">x5b</tspan></text>
  <text class="cls-22" transform="translate(54.6 375.25)"><tspan x="0" y="0">Ndufb8</tspan></text>
  <text class="cls-22" transform="translate(54.6 364.23)"><tspan x="0" y="0">Ndufb9</tspan></text>
  <text class="cls-22" transform="translate(57.62 353.22)"><tspan x="0" y="0">Calm2</tspan></text>
  <text class="cls-22" transform="translate(59.69 342.21)"><tspan class="cls-1" x="0" y="0">T</tspan><tspan x="4.43" y="0">asp1</tspan></text>
  <text class="cls-22" transform="translate(54.6 331.2)"><tspan x="0" y="0">Ndufb6</tspan></text>
  <text class="cls-22" transform="translate(49.87 320.19)"><tspan x="0" y="0">Ndu</tspan><tspan class="cls-15" x="16.51" y="0">f</tspan><tspan x="18.75" y="0">a11</tspan></text>
  <text class="cls-22" transform="translate(54.6 309.18)"><tspan x="0" y="0">Ndufb5</tspan></text>
  <text class="cls-22" transform="translate(57.6 298.16)"><tspan x="0" y="0">Epb41</tspan></text>
  <text class="cls-22" transform="translate(55.11 287.15)"><tspan x="0" y="0">Atp5mf</tspan></text>
  <text class="cls-22" transform="translate(49.6 276.14)"><tspan x="0" y="0">Ndufb10</tspan></text>
  <text class="cls-22" transform="translate(49.87 265.13)"><tspan x="0" y="0">Ndu</tspan><tspan class="cls-15" x="16.51" y="0">f</tspan><tspan x="18.75" y="0">a13</tspan></text>
  <text class="cls-22" transform="translate(57.1 254.12)"><tspan x="0" y="0">Cep19</tspan></text>
  <text class="cls-22" transform="translate(60.11 243.1)"><tspan x="0" y="0">P2rx7</tspan></text>
  <text class="cls-22" transform="translate(58.1 232.09)"><tspan x="0" y="0">Baz1a</tspan></text>
  <text class="cls-22" transform="translate(56.56 221.08)"><tspan class="cls-1" x="0" y="0">T</tspan><tspan class="cls-16" x="4.43" y="0">r</tspan><tspan x="7.55" y="0">im25</tspan></text>
  <text class="cls-22" transform="translate(68.12 210.07)"><tspan x="0" y="0">Tlr6</tspan></text>
  <text class="cls-22" transform="translate(60.61 199.06)"><tspan x="0" y="0">Wipf1</tspan></text>
  <text class="cls-22" transform="translate(62.61 188.05)"><tspan x="0" y="0">Ucp2</tspan></text>
  <text class="cls-22" transform="translate(59.7 177.03)"><tspan class="cls-17" x="0" y="0">P</tspan><tspan x="5.65" y="0">a</tspan><tspan class="cls-18" x="10.66" y="0">r</tspan><tspan x="13.92" y="0">p3</tspan></text>
  <text class="cls-22" transform="translate(49.28 166.02)"><tspan x="0" y="0">Zc3h</tspan><tspan class="cls-27" x="20.01" y="0">a</tspan><tspan x="24.83" y="0">v1</tspan></text>
  <text class="cls-22" transform="translate(68.12 155.01)"><tspan x="0" y="0">Tlr4</tspan></text>
  <text class="cls-22" transform="translate(50.61 144)"><tspan x="0" y="0">Tnfrsf1a</tspan></text>
  <text class="cls-22" transform="translate(21.09 132.99)"><tspan x="0" y="0">1700034J05Rik</tspan></text>
  <text class="cls-22" transform="translate(66.62 121.98)"><tspan x="0" y="0">Msn</tspan></text>
  <text class="cls-22" transform="translate(49.6 110.96)"><tspan x="0" y="0">Ppp1r18</tspan></text>
  <text class="cls-22" transform="translate(62.6 99.95)"><tspan x="0" y="0">P3h2</tspan></text>
  <text class="cls-22" transform="translate(57.1 88.94)"><tspan x="0" y="0">Lgals9</tspan></text>
  <text class="cls-22" transform="translate(54.84 77.93)"><tspan x="0" y="0">A</tspan><tspan class="cls-18" x="6" y="0">r</tspan><tspan x="9.26" y="0">pc1b</tspan></text>
  <text class="cls-22" transform="translate(44.1 66.92)"><tspan x="0" y="0">Gm17089</tspan></text>
  <text class="cls-22" transform="translate(63.11 55.9)"><tspan x="0" y="0">Vcan</tspan></text>
  <text class="cls-22" transform="translate(52.6 44.89)"><tspan x="0" y="0">Cdkn2b</tspan></text>
  <text class="cls-22" transform="translate(57.11 33.88)"><tspan x="0" y="0">Prokr1</tspan></text>
  <line class="cls-5" x1="85.81" y1="680.34" x2="88.55" y2="680.34"/>
  <line class="cls-5" x1="85.81" y1="669.33" x2="88.55" y2="669.33"/>
  <line class="cls-5" x1="85.81" y1="658.32" x2="88.55" y2="658.32"/>
  <line class="cls-5" x1="85.81" y1="647.31" x2="88.55" y2="647.31"/>
  <line class="cls-5" x1="85.81" y1="636.3" x2="88.55" y2="636.3"/>
  <line class="cls-5" x1="85.81" y1="625.29" x2="88.55" y2="625.29"/>
  <line class="cls-5" x1="85.81" y1="614.27" x2="88.55" y2="614.27"/>
  <line class="cls-5" x1="85.81" y1="603.26" x2="88.55" y2="603.26"/>
  <line class="cls-5" x1="85.81" y1="592.25" x2="88.55" y2="592.25"/>
  <line class="cls-5" x1="85.81" y1="581.24" x2="88.55" y2="581.24"/>
  <line class="cls-5" x1="85.81" y1="570.23" x2="88.55" y2="570.23"/>
  <line class="cls-5" x1="85.81" y1="559.21" x2="88.55" y2="559.21"/>
  <line class="cls-5" x1="85.81" y1="548.2" x2="88.55" y2="548.2"/>
  <line class="cls-5" x1="85.81" y1="537.19" x2="88.55" y2="537.19"/>
  <line class="cls-5" x1="85.81" y1="526.18" x2="88.55" y2="526.18"/>
  <line class="cls-5" x1="85.81" y1="515.17" x2="88.55" y2="515.17"/>
  <line class="cls-5" x1="85.81" y1="504.16" x2="88.55" y2="504.16"/>
  <line class="cls-5" x1="85.81" y1="493.14" x2="88.55" y2="493.14"/>
  <line class="cls-5" x1="85.81" y1="482.13" x2="88.55" y2="482.13"/>
  <line class="cls-5" x1="85.81" y1="471.12" x2="88.55" y2="471.12"/>
  <line class="cls-5" x1="85.81" y1="460.11" x2="88.55" y2="460.11"/>
  <line class="cls-5" x1="85.81" y1="449.1" x2="88.55" y2="449.1"/>
  <line class="cls-5" x1="85.81" y1="438.09" x2="88.55" y2="438.09"/>
  <line class="cls-5" x1="85.81" y1="427.07" x2="88.55" y2="427.07"/>
  <line class="cls-5" x1="85.81" y1="416.06" x2="88.55" y2="416.06"/>
  <line class="cls-5" x1="85.81" y1="405.05" x2="88.55" y2="405.05"/>
  <line class="cls-5" x1="85.81" y1="394.04" x2="88.55" y2="394.04"/>
  <line class="cls-5" x1="85.81" y1="383.03" x2="88.55" y2="383.03"/>
  <line class="cls-5" x1="85.81" y1="372.01" x2="88.55" y2="372.01"/>
  <line class="cls-5" x1="85.81" y1="361" x2="88.55" y2="361"/>
  <line class="cls-5" x1="85.81" y1="349.99" x2="88.55" y2="349.99"/>
  <line class="cls-5" x1="85.81" y1="338.98" x2="88.55" y2="338.98"/>
  <line class="cls-5" x1="85.81" y1="327.97" x2="88.55" y2="327.97"/>
  <line class="cls-5" x1="85.81" y1="316.96" x2="88.55" y2="316.96"/>
  <line class="cls-5" x1="85.81" y1="305.94" x2="88.55" y2="305.94"/>
  <line class="cls-5" x1="85.81" y1="294.93" x2="88.55" y2="294.93"/>
  <line class="cls-5" x1="85.81" y1="283.92" x2="88.55" y2="283.92"/>
  <line class="cls-5" x1="85.81" y1="272.91" x2="88.55" y2="272.91"/>
  <line class="cls-5" x1="85.81" y1="261.9" x2="88.55" y2="261.9"/>
  <line class="cls-5" x1="85.81" y1="250.89" x2="88.55" y2="250.89"/>
  <line class="cls-5" x1="85.81" y1="239.87" x2="88.55" y2="239.87"/>
  <line class="cls-5" x1="85.81" y1="228.86" x2="88.55" y2="228.86"/>
  <line class="cls-5" x1="85.81" y1="217.85" x2="88.55" y2="217.85"/>
  <line class="cls-5" x1="85.81" y1="206.84" x2="88.55" y2="206.84"/>
  <line class="cls-5" x1="85.81" y1="195.83" x2="88.55" y2="195.83"/>
  <line class="cls-5" x1="85.81" y1="184.81" x2="88.55" y2="184.81"/>
  <line class="cls-5" x1="85.81" y1="173.8" x2="88.55" y2="173.8"/>
  <line class="cls-5" x1="85.81" y1="162.79" x2="88.55" y2="162.79"/>
  <line class="cls-5" x1="85.81" y1="151.78" x2="88.55" y2="151.78"/>
  <line class="cls-5" x1="85.81" y1="140.77" x2="88.55" y2="140.77"/>
  <line class="cls-5" x1="85.81" y1="129.76" x2="88.55" y2="129.76"/>
  <line class="cls-5" x1="85.81" y1="118.74" x2="88.55" y2="118.74"/>
  <line class="cls-5" x1="85.81" y1="107.73" x2="88.55" y2="107.73"/>
  <line class="cls-5" x1="85.81" y1="96.72" x2="88.55" y2="96.72"/>
  <line class="cls-5" x1="85.81" y1="85.71" x2="88.55" y2="85.71"/>
  <line class="cls-5" x1="85.81" y1="74.7" x2="88.55" y2="74.7"/>
  <line class="cls-5" x1="85.81" y1="63.69" x2="88.55" y2="63.69"/>
  <line class="cls-5" x1="85.81" y1="52.67" x2="88.55" y2="52.67"/>
  <line class="cls-5" x1="85.81" y1="41.66" x2="88.55" y2="41.66"/>
  <line class="cls-5" x1="85.81" y1="30.65" x2="88.55" y2="30.65"/>
  <line class="cls-2" x1="88.55" y1="686.95" x2="714.52" y2="686.95"/>
  <line class="cls-5" x1="234.5" y1="689.69" x2="234.5" y2="686.95"/>
  <line class="cls-5" x1="411.7" y1="689.69" x2="411.7" y2="686.95"/>
  <line class="cls-5" x1="588.89" y1="689.69" x2="588.89" y2="686.95"/>
  <text class="cls-22" transform="translate(229.37 698.34)"><tspan x="0" y="0">−4</tspan></text>
  <text class="cls-22" transform="translate(409.19 698.34)"><tspan x="0" y="0">0</tspan></text>
  <text class="cls-22" transform="translate(586.39 698.34)"><tspan x="0" y="0">4</tspan></text>
  <text class="cls-21" transform="translate(386.87 711.52)"><tspan x="0" y="0">logFC</tspan></text>
  <text class="cls-21" transform="translate(13.38 367.73) rotate(-90)"><tspan x="0" y="0">gene</tspan></text>
  <text class="cls-23" transform="translate(88.55 14.81)"><tspan x="0" y="0">wt v</tspan><tspan class="cls-25" x="23.11" y="0">s</tspan><tspan x="29.43" y="0">. 4</tspan><tspan class="cls-14" x="43.88" y="0">K</tspan><tspan x="51.9" y="0">O at 1E−9 FDR cutoff</tspan></text>
</svg>