<?xml version="1.0" encoding="UTF-8"?>
<svg id="Layer_1" data-name="Layer 1" xmlns="http://www.w3.org/2000/svg" version="1.1" xmlns:xlink="http://www.w3.org/1999/xlink" viewBox="0 0 504 504">
  <defs>
    <style>
      .cls-1, .cls-2, .cls-3, .cls-4, .cls-5, .cls-6, .cls-7, .cls-8, .cls-9, .cls-10, .cls-11, .cls-12, .cls-13, .cls-14, .cls-15, .cls-16, .cls-17, .cls-18 {
        font-family: ArialMT, Arial;
      }

      .cls-1, .cls-2, .cls-4, .cls-5, .cls-6, .cls-7, .cls-8, .cls-9, .cls-10, .cls-11, .cls-12, .cls-13, .cls-15, .cls-16, .cls-17 {
        font-size: 11px;
      }

      .cls-1, .cls-19 {
        fill: #e38900;
      }

      .cls-20 {
        stroke: #fb61d7;
      }

      .cls-20, .cls-21, .cls-22, .cls-23, .cls-24, .cls-25, .cls-26, .cls-27, .cls-28, .cls-29, .cls-30, .cls-31, .cls-32, .cls-33, .cls-34, .cls-35, .cls-36, .cls-37, .cls-38, .cls-39 {
        fill: none;
      }

      .cls-20, .cls-21, .cls-22, .cls-23, .cls-24, .cls-25, .cls-27, .cls-28, .cls-29, .cls-30, .cls-31, .cls-32, .cls-33, .cls-34, .cls-35, .cls-36, .cls-37, .cls-38, .cls-39 {
        stroke-linejoin: round;
      }

      .cls-20, .cls-22, .cls-23, .cls-24, .cls-25, .cls-27, .cls-28, .cls-29, .cls-30, .cls-31, .cls-33, .cls-34, .cls-35, .cls-36, .cls-37, .cls-38, .cls-39 {
        stroke-linecap: round;
      }

      .cls-20, .cls-22, .cls-23, .cls-24, .cls-25, .cls-27, .cls-28, .cls-29, .cls-30, .cls-31, .cls-33, .cls-34, .cls-36, .cls-37, .cls-39 {
        stroke-width: .71px;
      }

      .cls-21, .cls-32, .cls-35, .cls-38 {
        stroke-width: 1.07px;
      }

      .cls-21, .cls-39 {
        stroke: #000;
      }

      .cls-2, .cls-40 {
        fill: #00bc56;
      }

      .cls-19, .cls-41, .cls-42, .cls-43, .cls-44, .cls-45, .cls-26, .cls-46, .cls-47, .cls-48, .cls-40, .cls-49, .cls-50, .cls-51, .cls-52, .cls-53, .cls-54 {
        stroke-width: 0px;
      }

      .cls-19, .cls-41, .cls-42, .cls-43, .cls-44, .cls-45, .cls-46, .cls-47, .cls-48, .cls-40, .cls-49, .cls-50, .cls-52, .cls-53, .cls-54 {
        opacity: .5;
      }

      .cls-41, .cls-7 {
        fill: #00b6eb;
      }

      .cls-42, .cls-6 {
        fill: #a58aff;
      }

      .cls-43, .cls-15 {
        fill: #c49a00;
      }

      .cls-44, .cls-3, .cls-12, .cls-18 {
        fill: #000;
      }

      .cls-3, .cls-14 {
        font-size: 9px;
      }

      .cls-4, .cls-53 {
        fill: #06a4ff;
      }

      .cls-45, .cls-9 {
        fill: #f8766d;
      }

      .cls-22 {
        stroke: #ff66a8;
      }

      .cls-23 {
        stroke: #00c094;
      }

      .cls-24 {
        stroke: #df70f8;
      }

      .cls-5, .cls-48 {
        fill: #99a800;
      }

      .cls-25 {
        stroke: #06a4ff;
      }

      .cls-27 {
        stroke: #53b400;
      }

      .cls-28 {
        stroke: #00bc56;
      }

      .cls-29 {
        stroke: #f8766d;
      }

      .cls-55 {
        clip-path: url(#clippath-1);
      }

      .cls-30 {
        stroke: #c49a00;
      }

      .cls-46, .cls-13 {
        fill: #fb61d7;
      }

      .cls-31 {
        stroke: #e38900;
      }

      .cls-32 {
        stroke: #333;
      }

      .cls-47, .cls-17 {
        fill: #53b400;
      }

      .cls-33 {
        stroke: #00bfc4;
      }

      .cls-34 {
        stroke: #00b6eb;
      }

      .cls-56 {
        letter-spacing: .01em;
      }

      .cls-8, .cls-49 {
        fill: #ff66a8;
      }

      .cls-35 {
        stroke: #ccc;
      }

      .cls-57 {
        clip-path: url(#clippath);
      }

      .cls-36 {
        stroke: #a58aff;
      }

      .cls-10, .cls-50 {
        fill: #df70f8;
      }

      .cls-37 {
        stroke: #99a800;
      }

      .cls-11, .cls-54 {
        fill: #00bfc4;
      }

      .cls-14 {
        fill: #4d4d4d;
      }

      .cls-51 {
        fill: #fff;
      }

      .cls-52, .cls-16 {
        fill: #00c094;
      }

      .cls-38 {
        stroke: #fff;
      }

      .cls-18 {
        font-size: 13px;
      }
    </style>
    <clipPath id="clippath">
      <rect class="cls-26" y="59.6" width="504" height="384.8"/>
    </clipPath>
    <clipPath id="clippath-1">
      <rect class="cls-26" x="30.52" y="82.73" width="370.29" height="329.25"/>
    </clipPath>
  </defs>
  <g class="cls-57">
    <rect class="cls-51" y="59.6" width="504" height="384.8"/>
    <rect class="cls-38" y="59.6" width="504" height="384.8"/>
  </g>
  <g class="cls-55">
    <rect class="cls-51" x="30.52" y="82.73" width="370.29" height="329.25"/>
    <line class="cls-35" x1="71.11" y1="360.11" x2="61.64" y2="336.26"/>
    <text class="cls-5" transform="translate(347.4 102.21)"><tspan x="0" y="0">23465</tspan></text>
    <text class="cls-10" transform="translate(56.84 369.81)"><tspan x="0" y="0">23967</tspan></text>
    <text class="cls-8" transform="translate(38.61 344.76)"><tspan x="0" y="0">36183</tspan></text>
    <text class="cls-8" transform="translate(54.9 312.09)"><tspan x="0" y="0">36184</tspan></text>
    <path class="cls-19" d="M277.95,381.47c0-4.38,3.59-7.96,7.96-7.96s7.97,3.58,7.97,7.96-3.59,7.96-7.97,7.96-7.96-3.58-7.96-7.96"/>
    <path class="cls-48" d="M232.85,223.5c0-4.83,3.95-8.78,8.78-8.78s8.78,3.95,8.78,8.78-3.95,8.78-8.78,8.78-8.78-3.95-8.78-8.78"/>
    <path class="cls-19" d="M329.09,387.53c0-5.04,4.13-9.16,9.16-9.16s9.16,4.12,9.16,9.16-4.12,9.16-9.16,9.16-9.16-4.12-9.16-9.16"/>
    <path class="cls-48" d="M292.45,214.76c0-5.55,4.54-10.09,10.09-10.09s10.09,4.54,10.09,10.09-4.54,10.09-10.09,10.09-10.09-4.54-10.09-10.09"/>
    <path class="cls-19" d="M332.89,384.53c0-5.39,4.41-9.81,9.81-9.81s9.81,4.42,9.81,9.81-4.42,9.81-9.81,9.81-9.81-4.41-9.81-9.81"/>
    <path class="cls-48" d="M288.9,187.09c0-5.58,4.57-10.15,10.14-10.15s10.15,4.57,10.15,10.15-4.57,10.14-10.15,10.14-10.14-4.57-10.14-10.14"/>
    <path class="cls-48" d="M373.84,97.7c0-5.58,4.56-10.14,10.14-10.14s10.14,4.56,10.14,10.14-4.56,10.14-10.14,10.14-10.14-4.56-10.14-10.14"/>
    <path class="cls-43" d="M358.65,360.8c0-4.3,3.52-7.82,7.82-7.82s7.81,3.52,7.81,7.82-3.51,7.81-7.81,7.81-7.82-3.52-7.82-7.81"/>
    <path class="cls-40" d="M89.81,272.51c0-4.75,3.89-8.65,8.65-8.65s8.65,3.9,8.65,8.65-3.89,8.66-8.65,8.66-8.65-3.9-8.65-8.66"/>
    <path class="cls-42" d="M119.52,266.99c0-5.75,4.71-10.46,10.47-10.46s10.46,4.71,10.46,10.46-4.71,10.46-10.46,10.46-10.47-4.7-10.47-10.46"/>
    <path class="cls-19" d="M323.28,373.74c0-6.06,4.96-11.02,11.03-11.02s11.02,4.96,11.02,11.02-4.96,11.03-11.02,11.03-11.03-4.96-11.03-11.03"/>
    <path class="cls-50" d="M47.4,323.17c0-4.97,4.07-9.04,9.04-9.04s9.03,4.07,9.03,9.04-4.06,9.04-9.03,9.04-9.04-4.07-9.04-9.04"/>
    <path class="cls-45" d="M186.53,314.9c0-3.35,2.74-6.1,6.09-6.1s6.1,2.75,6.1,6.1-2.74,6.1-6.1,6.1-6.09-2.75-6.09-6.1"/>
    <path class="cls-41" d="M112.42,247.22c0-4.38,3.59-7.97,7.97-7.97s7.96,3.59,7.96,7.97-3.58,7.96-7.96,7.96-7.97-3.59-7.97-7.96"/>
    <path class="cls-47" d="M289.15,239.91c0-3.86,3.16-7.02,7.02-7.02s7.02,3.16,7.02,7.02-3.16,7.02-7.02,7.02-7.02-3.16-7.02-7.02"/>
    <path class="cls-48" d="M323.73,213.09c0-5.86,4.8-10.67,10.67-10.67s10.67,4.81,10.67,10.67-4.8,10.68-10.67,10.68-10.67-4.81-10.67-10.68"/>
    <path class="cls-46" d="M161.9,252.91c0-4.08,3.34-7.43,7.43-7.43s7.43,3.35,7.43,7.43-3.34,7.44-7.43,7.44-7.43-3.35-7.43-7.44"/>
    <path class="cls-41" d="M183.09,250.29c0-2.71,2.22-4.93,4.94-4.93s4.93,2.22,4.93,4.93-2.22,4.94-4.93,4.94-4.94-2.22-4.94-4.94"/>
    <path class="cls-48" d="M272.97,214.61c0-5.3,4.33-9.64,9.63-9.64s9.64,4.34,9.64,9.64-4.34,9.64-9.64,9.64-9.63-4.34-9.63-9.64"/>
    <path class="cls-48" d="M284.56,229.28c0-6.03,4.94-10.97,10.97-10.97s10.98,4.94,10.98,10.97-4.94,10.98-10.98,10.98-10.97-4.94-10.97-10.98"/>
    <path class="cls-54" d="M75.92,292.17c0-3.62,2.96-6.58,6.58-6.58s6.58,2.96,6.58,6.58-2.96,6.58-6.58,6.58-6.58-2.96-6.58-6.58"/>
    <path class="cls-19" d="M327.88,349.55c0-1.32,1.08-2.4,2.39-2.4s2.4,1.08,2.4,2.4-1.08,2.4-2.4,2.4-2.39-1.08-2.39-2.4"/>
    <path class="cls-52" d="M102.81,270.85c0-2.39,1.96-4.35,4.35-4.35s4.34,1.96,4.34,4.35-1.95,4.35-4.34,4.35-4.35-1.96-4.35-4.35"/>
    <path class="cls-43" d="M333.71,397.02c0-4.26,3.48-7.74,7.74-7.74s7.74,3.48,7.74,7.74-3.49,7.74-7.74,7.74-7.74-3.49-7.74-7.74"/>
    <path class="cls-41" d="M73.12,273.84c0-5.61,4.58-10.2,10.19-10.2s10.2,4.59,10.2,10.2-4.59,10.19-10.2,10.19-10.19-4.59-10.19-10.19"/>
    <path class="cls-53" d="M153.26,300.67c0-3.18,2.6-5.78,5.78-5.78s5.78,2.6,5.78,5.78-2.6,5.78-5.78,5.78-5.78-2.6-5.78-5.78"/>
    <path class="cls-52" d="M116.84,259.92c0-4.3,3.52-7.82,7.81-7.82s7.82,3.52,7.82,7.82-3.52,7.81-7.82,7.81-7.81-3.51-7.81-7.81"/>
    <path class="cls-49" d="M45.93,327.71c0-.78.64-1.42,1.42-1.42s1.43.64,1.43,1.42-.64,1.42-1.43,1.42-1.42-.64-1.42-1.42"/>
    <path class="cls-49" d="M58.68,320.03c0-.78.64-1.42,1.42-1.42s1.42.64,1.42,1.42-.64,1.42-1.42,1.42-1.42-.63-1.42-1.42"/>
    <path class="cls-31" d="M277.95,381.47c0-4.38,3.59-7.96,7.96-7.96s7.97,3.58,7.97,7.96-3.59,7.96-7.97,7.96-7.96-3.58-7.96-7.96"/>
    <path class="cls-37" d="M232.85,223.5c0-4.83,3.95-8.78,8.78-8.78s8.78,3.95,8.78,8.78-3.95,8.78-8.78,8.78-8.78-3.95-8.78-8.78"/>
    <path class="cls-31" d="M329.09,387.53c0-5.04,4.13-9.16,9.16-9.16s9.16,4.12,9.16,9.16-4.12,9.16-9.16,9.16-9.16-4.12-9.16-9.16"/>
    <path class="cls-37" d="M292.45,214.76c0-5.55,4.54-10.09,10.09-10.09s10.09,4.54,10.09,10.09-4.54,10.09-10.09,10.09-10.09-4.54-10.09-10.09"/>
    <path class="cls-31" d="M332.89,384.53c0-5.39,4.41-9.81,9.81-9.81s9.81,4.42,9.81,9.81-4.42,9.81-9.81,9.81-9.81-4.41-9.81-9.81"/>
    <path class="cls-37" d="M288.9,187.09c0-5.58,4.57-10.15,10.14-10.15s10.15,4.57,10.15,10.15-4.57,10.14-10.15,10.14-10.14-4.57-10.14-10.14"/>
    <path class="cls-37" d="M373.84,97.7c0-5.58,4.56-10.14,10.14-10.14s10.14,4.56,10.14,10.14-4.56,10.14-10.14,10.14-10.14-4.56-10.14-10.14"/>
    <path class="cls-30" d="M358.65,360.8c0-4.3,3.52-7.82,7.82-7.82s7.81,3.52,7.81,7.82-3.51,7.81-7.81,7.81-7.82-3.52-7.82-7.81"/>
    <path class="cls-28" d="M89.81,272.51c0-4.75,3.89-8.65,8.65-8.65s8.65,3.9,8.65,8.65-3.89,8.66-8.65,8.66-8.65-3.9-8.65-8.66"/>
    <path class="cls-36" d="M119.52,266.99c0-5.75,4.71-10.46,10.47-10.46s10.46,4.71,10.46,10.46-4.71,10.46-10.46,10.46-10.47-4.7-10.47-10.46"/>
    <path class="cls-31" d="M323.28,373.74c0-6.06,4.96-11.02,11.03-11.02s11.02,4.96,11.02,11.02-4.96,11.03-11.02,11.03-11.03-4.96-11.03-11.03"/>
    <path class="cls-24" d="M47.4,323.17c0-4.97,4.07-9.04,9.04-9.04s9.03,4.07,9.03,9.04-4.06,9.04-9.03,9.04-9.04-4.07-9.04-9.04"/>
    <path class="cls-29" d="M186.53,314.9c0-3.35,2.74-6.1,6.09-6.1s6.1,2.75,6.1,6.1-2.74,6.1-6.1,6.1-6.09-2.75-6.09-6.1"/>
    <path class="cls-34" d="M112.42,247.22c0-4.38,3.59-7.97,7.97-7.97s7.96,3.59,7.96,7.97-3.58,7.96-7.96,7.96-7.97-3.59-7.97-7.96"/>
    <path class="cls-27" d="M289.15,239.91c0-3.86,3.16-7.02,7.02-7.02s7.02,3.16,7.02,7.02-3.16,7.02-7.02,7.02-7.02-3.16-7.02-7.02"/>
    <path class="cls-37" d="M323.73,213.09c0-5.86,4.8-10.67,10.67-10.67s10.67,4.81,10.67,10.67-4.8,10.68-10.67,10.68-10.67-4.81-10.67-10.68"/>
    <path class="cls-20" d="M161.9,252.91c0-4.08,3.34-7.43,7.43-7.43s7.43,3.35,7.43,7.43-3.34,7.44-7.43,7.44-7.43-3.35-7.43-7.44"/>
    <path class="cls-34" d="M183.09,250.29c0-2.71,2.22-4.93,4.94-4.93s4.93,2.22,4.93,4.93-2.22,4.94-4.93,4.94-4.94-2.22-4.94-4.94"/>
    <path class="cls-37" d="M272.97,214.61c0-5.3,4.33-9.64,9.63-9.64s9.64,4.34,9.64,9.64-4.34,9.64-9.64,9.64-9.63-4.34-9.63-9.64"/>
    <path class="cls-37" d="M284.56,229.28c0-6.03,4.94-10.97,10.97-10.97s10.98,4.94,10.98,10.97-4.94,10.98-10.98,10.98-10.97-4.94-10.97-10.98"/>
    <path class="cls-33" d="M75.92,292.17c0-3.62,2.96-6.58,6.58-6.58s6.58,2.96,6.58,6.58-2.96,6.58-6.58,6.58-6.58-2.96-6.58-6.58"/>
    <path class="cls-31" d="M327.88,349.55c0-1.32,1.08-2.4,2.39-2.4s2.4,1.08,2.4,2.4-1.08,2.4-2.4,2.4-2.39-1.08-2.39-2.4"/>
    <path class="cls-23" d="M102.81,270.85c0-2.39,1.96-4.35,4.35-4.35s4.34,1.96,4.34,4.35-1.95,4.35-4.34,4.35-4.35-1.96-4.35-4.35"/>
    <path class="cls-30" d="M333.71,397.02c0-4.26,3.48-7.74,7.74-7.74s7.74,3.48,7.74,7.74-3.49,7.74-7.74,7.74-7.74-3.49-7.74-7.74"/>
    <path class="cls-34" d="M73.12,273.84c0-5.61,4.58-10.2,10.19-10.2s10.2,4.59,10.2,10.2-4.59,10.19-10.2,10.19-10.19-4.59-10.19-10.19"/>
    <path class="cls-25" d="M153.26,300.67c0-3.18,2.6-5.78,5.78-5.78s5.78,2.6,5.78,5.78-2.6,5.78-5.78,5.78-5.78-2.6-5.78-5.78"/>
    <path class="cls-23" d="M116.84,259.92c0-4.3,3.52-7.82,7.81-7.82s7.82,3.52,7.82,7.82-3.52,7.81-7.82,7.81-7.81-3.51-7.81-7.81"/>
    <path class="cls-22" d="M45.93,327.71c0-.78.64-1.42,1.42-1.42s1.43.64,1.43,1.42-.64,1.42-1.43,1.42-1.42-.64-1.42-1.42"/>
    <path class="cls-22" d="M58.68,320.03c0-.78.64-1.42,1.42-1.42s1.42.64,1.42,1.42-.64,1.42-1.42,1.42-1.42-.63-1.42-1.42"/>
  </g>
  <line class="cls-21" x1="30.52" y1="411.98" x2="30.52" y2="82.73"/>
  <text class="cls-14" transform="translate(15.33 396.47)"><tspan x="0" y="0">−2</tspan></text>
  <text class="cls-14" transform="translate(20.59 286.95)"><tspan x="0" y="0">0</tspan></text>
  <text class="cls-14" transform="translate(20.59 177.43)"><tspan x="0" y="0">2</tspan></text>
  <line class="cls-32" x1="27.78" y1="393.24" x2="30.52" y2="393.24"/>
  <line class="cls-32" x1="27.78" y1="283.72" x2="30.52" y2="283.72"/>
  <line class="cls-32" x1="27.78" y1="174.19" x2="30.52" y2="174.19"/>
  <line class="cls-21" x1="30.52" y1="411.98" x2="400.81" y2="411.98"/>
  <line class="cls-32" x1="110.98" y1="414.72" x2="110.98" y2="411.98"/>
  <line class="cls-32" x1="220.5" y1="414.72" x2="220.5" y2="411.98"/>
  <line class="cls-32" x1="330.03" y1="414.72" x2="330.03" y2="411.98"/>
  <text class="cls-14" transform="translate(105.85 423.38)"><tspan x="0" y="0">−2</tspan></text>
  <text class="cls-14" transform="translate(218 423.38)"><tspan x="0" y="0">0</tspan></text>
  <text class="cls-14" transform="translate(327.52 423.38)"><tspan x="0" y="0">2</tspan></text>
  <text class="cls-12" transform="translate(212.92 437.03)"><tspan x="0" y="0">x</tspan></text>
  <text class="cls-12" transform="translate(13.38 250.11) rotate(-90)"><tspan x="0" y="0">y</tspan></text>
  <rect class="cls-51" x="411.77" y="61.43" width="86.75" height="91.17"/>
  <text class="cls-12" transform="translate(417.25 76.54)"><tspan x="0" y="0">(150 − aod + 1)</tspan></text>
  <rect class="cls-51" x="417.25" y="83.76" width="25.12" height="17.28"/>
  <path class="cls-44" d="M423.61,92.4c0-3.41,2.79-6.2,6.2-6.2s6.2,2.79,6.2,6.2-2.79,6.2-6.2,6.2-6.2-2.79-6.2-6.2"/>
  <path class="cls-39" d="M423.61,92.4c0-3.41,2.79-6.2,6.2-6.2s6.2,2.79,6.2,6.2-2.79,6.2-6.2,6.2-6.2-2.79-6.2-6.2"/>
  <rect class="cls-51" x="417.25" y="101.03" width="25.12" height="20.97"/>
  <path class="cls-44" d="M421.56,111.52c0-4.53,3.71-8.25,8.25-8.25s8.25,3.72,8.25,8.25-3.71,8.25-8.25,8.25-8.25-3.71-8.25-8.25"/>
  <path class="cls-39" d="M421.56,111.52c0-4.53,3.71-8.25,8.25-8.25s8.25,3.72,8.25,8.25-3.71,8.25-8.25,8.25-8.25-3.71-8.25-8.25"/>
  <rect class="cls-51" x="417.25" y="122" width="25.12" height="25.12"/>
  <path class="cls-44" d="M420,134.56c0-5.39,4.42-9.81,9.81-9.81s9.81,4.42,9.81,9.81-4.41,9.81-9.81,9.81-9.81-4.41-9.81-9.81"/>
  <path class="cls-39" d="M420,134.56c0-5.39,4.42-9.81,9.81-9.81s9.81,4.42,9.81,9.81-4.41,9.81-9.81,9.81-9.81-4.41-9.81-9.81"/>
  <text class="cls-3" transform="translate(447.85 95.63)"><tspan x="0" y="0">25</tspan></text>
  <text class="cls-3" transform="translate(447.85 114.75)"><tspan x="0" y="0">50</tspan></text>
  <text class="cls-3" transform="translate(447.85 137.79)"><tspan x="0" y="0">75</tspan></text>
  <rect class="cls-51" x="411.77" y="163.56" width="84.85" height="269.73"/>
  <text class="cls-12" transform="translate(417.25 178.67)"><tspan x="0" y="0">patho_cat_det</tspan></text>
  <rect class="cls-51" x="417.25" y="185.89" width="17.28" height="17.28"/>
  <text class="cls-9" transform="translate(422.83 198.48)"><tspan x="0" y="0">a</tspan></text>
  <path class="cls-45" d="M423.94,194.53c0-1.08.88-1.96,1.95-1.96s1.96.88,1.96,1.96-.88,1.95-1.96,1.95-1.95-.88-1.95-1.95"/>
  <path class="cls-29" d="M423.94,194.53c0-1.08.88-1.96,1.95-1.96s1.96.88,1.96,1.96-.88,1.95-1.96,1.95-1.95-.88-1.95-1.95"/>
  <rect class="cls-51" x="417.25" y="203.17" width="17.28" height="17.28"/>
  <text class="cls-1" transform="translate(422.83 215.76)"><tspan x="0" y="0">a</tspan></text>
  <path class="cls-19" d="M423.94,211.81c0-1.08.88-1.96,1.95-1.96s1.96.88,1.96,1.96-.88,1.95-1.96,1.95-1.95-.88-1.95-1.95"/>
  <path class="cls-31" d="M423.94,211.81c0-1.08.88-1.96,1.95-1.96s1.96.88,1.96,1.96-.88,1.95-1.96,1.95-1.95-.88-1.95-1.95"/>
  <rect class="cls-51" x="417.25" y="220.45" width="17.28" height="17.28"/>
  <text class="cls-15" transform="translate(422.83 233.04)"><tspan x="0" y="0">a</tspan></text>
  <path class="cls-43" d="M423.94,229.09c0-1.08.88-1.96,1.95-1.96s1.96.88,1.96,1.96-.88,1.95-1.96,1.95-1.95-.88-1.95-1.95"/>
  <path class="cls-30" d="M423.94,229.09c0-1.08.88-1.96,1.95-1.96s1.96.88,1.96,1.96-.88,1.95-1.96,1.95-1.95-.88-1.95-1.95"/>
  <rect class="cls-51" x="417.25" y="237.73" width="17.28" height="17.28"/>
  <text class="cls-5" transform="translate(422.83 250.32)"><tspan x="0" y="0">a</tspan></text>
  <path class="cls-48" d="M423.94,246.37c0-1.08.88-1.96,1.95-1.96s1.96.88,1.96,1.96-.88,1.95-1.96,1.95-1.95-.88-1.95-1.95"/>
  <path class="cls-37" d="M423.94,246.37c0-1.08.88-1.96,1.95-1.96s1.96.88,1.96,1.96-.88,1.95-1.96,1.95-1.95-.88-1.95-1.95"/>
  <rect class="cls-51" x="417.25" y="255.01" width="17.28" height="17.28"/>
  <text class="cls-17" transform="translate(422.83 267.6)"><tspan x="0" y="0">a</tspan></text>
  <path class="cls-47" d="M423.94,263.65c0-1.08.88-1.96,1.95-1.96s1.96.88,1.96,1.96-.88,1.95-1.96,1.95-1.95-.88-1.95-1.95"/>
  <path class="cls-27" d="M423.94,263.65c0-1.08.88-1.96,1.95-1.96s1.96.88,1.96,1.96-.88,1.95-1.96,1.95-1.95-.88-1.95-1.95"/>
  <rect class="cls-51" x="417.25" y="272.29" width="17.28" height="17.28"/>
  <text class="cls-2" transform="translate(422.83 284.88)"><tspan x="0" y="0">a</tspan></text>
  <path class="cls-40" d="M423.94,280.93c0-1.08.88-1.96,1.95-1.96s1.96.88,1.96,1.96-.88,1.95-1.96,1.95-1.95-.88-1.95-1.95"/>
  <path class="cls-28" d="M423.94,280.93c0-1.08.88-1.96,1.95-1.96s1.96.88,1.96,1.96-.88,1.95-1.96,1.95-1.95-.88-1.95-1.95"/>
  <rect class="cls-51" x="417.25" y="289.57" width="17.28" height="17.28"/>
  <text class="cls-16" transform="translate(422.83 302.16)"><tspan x="0" y="0">a</tspan></text>
  <path class="cls-52" d="M423.94,298.21c0-1.08.88-1.96,1.95-1.96s1.96.88,1.96,1.96-.88,1.95-1.96,1.95-1.95-.88-1.95-1.95"/>
  <path class="cls-23" d="M423.94,298.21c0-1.08.88-1.96,1.95-1.96s1.96.88,1.96,1.96-.88,1.95-1.96,1.95-1.95-.88-1.95-1.95"/>
  <rect class="cls-51" x="417.25" y="306.85" width="17.28" height="17.28"/>
  <text class="cls-11" transform="translate(422.83 319.44)"><tspan x="0" y="0">a</tspan></text>
  <path class="cls-54" d="M423.94,315.49c0-1.08.88-1.96,1.95-1.96s1.96.88,1.96,1.96-.88,1.95-1.96,1.95-1.95-.88-1.95-1.95"/>
  <path class="cls-33" d="M423.94,315.49c0-1.08.88-1.96,1.95-1.96s1.96.88,1.96,1.96-.88,1.95-1.96,1.95-1.95-.88-1.95-1.95"/>
  <rect class="cls-51" x="417.25" y="324.13" width="17.28" height="17.28"/>
  <text class="cls-7" transform="translate(422.83 336.72)"><tspan x="0" y="0">a</tspan></text>
  <path class="cls-41" d="M423.94,332.77c0-1.08.88-1.96,1.95-1.96s1.96.88,1.96,1.96-.88,1.95-1.96,1.95-1.95-.88-1.95-1.95"/>
  <path class="cls-34" d="M423.94,332.77c0-1.08.88-1.96,1.95-1.96s1.96.88,1.96,1.96-.88,1.95-1.96,1.95-1.95-.88-1.95-1.95"/>
  <rect class="cls-51" x="417.25" y="341.41" width="17.28" height="17.28"/>
  <text class="cls-4" transform="translate(422.83 354)"><tspan x="0" y="0">a</tspan></text>
  <path class="cls-53" d="M423.94,350.05c0-1.08.88-1.96,1.95-1.96s1.96.88,1.96,1.96-.88,1.95-1.96,1.95-1.95-.88-1.95-1.95"/>
  <path class="cls-25" d="M423.94,350.05c0-1.08.88-1.96,1.95-1.96s1.96.88,1.96,1.96-.88,1.95-1.96,1.95-1.95-.88-1.95-1.95"/>
  <rect class="cls-51" x="417.25" y="358.69" width="17.28" height="17.28"/>
  <text class="cls-6" transform="translate(422.83 371.28)"><tspan x="0" y="0">a</tspan></text>
  <path class="cls-42" d="M423.94,367.33c0-1.08.88-1.96,1.95-1.96s1.96.88,1.96,1.96-.88,1.95-1.96,1.95-1.95-.88-1.95-1.95"/>
  <path class="cls-36" d="M423.94,367.33c0-1.08.88-1.96,1.95-1.96s1.96.88,1.96,1.96-.88,1.95-1.96,1.95-1.95-.88-1.95-1.95"/>
  <rect class="cls-51" x="417.25" y="375.97" width="17.28" height="17.28"/>
  <text class="cls-10" transform="translate(422.83 388.56)"><tspan x="0" y="0">a</tspan></text>
  <path class="cls-50" d="M423.94,384.61c0-1.08.88-1.96,1.95-1.96s1.96.88,1.96,1.96-.88,1.95-1.96,1.95-1.95-.88-1.95-1.95"/>
  <path class="cls-24" d="M423.94,384.61c0-1.08.88-1.96,1.95-1.96s1.96.88,1.96,1.96-.88,1.95-1.96,1.95-1.95-.88-1.95-1.95"/>
  <rect class="cls-51" x="417.25" y="393.25" width="17.28" height="17.28"/>
  <text class="cls-13" transform="translate(422.83 405.84)"><tspan x="0" y="0">a</tspan></text>
  <path class="cls-46" d="M423.94,401.89c0-1.08.88-1.96,1.95-1.96s1.96.88,1.96,1.96-.88,1.95-1.96,1.95-1.95-.88-1.95-1.95"/>
  <path class="cls-20" d="M423.94,401.89c0-1.08.88-1.96,1.95-1.96s1.96.88,1.96,1.96-.88,1.95-1.96,1.95-1.95-.88-1.95-1.95"/>
  <rect class="cls-51" x="417.25" y="410.53" width="17.28" height="17.28"/>
  <text class="cls-8" transform="translate(422.83 423.12)"><tspan x="0" y="0">a</tspan></text>
  <path class="cls-49" d="M423.94,419.17c0-1.08.88-1.96,1.95-1.96s1.96.88,1.96,1.96-.88,1.95-1.96,1.95-1.95-.88-1.95-1.95"/>
  <path class="cls-22" d="M423.94,419.17c0-1.08.88-1.96,1.95-1.96s1.96.88,1.96,1.96-.88,1.95-1.96,1.95-1.95-.88-1.95-1.95"/>
  <text class="cls-3" transform="translate(440.01 197.76)"><tspan x="0" y="0">1.2.AF</tspan></text>
  <text class="cls-3" transform="translate(440.01 215.04)"><tspan x="0" y="0">1.2.NOS</tspan></text>
  <text class="cls-3" transform="translate(440.01 232.32)"><tspan x="0" y="0">1.4.NOS</tspan></text>
  <text class="cls-3" transform="translate(440.01 249.6)"><tspan x="0" y="0">2.4.NOS</tspan></text>
  <text class="cls-3" transform="translate(440.01 266.88)"><tspan x="0" y="0">2.4.OF</tspan></text>
  <text class="cls-3" transform="translate(440.01 284.16)"><tspan x="0" y="0">3.2</tspan></text>
  <text class="cls-3" transform="translate(440.01 301.44)"><tspan x="0" y="0">3.3</tspan></text>
  <text class="cls-3" transform="translate(440.01 318.72)"><tspan x="0" y="0">3.4</tspan></text>
  <text class="cls-3" transform="translate(440.01 336)"><tspan x="0" y="0">3.4.G</tspan></text>
  <text class="cls-3" transform="translate(440.01 353.28)"><tspan x="0" y="0">3.4.GSC</tspan></text>
  <text class="cls-3" transform="translate(440.01 370.56)"><tspan x="0" y="0">3.4.LMG</tspan></text>
  <text class="cls-3" transform="translate(440.01 387.84)"><tspan x="0" y="0">4.2.D</tspan></text>
  <text class="cls-3" transform="translate(440.01 405.12)"><tspan x="0" y="0">4.N.NOS</tspan></text>
  <text class="cls-3" transform="translate(440.01 422.4)"><tspan x="0" y="0">NED</tspan></text>
  <text class="cls-18" transform="translate(30.52 74.41)"><tspan x="0" y="0">pathologist subcatego</tspan><tspan class="cls-56" x="126.48" y="0">r</tspan><tspan x="130.99" y="0">ization</tspan></text>
</svg>