<?xml version="1.0" encoding="UTF-8"?>
<svg id="Layer_1" data-name="Layer 1" xmlns="http://www.w3.org/2000/svg" version="1.1" xmlns:xlink="http://www.w3.org/1999/xlink" viewBox="0 0 792 612">
  <defs>
    <style>
      .cls-1, .cls-2, .cls-3, .cls-4, .cls-5, .cls-6, .cls-7, .cls-8, .cls-9, .cls-10, .cls-11, .cls-12, .cls-13, .cls-14, .cls-15, .cls-16, .cls-17, .cls-18 {
        font-family: ArialMT, Arial;
      }

      .cls-1, .cls-2, .cls-4, .cls-5, .cls-6, .cls-7, .cls-8, .cls-9, .cls-10, .cls-11, .cls-12, .cls-13, .cls-15, .cls-16, .cls-17 {
        font-size: 11px;
      }

      .cls-1, .cls-19 {
        fill: #e38900;
      }

      .cls-20 {
        stroke: #fb61d7;
      }

      .cls-20, .cls-21, .cls-22, .cls-23, .cls-24, .cls-25, .cls-26, .cls-27, .cls-28, .cls-29, .cls-30, .cls-31, .cls-32, .cls-33, .cls-34, .cls-35, .cls-36, .cls-37, .cls-38 {
        fill: none;
      }

      .cls-20, .cls-21, .cls-22, .cls-23, .cls-24, .cls-25, .cls-27, .cls-28, .cls-29, .cls-30, .cls-31, .cls-32, .cls-33, .cls-34, .cls-35, .cls-36, .cls-37, .cls-38 {
        stroke-linejoin: round;
      }

      .cls-20, .cls-22, .cls-23, .cls-24, .cls-25, .cls-27, .cls-28, .cls-29, .cls-30, .cls-31, .cls-33, .cls-34, .cls-35, .cls-36, .cls-37, .cls-38 {
        stroke-linecap: round;
      }

      .cls-20, .cls-22, .cls-23, .cls-24, .cls-25, .cls-27, .cls-28, .cls-29, .cls-30, .cls-31, .cls-33, .cls-34, .cls-35, .cls-36, .cls-38 {
        stroke-width: .71px;
      }

      .cls-21, .cls-32, .cls-37 {
        stroke-width: 1.07px;
      }

      .cls-21, .cls-38 {
        stroke: #000;
      }

      .cls-2, .cls-39 {
        fill: #00bc56;
      }

      .cls-19, .cls-40, .cls-41, .cls-42, .cls-43, .cls-44, .cls-26, .cls-45, .cls-46, .cls-47, .cls-39, .cls-48, .cls-49, .cls-50, .cls-51, .cls-52, .cls-53 {
        stroke-width: 0px;
      }

      .cls-19, .cls-40, .cls-41, .cls-42, .cls-43, .cls-44, .cls-45, .cls-46, .cls-47, .cls-39, .cls-48, .cls-49, .cls-51, .cls-52, .cls-53 {
        opacity: .5;
      }

      .cls-40, .cls-7 {
        fill: #00b6eb;
      }

      .cls-41, .cls-6 {
        fill: #a58aff;
      }

      .cls-42, .cls-15 {
        fill: #c49a00;
      }

      .cls-43, .cls-3, .cls-12, .cls-18 {
        fill: #000;
      }

      .cls-3, .cls-14 {
        font-size: 9px;
      }

      .cls-4, .cls-52 {
        fill: #06a4ff;
      }

      .cls-44, .cls-9 {
        fill: #f8766d;
      }

      .cls-22 {
        stroke: #ff66a8;
      }

      .cls-23 {
        stroke: #00c094;
      }

      .cls-24 {
        stroke: #df70f8;
      }

      .cls-5, .cls-47 {
        fill: #99a800;
      }

      .cls-25 {
        stroke: #06a4ff;
      }

      .cls-27 {
        stroke: #53b400;
      }

      .cls-28 {
        stroke: #00bc56;
      }

      .cls-29 {
        stroke: #f8766d;
      }

      .cls-54 {
        clip-path: url(#clippath-1);
      }

      .cls-30 {
        stroke: #c49a00;
      }

      .cls-45, .cls-13 {
        fill: #fb61d7;
      }

      .cls-31 {
        stroke: #e38900;
      }

      .cls-32 {
        stroke: #333;
      }

      .cls-46, .cls-17 {
        fill: #53b400;
      }

      .cls-33 {
        stroke: #00bfc4;
      }

      .cls-34 {
        stroke: #00b6eb;
      }

      .cls-55 {
        letter-spacing: .01em;
      }

      .cls-8, .cls-48 {
        fill: #ff66a8;
      }

      .cls-56 {
        clip-path: url(#clippath);
      }

      .cls-35 {
        stroke: #a58aff;
      }

      .cls-10, .cls-49 {
        fill: #df70f8;
      }

      .cls-36 {
        stroke: #99a800;
      }

      .cls-11, .cls-53 {
        fill: #00bfc4;
      }

      .cls-14 {
        fill: #4d4d4d;
      }

      .cls-50 {
        fill: #fff;
      }

      .cls-51, .cls-16 {
        fill: #00c094;
      }

      .cls-37 {
        stroke: #fff;
      }

      .cls-18 {
        font-size: 13px;
      }
    </style>
    <clipPath id="clippath">
      <rect class="cls-26" x="16.24" width="759.52" height="612"/>
    </clipPath>
    <clipPath id="clippath-1">
      <rect class="cls-26" x="46.76" y="23.13" width="625.81" height="556.45"/>
    </clipPath>
  </defs>
  <g class="cls-56">
    <rect class="cls-50" x="16.24" width="759.52" height="612"/>
    <rect class="cls-37" x="16.24" width="759.52" height="612"/>
  </g>
  <g class="cls-54">
    <rect class="cls-50" x="46.76" y="23.13" width="625.81" height="556.45"/>
    <text class="cls-5" transform="translate(638.3 34.81)"><tspan x="0" y="0">23465</tspan></text>
    <text class="cls-10" transform="translate(91.56 456.12)"><tspan x="0" y="0">23967</tspan></text>
    <text class="cls-8" transform="translate(51.19 454.24)"><tspan x="0" y="0">36183</tspan></text>
    <text class="cls-8" transform="translate(91.72 415.81)"><tspan x="0" y="0">36184</tspan></text>
    <path class="cls-19" d="M470.43,528.02c0-4.38,3.58-7.96,7.96-7.96s7.96,3.58,7.96,7.96-3.58,7.96-7.96,7.96-7.96-3.58-7.96-7.96"/>
    <path class="cls-47" d="M394.76,261.03c0-4.83,3.96-8.78,8.79-8.78s8.78,3.95,8.78,8.78-3.95,8.79-8.78,8.79-8.79-3.96-8.79-8.79"/>
    <path class="cls-19" d="M557.69,538.26c0-5.04,4.12-9.16,9.16-9.16s9.16,4.12,9.16,9.16-4.13,9.16-9.16,9.16-9.16-4.12-9.16-9.16"/>
    <path class="cls-47" d="M496.4,246.27c0-5.55,4.54-10.09,10.09-10.09s10.09,4.54,10.09,10.09-4.54,10.08-10.09,10.08-10.09-4.54-10.09-10.08"/>
    <path class="cls-19" d="M564.55,533.19c0-5.4,4.41-9.81,9.81-9.81s9.81,4.41,9.81,9.81-4.42,9.81-9.81,9.81-9.81-4.42-9.81-9.81"/>
    <path class="cls-47" d="M490.44,199.49c0-5.57,4.56-10.14,10.14-10.14s10.14,4.57,10.14,10.14-4.56,10.15-10.14,10.15-10.14-4.57-10.14-10.15"/>
    <path class="cls-47" d="M633.99,48.43c0-5.58,4.56-10.14,10.14-10.14s10.14,4.56,10.14,10.14-4.56,10.14-10.14,10.14-10.14-4.56-10.14-10.14"/>
    <path class="cls-42" d="M606.71,493.07c0-4.3,3.52-7.81,7.82-7.81s7.81,3.51,7.81,7.81-3.51,7.82-7.81,7.82-7.82-3.52-7.82-7.82"/>
    <path class="cls-39" d="M152.93,343.87c0-4.76,3.89-8.65,8.65-8.65s8.65,3.89,8.65,8.65-3.89,8.66-8.65,8.66-8.65-3.9-8.65-8.66"/>
    <path class="cls-41" d="M204.4,334.54c0-5.76,4.71-10.47,10.46-10.47s10.47,4.71,10.47,10.47-4.71,10.46-10.47,10.46-10.46-4.71-10.46-10.46"/>
    <path class="cls-19" d="M549.15,514.96c0-6.07,4.96-11.03,11.03-11.03s11.02,4.96,11.02,11.03-4.96,11.02-11.02,11.02-11.03-4.96-11.03-11.02"/>
    <path class="cls-49" d="M81.52,429.48c0-4.97,4.07-9.03,9.04-9.03s9.04,4.06,9.04,9.03-4.07,9.04-9.04,9.04-9.04-4.07-9.04-9.04"/>
    <path class="cls-44" d="M314.62,415.51c0-3.36,2.75-6.1,6.1-6.1s6.1,2.74,6.1,6.1-2.74,6.09-6.1,6.09-6.1-2.74-6.1-6.09"/>
    <path class="cls-40" d="M190.68,301.12c0-4.38,3.58-7.96,7.96-7.96s7.96,3.58,7.96,7.96-3.58,7.96-7.96,7.96-7.96-3.58-7.96-7.96"/>
    <path class="cls-46" d="M488.7,288.77c0-3.86,3.16-7.02,7.02-7.02s7.02,3.16,7.02,7.02-3.16,7.03-7.02,7.03-7.02-3.16-7.02-7.03"/>
    <path class="cls-47" d="M549.66,243.45c0-5.87,4.81-10.67,10.68-10.67s10.67,4.8,10.67,10.67-4.8,10.67-10.67,10.67-10.68-4.8-10.68-10.67"/>
    <path class="cls-45" d="M273.92,310.75c0-4.09,3.35-7.44,7.44-7.44s7.43,3.35,7.43,7.44-3.35,7.43-7.43,7.43-7.44-3.35-7.44-7.43"/>
    <path class="cls-40" d="M308.01,306.32c0-2.72,2.23-4.94,4.94-4.94s4.94,2.22,4.94,4.94-2.22,4.93-4.94,4.93-4.94-2.22-4.94-4.93"/>
    <path class="cls-47" d="M463.16,246.01c0-5.3,4.33-9.64,9.63-9.64s9.64,4.34,9.64,9.64-4.34,9.64-9.64,9.64-9.63-4.34-9.63-9.64"/>
    <path class="cls-47" d="M483.67,270.81c0-6.03,4.94-10.97,10.97-10.97s10.98,4.94,10.98,10.97-4.94,10.98-10.98,10.98-10.97-4.94-10.97-10.98"/>
    <path class="cls-53" d="M128.03,377.09c0-3.62,2.96-6.58,6.58-6.58s6.58,2.96,6.58,6.58-2.96,6.58-6.58,6.58-6.58-2.96-6.58-6.58"/>
    <path class="cls-19" d="M550.96,474.07c0-1.32,1.08-2.4,2.4-2.4s2.4,1.08,2.4,2.4-1.08,2.39-2.4,2.39-2.4-1.08-2.4-2.39"/>
    <path class="cls-51" d="M171.93,341.06c0-2.39,1.96-4.35,4.35-4.35s4.34,1.96,4.34,4.35-1.95,4.35-4.34,4.35-4.35-1.96-4.35-4.35"/>
    <path class="cls-42" d="M564.5,554.29c0-4.26,3.49-7.74,7.74-7.74s7.74,3.48,7.74,7.74-3.48,7.74-7.74,7.74-7.74-3.48-7.74-7.74"/>
    <path class="cls-40" d="M125.78,346.11c0-5.61,4.59-10.2,10.2-10.2s10.2,4.59,10.2,10.2-4.59,10.19-10.2,10.19-10.2-4.59-10.2-10.19"/>
    <path class="cls-52" d="M258.18,391.46c0-3.18,2.6-5.78,5.78-5.78s5.79,2.6,5.79,5.78-2.61,5.78-5.79,5.78-5.78-2.6-5.78-5.78"/>
    <path class="cls-51" d="M198.04,322.58c0-4.29,3.51-7.81,7.81-7.81s7.82,3.52,7.82,7.81-3.52,7.82-7.82,7.82-7.81-3.52-7.81-7.82"/>
    <path class="cls-48" d="M73.79,437.16c0-.78.64-1.42,1.42-1.42s1.42.64,1.42,1.42-.64,1.42-1.42,1.42-1.42-.64-1.42-1.42"/>
    <path class="cls-48" d="M95.33,424.18c0-.78.64-1.42,1.42-1.42s1.42.64,1.42,1.42-.64,1.42-1.42,1.42-1.42-.64-1.42-1.42"/>
    <path class="cls-31" d="M470.43,528.02c0-4.38,3.58-7.96,7.96-7.96s7.96,3.58,7.96,7.96-3.58,7.96-7.96,7.96-7.96-3.58-7.96-7.96"/>
    <path class="cls-36" d="M394.76,261.03c0-4.83,3.96-8.78,8.79-8.78s8.78,3.95,8.78,8.78-3.95,8.79-8.78,8.79-8.79-3.96-8.79-8.79"/>
    <path class="cls-31" d="M557.69,538.26c0-5.04,4.12-9.16,9.16-9.16s9.16,4.12,9.16,9.16-4.13,9.16-9.16,9.16-9.16-4.12-9.16-9.16"/>
    <path class="cls-36" d="M496.4,246.27c0-5.55,4.54-10.09,10.09-10.09s10.09,4.54,10.09,10.09-4.54,10.08-10.09,10.08-10.09-4.54-10.09-10.08"/>
    <path class="cls-31" d="M564.55,533.19c0-5.4,4.41-9.81,9.81-9.81s9.81,4.41,9.81,9.81-4.42,9.81-9.81,9.81-9.81-4.42-9.81-9.81"/>
    <path class="cls-36" d="M490.44,199.49c0-5.57,4.56-10.14,10.14-10.14s10.14,4.57,10.14,10.14-4.56,10.15-10.14,10.15-10.14-4.57-10.14-10.15"/>
    <path class="cls-36" d="M633.99,48.43c0-5.58,4.56-10.14,10.14-10.14s10.14,4.56,10.14,10.14-4.56,10.14-10.14,10.14-10.14-4.56-10.14-10.14"/>
    <path class="cls-30" d="M606.71,493.07c0-4.3,3.52-7.81,7.82-7.81s7.81,3.51,7.81,7.81-3.51,7.82-7.81,7.82-7.82-3.52-7.82-7.82"/>
    <path class="cls-28" d="M152.93,343.87c0-4.76,3.89-8.65,8.65-8.65s8.65,3.89,8.65,8.65-3.89,8.66-8.65,8.66-8.65-3.9-8.65-8.66"/>
    <path class="cls-35" d="M204.4,334.54c0-5.76,4.71-10.47,10.46-10.47s10.47,4.71,10.47,10.47-4.71,10.46-10.47,10.46-10.46-4.71-10.46-10.46"/>
    <path class="cls-31" d="M549.15,514.96c0-6.07,4.96-11.03,11.03-11.03s11.02,4.96,11.02,11.03-4.96,11.02-11.02,11.02-11.03-4.96-11.03-11.02"/>
    <path class="cls-24" d="M81.52,429.48c0-4.97,4.07-9.03,9.04-9.03s9.04,4.06,9.04,9.03-4.07,9.04-9.04,9.04-9.04-4.07-9.04-9.04"/>
    <path class="cls-29" d="M314.62,415.51c0-3.36,2.75-6.1,6.1-6.1s6.1,2.74,6.1,6.1-2.74,6.09-6.1,6.09-6.1-2.74-6.1-6.09"/>
    <path class="cls-34" d="M190.68,301.12c0-4.38,3.58-7.96,7.96-7.96s7.96,3.58,7.96,7.96-3.58,7.96-7.96,7.96-7.96-3.58-7.96-7.96"/>
    <path class="cls-27" d="M488.7,288.77c0-3.86,3.16-7.02,7.02-7.02s7.02,3.16,7.02,7.02-3.16,7.03-7.02,7.03-7.02-3.16-7.02-7.03"/>
    <path class="cls-36" d="M549.66,243.45c0-5.87,4.81-10.67,10.68-10.67s10.67,4.8,10.67,10.67-4.8,10.67-10.67,10.67-10.68-4.8-10.68-10.67"/>
    <path class="cls-20" d="M273.92,310.75c0-4.09,3.35-7.44,7.44-7.44s7.43,3.35,7.43,7.44-3.35,7.43-7.43,7.43-7.44-3.35-7.44-7.43"/>
    <path class="cls-34" d="M308.01,306.32c0-2.72,2.23-4.94,4.94-4.94s4.94,2.22,4.94,4.94-2.22,4.93-4.94,4.93-4.94-2.22-4.94-4.93"/>
    <path class="cls-36" d="M463.16,246.01c0-5.3,4.33-9.64,9.63-9.64s9.64,4.34,9.64,9.64-4.34,9.64-9.64,9.64-9.63-4.34-9.63-9.64"/>
    <path class="cls-36" d="M483.67,270.81c0-6.03,4.94-10.97,10.97-10.97s10.98,4.94,10.98,10.97-4.94,10.98-10.98,10.98-10.97-4.94-10.97-10.98"/>
    <path class="cls-33" d="M128.03,377.09c0-3.62,2.96-6.58,6.58-6.58s6.58,2.96,6.58,6.58-2.96,6.58-6.58,6.58-6.58-2.96-6.58-6.58"/>
    <path class="cls-31" d="M550.96,474.07c0-1.32,1.08-2.4,2.4-2.4s2.4,1.08,2.4,2.4-1.08,2.39-2.4,2.39-2.4-1.08-2.4-2.39"/>
    <path class="cls-23" d="M171.93,341.06c0-2.39,1.96-4.35,4.35-4.35s4.34,1.96,4.34,4.35-1.95,4.35-4.34,4.35-4.35-1.96-4.35-4.35"/>
    <path class="cls-30" d="M564.5,554.29c0-4.26,3.49-7.74,7.74-7.74s7.74,3.48,7.74,7.74-3.48,7.74-7.74,7.74-7.74-3.48-7.74-7.74"/>
    <path class="cls-34" d="M125.78,346.11c0-5.61,4.59-10.2,10.2-10.2s10.2,4.59,10.2,10.2-4.59,10.19-10.2,10.19-10.2-4.59-10.2-10.19"/>
    <path class="cls-25" d="M258.18,391.46c0-3.18,2.6-5.78,5.78-5.78s5.79,2.6,5.79,5.78-2.61,5.78-5.79,5.78-5.78-2.6-5.78-5.78"/>
    <path class="cls-23" d="M198.04,322.58c0-4.29,3.51-7.81,7.81-7.81s7.82,3.52,7.82,7.81-3.52,7.82-7.82,7.82-7.81-3.52-7.81-7.82"/>
    <path class="cls-22" d="M73.79,437.16c0-.78.64-1.42,1.42-1.42s1.42.64,1.42,1.42-.64,1.42-1.42,1.42-1.42-.64-1.42-1.42"/>
    <path class="cls-22" d="M95.33,424.18c0-.78.64-1.42,1.42-1.42s1.42.64,1.42,1.42-.64,1.42-1.42,1.42-1.42-.64-1.42-1.42"/>
  </g>
  <line class="cls-21" x1="46.76" y1="579.58" x2="46.76" y2="23.14"/>
  <text class="cls-14" transform="translate(31.57 551.13)"><tspan x="0" y="0">−2</tspan></text>
  <text class="cls-14" transform="translate(36.83 366.04)"><tspan x="0" y="0">0</tspan></text>
  <text class="cls-14" transform="translate(36.83 180.94)"><tspan x="0" y="0">2</tspan></text>
  <line class="cls-32" x1="44.02" y1="547.9" x2="46.76" y2="547.9"/>
  <line class="cls-32" x1="44.02" y1="362.81" x2="46.76" y2="362.81"/>
  <line class="cls-32" x1="44.02" y1="177.71" x2="46.76" y2="177.71"/>
  <line class="cls-21" x1="46.76" y1="579.58" x2="672.57" y2="579.58"/>
  <line class="cls-32" x1="182.74" y1="582.32" x2="182.74" y2="579.58"/>
  <line class="cls-32" x1="367.84" y1="582.32" x2="367.84" y2="579.58"/>
  <line class="cls-32" x1="552.94" y1="582.32" x2="552.94" y2="579.58"/>
  <text class="cls-14" transform="translate(177.61 590.98)"><tspan x="0" y="0">−2</tspan></text>
  <text class="cls-14" transform="translate(365.34 590.98)"><tspan x="0" y="0">0</tspan></text>
  <text class="cls-14" transform="translate(550.44 590.98)"><tspan x="0" y="0">2</tspan></text>
  <text class="cls-12" transform="translate(356.92 604.63)"><tspan x="0" y="0">x</tspan></text>
  <text class="cls-12" transform="translate(29.62 304.11) rotate(-90)"><tspan x="0" y="0">y</tspan></text>
  <rect class="cls-50" x="683.53" y="115.43" width="86.75" height="91.17"/>
  <text class="cls-12" transform="translate(689.01 130.54)"><tspan x="0" y="0">(150 − aod + 1)</tspan></text>
  <rect class="cls-50" x="689.01" y="137.76" width="25.12" height="17.28"/>
  <path class="cls-43" d="M695.37,146.4c0-3.41,2.79-6.2,6.2-6.2s6.2,2.79,6.2,6.2-2.79,6.2-6.2,6.2-6.2-2.79-6.2-6.2"/>
  <path class="cls-38" d="M695.37,146.4c0-3.41,2.79-6.2,6.2-6.2s6.2,2.79,6.2,6.2-2.79,6.2-6.2,6.2-6.2-2.79-6.2-6.2"/>
  <rect class="cls-50" x="689.01" y="155.03" width="25.12" height="20.97"/>
  <path class="cls-43" d="M693.32,165.52c0-4.53,3.72-8.25,8.25-8.25s8.25,3.72,8.25,8.25-3.71,8.25-8.25,8.25-8.25-3.71-8.25-8.25"/>
  <path class="cls-38" d="M693.32,165.52c0-4.53,3.72-8.25,8.25-8.25s8.25,3.72,8.25,8.25-3.71,8.25-8.25,8.25-8.25-3.71-8.25-8.25"/>
  <rect class="cls-50" x="689.01" y="176" width="25.12" height="25.12"/>
  <path class="cls-43" d="M691.76,188.56c0-5.39,4.42-9.81,9.81-9.81s9.81,4.42,9.81,9.81-4.41,9.81-9.81,9.81-9.81-4.41-9.81-9.81"/>
  <path class="cls-38" d="M691.76,188.56c0-5.39,4.42-9.81,9.81-9.81s9.81,4.42,9.81,9.81-4.41,9.81-9.81,9.81-9.81-4.41-9.81-9.81"/>
  <text class="cls-3" transform="translate(719.61 149.63)"><tspan x="0" y="0">25</tspan></text>
  <text class="cls-3" transform="translate(719.61 168.75)"><tspan x="0" y="0">50</tspan></text>
  <text class="cls-3" transform="translate(719.61 191.79)"><tspan x="0" y="0">75</tspan></text>
  <rect class="cls-50" x="683.53" y="217.56" width="84.85" height="269.73"/>
  <text class="cls-12" transform="translate(689.01 232.67)"><tspan x="0" y="0">patho_cat_det</tspan></text>
  <rect class="cls-50" x="689.01" y="239.89" width="17.28" height="17.28"/>
  <text class="cls-9" transform="translate(694.59 252.48)"><tspan x="0" y="0">a</tspan></text>
  <path class="cls-44" d="M695.7,248.53c0-1.08.88-1.96,1.95-1.96s1.96.88,1.96,1.96-.88,1.95-1.96,1.95-1.95-.88-1.95-1.95"/>
  <path class="cls-29" d="M695.7,248.53c0-1.08.88-1.96,1.95-1.96s1.96.88,1.96,1.96-.88,1.95-1.96,1.95-1.95-.88-1.95-1.95"/>
  <rect class="cls-50" x="689.01" y="257.17" width="17.28" height="17.28"/>
  <text class="cls-1" transform="translate(694.59 269.76)"><tspan x="0" y="0">a</tspan></text>
  <path class="cls-19" d="M695.7,265.81c0-1.08.88-1.96,1.95-1.96s1.96.88,1.96,1.96-.88,1.95-1.96,1.95-1.95-.88-1.95-1.95"/>
  <path class="cls-31" d="M695.7,265.81c0-1.08.88-1.96,1.95-1.96s1.96.88,1.96,1.96-.88,1.95-1.96,1.95-1.95-.88-1.95-1.95"/>
  <rect class="cls-50" x="689.01" y="274.45" width="17.28" height="17.28"/>
  <text class="cls-15" transform="translate(694.59 287.04)"><tspan x="0" y="0">a</tspan></text>
  <path class="cls-42" d="M695.7,283.09c0-1.08.88-1.96,1.95-1.96s1.96.88,1.96,1.96-.88,1.95-1.96,1.95-1.95-.88-1.95-1.95"/>
  <path class="cls-30" d="M695.7,283.09c0-1.08.88-1.96,1.95-1.96s1.96.88,1.96,1.96-.88,1.95-1.96,1.95-1.95-.88-1.95-1.95"/>
  <rect class="cls-50" x="689.01" y="291.73" width="17.28" height="17.28"/>
  <text class="cls-5" transform="translate(694.59 304.32)"><tspan x="0" y="0">a</tspan></text>
  <path class="cls-47" d="M695.7,300.37c0-1.08.88-1.96,1.95-1.96s1.96.88,1.96,1.96-.88,1.95-1.96,1.95-1.95-.88-1.95-1.95"/>
  <path class="cls-36" d="M695.7,300.37c0-1.08.88-1.96,1.95-1.96s1.96.88,1.96,1.96-.88,1.95-1.96,1.95-1.95-.88-1.95-1.95"/>
  <rect class="cls-50" x="689.01" y="309.01" width="17.28" height="17.28"/>
  <text class="cls-17" transform="translate(694.59 321.6)"><tspan x="0" y="0">a</tspan></text>
  <path class="cls-46" d="M695.7,317.65c0-1.08.88-1.96,1.95-1.96s1.96.88,1.96,1.96-.88,1.95-1.96,1.95-1.95-.88-1.95-1.95"/>
  <path class="cls-27" d="M695.7,317.65c0-1.08.88-1.96,1.95-1.96s1.96.88,1.96,1.96-.88,1.95-1.96,1.95-1.95-.88-1.95-1.95"/>
  <rect class="cls-50" x="689.01" y="326.29" width="17.28" height="17.28"/>
  <text class="cls-2" transform="translate(694.59 338.88)"><tspan x="0" y="0">a</tspan></text>
  <path class="cls-39" d="M695.7,334.93c0-1.08.88-1.96,1.95-1.96s1.96.88,1.96,1.96-.88,1.95-1.96,1.95-1.95-.88-1.95-1.95"/>
  <path class="cls-28" d="M695.7,334.93c0-1.08.88-1.96,1.95-1.96s1.96.88,1.96,1.96-.88,1.95-1.96,1.95-1.95-.88-1.95-1.95"/>
  <rect class="cls-50" x="689.01" y="343.57" width="17.28" height="17.28"/>
  <text class="cls-16" transform="translate(694.59 356.16)"><tspan x="0" y="0">a</tspan></text>
  <path class="cls-51" d="M695.7,352.21c0-1.08.88-1.96,1.95-1.96s1.96.88,1.96,1.96-.88,1.95-1.96,1.95-1.95-.88-1.95-1.95"/>
  <path class="cls-23" d="M695.7,352.21c0-1.08.88-1.96,1.95-1.96s1.96.88,1.96,1.96-.88,1.95-1.96,1.95-1.95-.88-1.95-1.95"/>
  <rect class="cls-50" x="689.01" y="360.85" width="17.28" height="17.28"/>
  <text class="cls-11" transform="translate(694.59 373.44)"><tspan x="0" y="0">a</tspan></text>
  <path class="cls-53" d="M695.7,369.49c0-1.08.88-1.96,1.95-1.96s1.96.88,1.96,1.96-.88,1.95-1.96,1.95-1.95-.88-1.95-1.95"/>
  <path class="cls-33" d="M695.7,369.49c0-1.08.88-1.96,1.95-1.96s1.96.88,1.96,1.96-.88,1.95-1.96,1.95-1.95-.88-1.95-1.95"/>
  <rect class="cls-50" x="689.01" y="378.13" width="17.28" height="17.28"/>
  <text class="cls-7" transform="translate(694.59 390.72)"><tspan x="0" y="0">a</tspan></text>
  <path class="cls-40" d="M695.7,386.77c0-1.08.88-1.96,1.95-1.96s1.96.88,1.96,1.96-.88,1.95-1.96,1.95-1.95-.88-1.95-1.95"/>
  <path class="cls-34" d="M695.7,386.77c0-1.08.88-1.96,1.95-1.96s1.96.88,1.96,1.96-.88,1.95-1.96,1.95-1.95-.88-1.95-1.95"/>
  <rect class="cls-50" x="689.01" y="395.41" width="17.28" height="17.28"/>
  <text class="cls-4" transform="translate(694.59 408)"><tspan x="0" y="0">a</tspan></text>
  <path class="cls-52" d="M695.7,404.05c0-1.08.88-1.96,1.95-1.96s1.96.88,1.96,1.96-.88,1.95-1.96,1.95-1.95-.88-1.95-1.95"/>
  <path class="cls-25" d="M695.7,404.05c0-1.08.88-1.96,1.95-1.96s1.96.88,1.96,1.96-.88,1.95-1.96,1.95-1.95-.88-1.95-1.95"/>
  <rect class="cls-50" x="689.01" y="412.69" width="17.28" height="17.28"/>
  <text class="cls-6" transform="translate(694.59 425.28)"><tspan x="0" y="0">a</tspan></text>
  <path class="cls-41" d="M695.7,421.33c0-1.08.88-1.96,1.95-1.96s1.96.88,1.96,1.96-.88,1.95-1.96,1.95-1.95-.88-1.95-1.95"/>
  <path class="cls-35" d="M695.7,421.33c0-1.08.88-1.96,1.95-1.96s1.96.88,1.96,1.96-.88,1.95-1.96,1.95-1.95-.88-1.95-1.95"/>
  <rect class="cls-50" x="689.01" y="429.97" width="17.28" height="17.28"/>
  <text class="cls-10" transform="translate(694.59 442.56)"><tspan x="0" y="0">a</tspan></text>
  <path class="cls-49" d="M695.7,438.61c0-1.08.88-1.96,1.95-1.96s1.96.88,1.96,1.96-.88,1.95-1.96,1.95-1.95-.88-1.95-1.95"/>
  <path class="cls-24" d="M695.7,438.61c0-1.08.88-1.96,1.95-1.96s1.96.88,1.96,1.96-.88,1.95-1.96,1.95-1.95-.88-1.95-1.95"/>
  <rect class="cls-50" x="689.01" y="447.25" width="17.28" height="17.28"/>
  <text class="cls-13" transform="translate(694.59 459.84)"><tspan x="0" y="0">a</tspan></text>
  <path class="cls-45" d="M695.7,455.89c0-1.08.88-1.96,1.95-1.96s1.96.88,1.96,1.96-.88,1.95-1.96,1.95-1.95-.88-1.95-1.95"/>
  <path class="cls-20" d="M695.7,455.89c0-1.08.88-1.96,1.95-1.96s1.96.88,1.96,1.96-.88,1.95-1.96,1.95-1.95-.88-1.95-1.95"/>
  <rect class="cls-50" x="689.01" y="464.53" width="17.28" height="17.28"/>
  <text class="cls-8" transform="translate(694.59 477.12)"><tspan x="0" y="0">a</tspan></text>
  <path class="cls-48" d="M695.7,473.17c0-1.08.88-1.96,1.95-1.96s1.96.88,1.96,1.96-.88,1.95-1.96,1.95-1.95-.88-1.95-1.95"/>
  <path class="cls-22" d="M695.7,473.17c0-1.08.88-1.96,1.95-1.96s1.96.88,1.96,1.96-.88,1.95-1.96,1.95-1.95-.88-1.95-1.95"/>
  <text class="cls-3" transform="translate(711.77 251.76)"><tspan x="0" y="0">1.2.AF</tspan></text>
  <text class="cls-3" transform="translate(711.77 269.04)"><tspan x="0" y="0">1.2.NOS</tspan></text>
  <text class="cls-3" transform="translate(711.77 286.32)"><tspan x="0" y="0">1.4.NOS</tspan></text>
  <text class="cls-3" transform="translate(711.77 303.6)"><tspan x="0" y="0">2.4.NOS</tspan></text>
  <text class="cls-3" transform="translate(711.77 320.88)"><tspan x="0" y="0">2.4.OF</tspan></text>
  <text class="cls-3" transform="translate(711.77 338.16)"><tspan x="0" y="0">3.2</tspan></text>
  <text class="cls-3" transform="translate(711.77 355.44)"><tspan x="0" y="0">3.3</tspan></text>
  <text class="cls-3" transform="translate(711.77 372.72)"><tspan x="0" y="0">3.4</tspan></text>
  <text class="cls-3" transform="translate(711.77 390)"><tspan x="0" y="0">3.4.G</tspan></text>
  <text class="cls-3" transform="translate(711.77 407.28)"><tspan x="0" y="0">3.4.GSC</tspan></text>
  <text class="cls-3" transform="translate(711.77 424.56)"><tspan x="0" y="0">3.4.LMG</tspan></text>
  <text class="cls-3" transform="translate(711.77 441.84)"><tspan x="0" y="0">4.2.D</tspan></text>
  <text class="cls-3" transform="translate(711.77 459.12)"><tspan x="0" y="0">4.N.NOS</tspan></text>
  <text class="cls-3" transform="translate(711.77 476.4)"><tspan x="0" y="0">NED</tspan></text>
  <text class="cls-18" transform="translate(46.76 14.81)"><tspan x="0" y="0">pathologist subcatego</tspan><tspan class="cls-55" x="126.48" y="0">r</tspan><tspan x="130.99" y="0">ization</tspan></text>
</svg>