<?xml version="1.0" encoding="UTF-8"?>
<svg id="Layer_1" data-name="Layer 1" xmlns="http://www.w3.org/2000/svg" version="1.1" xmlns:xlink="http://www.w3.org/1999/xlink" viewBox="0 0 504 504">
  <defs>
    <style>
      .cls-1, .cls-2, .cls-3, .cls-4, .cls-5, .cls-6, .cls-7, .cls-8, .cls-9, .cls-10, .cls-11, .cls-12, .cls-13, .cls-14, .cls-15, .cls-16, .cls-17, .cls-18 {
        font-family: ArialMT, Arial;
      }

      .cls-1, .cls-2, .cls-4, .cls-5, .cls-6, .cls-7, .cls-8, .cls-9, .cls-10, .cls-11, .cls-12, .cls-13, .cls-15, .cls-16, .cls-17 {
        font-size: 11px;
      }

      .cls-1, .cls-19 {
        fill: #e38900;
      }

      .cls-20 {
        stroke: #fb61d7;
      }

      .cls-20, .cls-21, .cls-22, .cls-23, .cls-24, .cls-25, .cls-26, .cls-27, .cls-28, .cls-29, .cls-30, .cls-31, .cls-32, .cls-33, .cls-34, .cls-35, .cls-36, .cls-37, .cls-38 {
        fill: none;
      }

      .cls-20, .cls-21, .cls-22, .cls-23, .cls-24, .cls-25, .cls-27, .cls-28, .cls-29, .cls-30, .cls-31, .cls-32, .cls-33, .cls-34, .cls-35, .cls-36, .cls-37, .cls-38 {
        stroke-linejoin: round;
      }

      .cls-20, .cls-22, .cls-23, .cls-24, .cls-25, .cls-27, .cls-28, .cls-29, .cls-30, .cls-31, .cls-33, .cls-34, .cls-35, .cls-36, .cls-37, .cls-38 {
        stroke-linecap: round;
      }

      .cls-20, .cls-22, .cls-23, .cls-24, .cls-25, .cls-27, .cls-28, .cls-29, .cls-30, .cls-31, .cls-33, .cls-34, .cls-36, .cls-37 {
        stroke-width: .71px;
      }

      .cls-21 {
        stroke: #000;
      }

      .cls-21, .cls-32, .cls-35, .cls-38 {
        stroke-width: 1.07px;
      }

      .cls-2, .cls-39 {
        fill: #00bc56;
      }

      .cls-19, .cls-40, .cls-41, .cls-42, .cls-43, .cls-26, .cls-44, .cls-45, .cls-46, .cls-39, .cls-47, .cls-48, .cls-49, .cls-50, .cls-51, .cls-52 {
        stroke-width: 0px;
      }

      .cls-19, .cls-40, .cls-41, .cls-42, .cls-43, .cls-44, .cls-45, .cls-46, .cls-39, .cls-47, .cls-48, .cls-50, .cls-51, .cls-52 {
        opacity: .5;
      }

      .cls-40, .cls-7 {
        fill: #00b6eb;
      }

      .cls-41, .cls-6 {
        fill: #a58aff;
      }

      .cls-42, .cls-15 {
        fill: #c49a00;
      }

      .cls-3, .cls-12, .cls-18 {
        fill: #000;
      }

      .cls-3, .cls-14 {
        font-size: 9px;
      }

      .cls-4, .cls-51 {
        fill: #06a4ff;
      }

      .cls-43, .cls-9 {
        fill: #f8766d;
      }

      .cls-22 {
        stroke: #ff66a8;
      }

      .cls-23 {
        stroke: #00c094;
      }

      .cls-24 {
        stroke: #df70f8;
      }

      .cls-5, .cls-46 {
        fill: #99a800;
      }

      .cls-25 {
        stroke: #06a4ff;
      }

      .cls-27 {
        stroke: #53b400;
      }

      .cls-28 {
        stroke: #00bc56;
      }

      .cls-29 {
        stroke: #f8766d;
      }

      .cls-53 {
        clip-path: url(#clippath-1);
      }

      .cls-30 {
        stroke: #c49a00;
      }

      .cls-44, .cls-13 {
        fill: #fb61d7;
      }

      .cls-31 {
        stroke: #e38900;
      }

      .cls-32 {
        stroke: #333;
      }

      .cls-45, .cls-17 {
        fill: #53b400;
      }

      .cls-33 {
        stroke: #00bfc4;
      }

      .cls-34 {
        stroke: #00b6eb;
      }

      .cls-54 {
        letter-spacing: .01em;
      }

      .cls-8, .cls-47 {
        fill: #ff66a8;
      }

      .cls-35 {
        stroke: #ccc;
      }

      .cls-55 {
        clip-path: url(#clippath);
      }

      .cls-36 {
        stroke: #a58aff;
      }

      .cls-10, .cls-48 {
        fill: #df70f8;
      }

      .cls-37 {
        stroke: #99a800;
      }

      .cls-11, .cls-52 {
        fill: #00bfc4;
      }

      .cls-14 {
        fill: #4d4d4d;
      }

      .cls-49 {
        fill: #fff;
      }

      .cls-50, .cls-16 {
        fill: #00c094;
      }

      .cls-38 {
        stroke: #fff;
      }

      .cls-18 {
        font-size: 13px;
      }
    </style>
    <clipPath id="clippath">
      <rect class="cls-26" y="58.75" width="504" height="386.49"/>
    </clipPath>
    <clipPath id="clippath-1">
      <rect class="cls-26" x="30.52" y="81.9" width="372.19" height="330.93"/>
    </clipPath>
  </defs>
  <g class="cls-55">
    <rect class="cls-49" y="58.75" width="504" height="386.49"/>
    <rect class="cls-38" y="58.75" width="504" height="386.49"/>
  </g>
  <g class="cls-53">
    <rect class="cls-49" x="30.52" y="81.9" width="372.19" height="330.93"/>
    <line class="cls-35" x1="71.48" y1="361.17" x2="59.37" y2="330.61"/>
    <text class="cls-5" transform="translate(349.17 102.39)"><tspan x="0" y="0">23465</tspan></text>
    <text class="cls-10" transform="translate(57.21 370.86)"><tspan x="0" y="0">23967</tspan></text>
    <text class="cls-8" transform="translate(38.45 345.27)"><tspan x="0" y="0">36183</tspan></text>
    <text class="cls-8" transform="translate(55.06 312.51)"><tspan x="0" y="0">36184</tspan></text>
    <path class="cls-19" d="M282.6,382.16c0-2.54,2.08-4.62,4.62-4.62s4.62,2.08,4.62,4.62-2.08,4.62-4.62,4.62-4.62-2.08-4.62-4.62"/>
    <path class="cls-46" d="M238.09,223.38c0-2.55,2.08-4.63,4.62-4.63s4.62,2.08,4.62,4.63-2.08,4.62-4.62,4.62-4.62-2.08-4.62-4.62"/>
    <path class="cls-19" d="M335.21,388.25c0-2.54,2.08-4.62,4.62-4.62s4.62,2.08,4.62,4.62-2.08,4.62-4.62,4.62-4.62-2.08-4.62-4.62"/>
    <path class="cls-46" d="M299.31,214.59c0-2.54,2.08-4.62,4.62-4.62s4.63,2.08,4.63,4.62-2.08,4.63-4.63,4.63-4.62-2.08-4.62-4.63"/>
    <path class="cls-19" d="M339.67,385.23c0-2.54,2.08-4.62,4.63-4.62s4.62,2.08,4.62,4.62-2.08,4.63-4.62,4.63-4.63-2.08-4.63-4.63"/>
    <path class="cls-46" d="M295.8,186.78c0-2.55,2.08-4.63,4.62-4.63s4.62,2.08,4.62,4.63-2.08,4.62-4.62,4.62-4.62-2.08-4.62-4.62"/>
    <path class="cls-46" d="M381.17,96.93c0-2.54,2.08-4.62,4.62-4.62s4.62,2.08,4.62,4.62-2.08,4.63-4.62,4.63-4.62-2.08-4.62-4.63"/>
    <path class="cls-42" d="M363.57,361.38c0-2.55,2.08-4.63,4.62-4.63s4.62,2.08,4.62,4.63-2.08,4.62-4.62,4.62-4.62-2.08-4.62-4.62"/>
    <path class="cls-39" d="M94.18,272.64c0-2.54,2.08-4.62,4.63-4.62s4.62,2.08,4.62,4.62-2.08,4.63-4.62,4.63-4.63-2.08-4.63-4.63"/>
    <path class="cls-41" d="M125.87,267.09c0-2.54,2.08-4.62,4.63-4.62s4.62,2.08,4.62,4.62-2.08,4.62-4.62,4.62-4.63-2.08-4.63-4.62"/>
    <path class="cls-19" d="M331.24,374.39c0-2.54,2.08-4.62,4.62-4.62s4.62,2.08,4.62,4.62-2.08,4.62-4.62,4.62-4.62-2.08-4.62-4.62"/>
    <path class="cls-48" d="M51.95,323.56c0-2.54,2.08-4.62,4.62-4.62s4.62,2.08,4.62,4.62-2.08,4.62-4.62,4.62-4.62-2.08-4.62-4.62"/>
    <path class="cls-43" d="M188.83,315.24c0-2.54,2.08-4.62,4.62-4.62s4.63,2.08,4.63,4.62-2.08,4.63-4.63,4.63-4.62-2.08-4.62-4.63"/>
    <path class="cls-40" d="M116.22,247.22c0-2.55,2.08-4.63,4.63-4.63s4.62,2.08,4.62,4.63-2.08,4.62-4.62,4.62-4.63-2.08-4.63-4.62"/>
    <path class="cls-45" d="M292.91,239.87c0-2.54,2.08-4.62,4.62-4.62s4.62,2.08,4.62,4.62-2.08,4.63-4.62,4.63-4.62-2.08-4.62-4.63"/>
    <path class="cls-46" d="M331.34,212.92c0-2.54,2.08-4.62,4.62-4.62s4.62,2.08,4.62,4.62-2.08,4.62-4.62,4.62-4.62-2.08-4.62-4.62"/>
    <path class="cls-44" d="M165.42,252.94c0-2.54,2.08-4.62,4.62-4.62s4.62,2.08,4.62,4.62-2.08,4.62-4.62,4.62-4.62-2.08-4.62-4.62"/>
    <path class="cls-40" d="M184.21,250.31c0-2.54,2.08-4.62,4.62-4.62s4.62,2.08,4.62,4.62-2.08,4.62-4.62,4.62-4.62-2.08-4.62-4.62"/>
    <path class="cls-46" d="M279.27,214.44c0-2.54,2.08-4.62,4.62-4.62s4.63,2.08,4.63,4.62-2.08,4.62-4.63,4.62-4.62-2.08-4.62-4.62"/>
    <path class="cls-46" d="M292.27,229.19c0-2.54,2.08-4.62,4.62-4.62s4.62,2.08,4.62,4.62-2.08,4.62-4.62,4.62-4.62-2.08-4.62-4.62"/>
    <path class="cls-52" d="M78.15,292.4c0-2.55,2.08-4.63,4.62-4.63s4.62,2.08,4.62,4.63-2.08,4.62-4.62,4.62-4.62-2.08-4.62-4.62"/>
    <path class="cls-19" d="M327.19,350.07c0-2.54,2.08-4.62,4.62-4.62s4.62,2.08,4.62,4.62-2.08,4.62-4.62,4.62-4.62-2.08-4.62-4.62"/>
    <path class="cls-50" d="M102.93,270.97c0-2.54,2.08-4.62,4.62-4.62s4.62,2.08,4.62,4.62-2.08,4.62-4.62,4.62-4.62-2.08-4.62-4.62"/>
    <path class="cls-42" d="M338.42,397.78c0-2.54,2.08-4.62,4.62-4.62s4.62,2.08,4.62,4.62-2.08,4.63-4.62,4.63-4.62-2.08-4.62-4.63"/>
    <path class="cls-40" d="M78.96,273.97c0-2.54,2.08-4.62,4.62-4.62s4.62,2.08,4.62,4.62-2.08,4.62-4.62,4.62-4.62-2.08-4.62-4.62"/>
    <path class="cls-51" d="M155.08,300.95c0-2.55,2.08-4.63,4.62-4.63s4.62,2.08,4.62,4.63-2.08,4.62-4.62,4.62-4.62-2.08-4.62-4.62"/>
    <path class="cls-50" d="M120.51,259.98c0-2.54,2.08-4.62,4.63-4.62s4.62,2.08,4.62,4.62-2.08,4.62-4.62,4.62-4.63-2.08-4.63-4.62"/>
    <path class="cls-47" d="M42.82,328.12c0-2.54,2.08-4.62,4.62-4.62s4.62,2.08,4.62,4.62-2.08,4.63-4.62,4.63-4.62-2.08-4.62-4.63"/>
    <path class="cls-47" d="M55.63,320.41c0-2.55,2.08-4.63,4.62-4.63s4.62,2.08,4.62,4.63-2.08,4.62-4.62,4.62-4.62-2.08-4.62-4.62"/>
    <path class="cls-31" d="M282.6,382.16c0-2.54,2.08-4.62,4.62-4.62s4.62,2.08,4.62,4.62-2.08,4.62-4.62,4.62-4.62-2.08-4.62-4.62"/>
    <path class="cls-37" d="M238.09,223.38c0-2.55,2.08-4.63,4.62-4.63s4.62,2.08,4.62,4.63-2.08,4.62-4.62,4.62-4.62-2.08-4.62-4.62"/>
    <path class="cls-31" d="M335.21,388.25c0-2.54,2.08-4.62,4.62-4.62s4.62,2.08,4.62,4.62-2.08,4.62-4.62,4.62-4.62-2.08-4.62-4.62"/>
    <path class="cls-37" d="M299.31,214.59c0-2.54,2.08-4.62,4.62-4.62s4.63,2.08,4.63,4.62-2.08,4.63-4.63,4.63-4.62-2.08-4.62-4.63"/>
    <path class="cls-31" d="M339.67,385.23c0-2.54,2.08-4.62,4.63-4.62s4.62,2.08,4.62,4.62-2.08,4.63-4.62,4.63-4.63-2.08-4.63-4.63"/>
    <path class="cls-37" d="M295.8,186.78c0-2.55,2.08-4.63,4.62-4.63s4.62,2.08,4.62,4.63-2.08,4.62-4.62,4.62-4.62-2.08-4.62-4.62"/>
    <path class="cls-37" d="M381.17,96.93c0-2.54,2.08-4.62,4.62-4.62s4.62,2.08,4.62,4.62-2.08,4.63-4.62,4.63-4.62-2.08-4.62-4.63"/>
    <path class="cls-30" d="M363.57,361.38c0-2.55,2.08-4.63,4.62-4.63s4.62,2.08,4.62,4.63-2.08,4.62-4.62,4.62-4.62-2.08-4.62-4.62"/>
    <path class="cls-28" d="M94.18,272.64c0-2.54,2.08-4.62,4.63-4.62s4.62,2.08,4.62,4.62-2.08,4.63-4.62,4.63-4.63-2.08-4.63-4.63"/>
    <path class="cls-36" d="M125.87,267.09c0-2.54,2.08-4.62,4.63-4.62s4.62,2.08,4.62,4.62-2.08,4.62-4.62,4.62-4.63-2.08-4.63-4.62"/>
    <path class="cls-31" d="M331.24,374.39c0-2.54,2.08-4.62,4.62-4.62s4.62,2.08,4.62,4.62-2.08,4.62-4.62,4.62-4.62-2.08-4.62-4.62"/>
    <path class="cls-24" d="M51.95,323.56c0-2.54,2.08-4.62,4.62-4.62s4.62,2.08,4.62,4.62-2.08,4.62-4.62,4.62-4.62-2.08-4.62-4.62"/>
    <path class="cls-29" d="M188.83,315.24c0-2.54,2.08-4.62,4.62-4.62s4.63,2.08,4.63,4.62-2.08,4.63-4.63,4.63-4.62-2.08-4.62-4.63"/>
    <path class="cls-34" d="M116.22,247.22c0-2.55,2.08-4.63,4.63-4.63s4.62,2.08,4.62,4.63-2.08,4.62-4.62,4.62-4.63-2.08-4.63-4.62"/>
    <path class="cls-27" d="M292.91,239.87c0-2.54,2.08-4.62,4.62-4.62s4.62,2.08,4.62,4.62-2.08,4.63-4.62,4.63-4.62-2.08-4.62-4.63"/>
    <path class="cls-37" d="M331.34,212.92c0-2.54,2.08-4.62,4.62-4.62s4.62,2.08,4.62,4.62-2.08,4.62-4.62,4.62-4.62-2.08-4.62-4.62"/>
    <path class="cls-20" d="M165.42,252.94c0-2.54,2.08-4.62,4.62-4.62s4.62,2.08,4.62,4.62-2.08,4.62-4.62,4.62-4.62-2.08-4.62-4.62"/>
    <path class="cls-34" d="M184.21,250.31c0-2.54,2.08-4.62,4.62-4.62s4.62,2.08,4.62,4.62-2.08,4.62-4.62,4.62-4.62-2.08-4.62-4.62"/>
    <path class="cls-37" d="M279.27,214.44c0-2.54,2.08-4.62,4.62-4.62s4.63,2.08,4.63,4.62-2.08,4.62-4.63,4.62-4.62-2.08-4.62-4.62"/>
    <path class="cls-37" d="M292.27,229.19c0-2.54,2.08-4.62,4.62-4.62s4.62,2.08,4.62,4.62-2.08,4.62-4.62,4.62-4.62-2.08-4.62-4.62"/>
    <path class="cls-33" d="M78.15,292.4c0-2.55,2.08-4.63,4.62-4.63s4.62,2.08,4.62,4.63-2.08,4.62-4.62,4.62-4.62-2.08-4.62-4.62"/>
    <path class="cls-31" d="M327.19,350.07c0-2.54,2.08-4.62,4.62-4.62s4.62,2.08,4.62,4.62-2.08,4.62-4.62,4.62-4.62-2.08-4.62-4.62"/>
    <path class="cls-23" d="M102.93,270.97c0-2.54,2.08-4.62,4.62-4.62s4.62,2.08,4.62,4.62-2.08,4.62-4.62,4.62-4.62-2.08-4.62-4.62"/>
    <path class="cls-30" d="M338.42,397.78c0-2.54,2.08-4.62,4.62-4.62s4.62,2.08,4.62,4.62-2.08,4.63-4.62,4.63-4.62-2.08-4.62-4.63"/>
    <path class="cls-34" d="M78.96,273.97c0-2.54,2.08-4.62,4.62-4.62s4.62,2.08,4.62,4.62-2.08,4.62-4.62,4.62-4.62-2.08-4.62-4.62"/>
    <path class="cls-25" d="M155.08,300.95c0-2.55,2.08-4.63,4.62-4.63s4.62,2.08,4.62,4.63-2.08,4.62-4.62,4.62-4.62-2.08-4.62-4.62"/>
    <path class="cls-23" d="M120.51,259.98c0-2.54,2.08-4.62,4.63-4.62s4.62,2.08,4.62,4.62-2.08,4.62-4.62,4.62-4.63-2.08-4.63-4.62"/>
    <path class="cls-22" d="M42.82,328.12c0-2.54,2.08-4.62,4.62-4.62s4.62,2.08,4.62,4.62-2.08,4.63-4.62,4.63-4.62-2.08-4.62-4.63"/>
    <path class="cls-22" d="M55.63,320.41c0-2.55,2.08-4.63,4.62-4.63s4.62,2.08,4.62,4.63-2.08,4.62-4.62,4.62-4.62-2.08-4.62-4.62"/>
  </g>
  <line class="cls-21" x1="30.52" y1="412.83" x2="30.52" y2="81.89"/>
  <text class="cls-14" transform="translate(15.33 397.22)"><tspan x="0" y="0">−2</tspan></text>
  <text class="cls-14" transform="translate(20.59 287.13)"><tspan x="0" y="0">0</tspan></text>
  <text class="cls-14" transform="translate(20.59 177.05)"><tspan x="0" y="0">2</tspan></text>
  <line class="cls-32" x1="27.78" y1="393.98" x2="30.52" y2="393.98"/>
  <line class="cls-32" x1="27.78" y1="283.9" x2="30.52" y2="283.9"/>
  <line class="cls-32" x1="27.78" y1="173.82" x2="30.52" y2="173.82"/>
  <line class="cls-21" x1="30.52" y1="412.83" x2="402.71" y2="412.83"/>
  <line class="cls-32" x1="111.39" y1="415.57" x2="111.39" y2="412.83"/>
  <line class="cls-32" x1="221.48" y1="415.57" x2="221.48" y2="412.83"/>
  <line class="cls-32" x1="331.56" y1="415.57" x2="331.56" y2="412.83"/>
  <text class="cls-14" transform="translate(106.26 424.22)"><tspan x="0" y="0">−2</tspan></text>
  <text class="cls-14" transform="translate(218.98 424.22)"><tspan x="0" y="0">0</tspan></text>
  <text class="cls-14" transform="translate(329.06 424.22)"><tspan x="0" y="0">2</tspan></text>
  <text class="cls-12" transform="translate(213.87 437.87)"><tspan x="0" y="0">x</tspan></text>
  <text class="cls-12" transform="translate(13.38 250.11) rotate(-90)"><tspan x="0" y="0">y</tspan></text>
  <rect class="cls-49" x="413.67" y="112.49" width="84.85" height="269.73"/>
  <text class="cls-12" transform="translate(419.15 127.61)"><tspan x="0" y="0">patho_cat_det</tspan></text>
  <rect class="cls-49" x="419.15" y="134.82" width="17.28" height="17.28"/>
  <text class="cls-9" transform="translate(424.73 147.41)"><tspan x="0" y="0">a</tspan></text>
  <path class="cls-43" d="M423.16,143.46c0-2.54,2.08-4.62,4.63-4.62s4.62,2.08,4.62,4.62-2.08,4.63-4.62,4.63-4.63-2.08-4.63-4.63"/>
  <path class="cls-29" d="M423.16,143.46c0-2.54,2.08-4.62,4.63-4.62s4.62,2.08,4.62,4.62-2.08,4.63-4.62,4.63-4.63-2.08-4.63-4.63"/>
  <rect class="cls-49" x="419.15" y="152.1" width="17.28" height="17.28"/>
  <text class="cls-1" transform="translate(424.73 164.69)"><tspan x="0" y="0">a</tspan></text>
  <path class="cls-19" d="M423.16,160.74c0-2.54,2.08-4.62,4.63-4.62s4.62,2.08,4.62,4.62-2.08,4.63-4.62,4.63-4.63-2.08-4.63-4.63"/>
  <path class="cls-31" d="M423.16,160.74c0-2.54,2.08-4.62,4.63-4.62s4.62,2.08,4.62,4.62-2.08,4.63-4.62,4.63-4.63-2.08-4.63-4.63"/>
  <rect class="cls-49" x="419.15" y="169.38" width="17.28" height="17.28"/>
  <text class="cls-15" transform="translate(424.73 181.97)"><tspan x="0" y="0">a</tspan></text>
  <path class="cls-42" d="M423.16,178.02c0-2.54,2.08-4.62,4.63-4.62s4.62,2.08,4.62,4.62-2.08,4.63-4.62,4.63-4.63-2.08-4.63-4.63"/>
  <path class="cls-30" d="M423.16,178.02c0-2.54,2.08-4.62,4.63-4.62s4.62,2.08,4.62,4.62-2.08,4.63-4.62,4.63-4.63-2.08-4.63-4.63"/>
  <rect class="cls-49" x="419.15" y="186.66" width="17.28" height="17.28"/>
  <text class="cls-5" transform="translate(424.73 199.25)"><tspan x="0" y="0">a</tspan></text>
  <path class="cls-46" d="M423.16,195.3c0-2.54,2.08-4.62,4.63-4.62s4.62,2.08,4.62,4.62-2.08,4.63-4.62,4.63-4.63-2.08-4.63-4.63"/>
  <path class="cls-37" d="M423.16,195.3c0-2.54,2.08-4.62,4.63-4.62s4.62,2.08,4.62,4.62-2.08,4.63-4.62,4.63-4.63-2.08-4.63-4.63"/>
  <rect class="cls-49" x="419.15" y="203.94" width="17.28" height="17.28"/>
  <text class="cls-17" transform="translate(424.73 216.53)"><tspan x="0" y="0">a</tspan></text>
  <path class="cls-45" d="M423.16,212.58c0-2.54,2.08-4.62,4.63-4.62s4.62,2.08,4.62,4.62-2.08,4.63-4.62,4.63-4.63-2.08-4.63-4.63"/>
  <path class="cls-27" d="M423.16,212.58c0-2.54,2.08-4.62,4.63-4.62s4.62,2.08,4.62,4.62-2.08,4.63-4.62,4.63-4.63-2.08-4.63-4.63"/>
  <rect class="cls-49" x="419.15" y="221.22" width="17.28" height="17.28"/>
  <text class="cls-2" transform="translate(424.73 233.81)"><tspan x="0" y="0">a</tspan></text>
  <path class="cls-39" d="M423.16,229.86c0-2.54,2.08-4.62,4.63-4.62s4.62,2.08,4.62,4.62-2.08,4.63-4.62,4.63-4.63-2.08-4.63-4.63"/>
  <path class="cls-28" d="M423.16,229.86c0-2.54,2.08-4.62,4.63-4.62s4.62,2.08,4.62,4.62-2.08,4.63-4.62,4.63-4.63-2.08-4.63-4.63"/>
  <rect class="cls-49" x="419.15" y="238.5" width="17.28" height="17.28"/>
  <text class="cls-16" transform="translate(424.73 251.09)"><tspan x="0" y="0">a</tspan></text>
  <path class="cls-50" d="M423.16,247.14c0-2.54,2.08-4.62,4.63-4.62s4.62,2.08,4.62,4.62-2.08,4.63-4.62,4.63-4.63-2.08-4.63-4.63"/>
  <path class="cls-23" d="M423.16,247.14c0-2.54,2.08-4.62,4.63-4.62s4.62,2.08,4.62,4.62-2.08,4.63-4.62,4.63-4.63-2.08-4.63-4.63"/>
  <rect class="cls-49" x="419.15" y="255.78" width="17.28" height="17.28"/>
  <text class="cls-11" transform="translate(424.73 268.37)"><tspan x="0" y="0">a</tspan></text>
  <path class="cls-52" d="M423.16,264.42c0-2.54,2.08-4.62,4.63-4.62s4.62,2.08,4.62,4.62-2.08,4.63-4.62,4.63-4.63-2.08-4.63-4.63"/>
  <path class="cls-33" d="M423.16,264.42c0-2.54,2.08-4.62,4.63-4.62s4.62,2.08,4.62,4.62-2.08,4.63-4.62,4.63-4.63-2.08-4.63-4.63"/>
  <rect class="cls-49" x="419.15" y="273.06" width="17.28" height="17.28"/>
  <text class="cls-7" transform="translate(424.73 285.65)"><tspan x="0" y="0">a</tspan></text>
  <path class="cls-40" d="M423.16,281.7c0-2.54,2.08-4.62,4.63-4.62s4.62,2.08,4.62,4.62-2.08,4.63-4.62,4.63-4.63-2.08-4.63-4.63"/>
  <path class="cls-34" d="M423.16,281.7c0-2.54,2.08-4.62,4.63-4.62s4.62,2.08,4.62,4.62-2.08,4.63-4.62,4.63-4.63-2.08-4.63-4.63"/>
  <rect class="cls-49" x="419.15" y="290.34" width="17.28" height="17.28"/>
  <text class="cls-4" transform="translate(424.73 302.93)"><tspan x="0" y="0">a</tspan></text>
  <path class="cls-51" d="M423.16,298.98c0-2.54,2.08-4.62,4.63-4.62s4.62,2.08,4.62,4.62-2.08,4.63-4.62,4.63-4.63-2.08-4.63-4.63"/>
  <path class="cls-25" d="M423.16,298.98c0-2.54,2.08-4.62,4.63-4.62s4.62,2.08,4.62,4.62-2.08,4.63-4.62,4.63-4.63-2.08-4.63-4.63"/>
  <rect class="cls-49" x="419.15" y="307.62" width="17.28" height="17.28"/>
  <text class="cls-6" transform="translate(424.73 320.21)"><tspan x="0" y="0">a</tspan></text>
  <path class="cls-41" d="M423.16,316.26c0-2.54,2.08-4.62,4.63-4.62s4.62,2.08,4.62,4.62-2.08,4.63-4.62,4.63-4.63-2.08-4.63-4.63"/>
  <path class="cls-36" d="M423.16,316.26c0-2.54,2.08-4.62,4.63-4.62s4.62,2.08,4.62,4.62-2.08,4.63-4.62,4.63-4.63-2.08-4.63-4.63"/>
  <rect class="cls-49" x="419.15" y="324.9" width="17.28" height="17.28"/>
  <text class="cls-10" transform="translate(424.73 337.49)"><tspan x="0" y="0">a</tspan></text>
  <path class="cls-48" d="M423.16,333.54c0-2.54,2.08-4.62,4.63-4.62s4.62,2.08,4.62,4.62-2.08,4.63-4.62,4.63-4.63-2.08-4.63-4.63"/>
  <path class="cls-24" d="M423.16,333.54c0-2.54,2.08-4.62,4.63-4.62s4.62,2.08,4.62,4.62-2.08,4.63-4.62,4.63-4.63-2.08-4.63-4.63"/>
  <rect class="cls-49" x="419.15" y="342.18" width="17.28" height="17.28"/>
  <text class="cls-13" transform="translate(424.73 354.77)"><tspan x="0" y="0">a</tspan></text>
  <path class="cls-44" d="M423.16,350.82c0-2.54,2.08-4.62,4.63-4.62s4.62,2.08,4.62,4.62-2.08,4.63-4.62,4.63-4.63-2.08-4.63-4.63"/>
  <path class="cls-20" d="M423.16,350.82c0-2.54,2.08-4.62,4.63-4.62s4.62,2.08,4.62,4.62-2.08,4.63-4.62,4.63-4.63-2.08-4.63-4.63"/>
  <rect class="cls-49" x="419.15" y="359.46" width="17.28" height="17.28"/>
  <text class="cls-8" transform="translate(424.73 372.05)"><tspan x="0" y="0">a</tspan></text>
  <path class="cls-47" d="M423.16,368.1c0-2.54,2.08-4.62,4.63-4.62s4.62,2.08,4.62,4.62-2.08,4.63-4.62,4.63-4.63-2.08-4.63-4.63"/>
  <path class="cls-22" d="M423.16,368.1c0-2.54,2.08-4.62,4.63-4.62s4.62,2.08,4.62,4.62-2.08,4.63-4.62,4.63-4.63-2.08-4.63-4.63"/>
  <text class="cls-3" transform="translate(441.91 146.69)"><tspan x="0" y="0">1.2.AF</tspan></text>
  <text class="cls-3" transform="translate(441.91 163.97)"><tspan x="0" y="0">1.2.NOS</tspan></text>
  <text class="cls-3" transform="translate(441.91 181.25)"><tspan x="0" y="0">1.4.NOS</tspan></text>
  <text class="cls-3" transform="translate(441.91 198.53)"><tspan x="0" y="0">2.4.NOS</tspan></text>
  <text class="cls-3" transform="translate(441.91 215.81)"><tspan x="0" y="0">2.4.OF</tspan></text>
  <text class="cls-3" transform="translate(441.91 233.09)"><tspan x="0" y="0">3.2</tspan></text>
  <text class="cls-3" transform="translate(441.91 250.37)"><tspan x="0" y="0">3.3</tspan></text>
  <text class="cls-3" transform="translate(441.91 267.65)"><tspan x="0" y="0">3.4</tspan></text>
  <text class="cls-3" transform="translate(441.91 284.93)"><tspan x="0" y="0">3.4.G</tspan></text>
  <text class="cls-3" transform="translate(441.91 302.21)"><tspan x="0" y="0">3.4.GSC</tspan></text>
  <text class="cls-3" transform="translate(441.91 319.49)"><tspan x="0" y="0">3.4.LMG</tspan></text>
  <text class="cls-3" transform="translate(441.91 336.77)"><tspan x="0" y="0">4.2.D</tspan></text>
  <text class="cls-3" transform="translate(441.91 354.05)"><tspan x="0" y="0">4.N.NOS</tspan></text>
  <text class="cls-3" transform="translate(441.91 371.33)"><tspan x="0" y="0">NED</tspan></text>
  <text class="cls-18" transform="translate(30.52 73.57)"><tspan x="0" y="0">pathologist subcatego</tspan><tspan class="cls-54" x="126.48" y="0">r</tspan><tspan x="130.99" y="0">ization</tspan></text>
</svg>