<?xml version="1.0" encoding="UTF-8"?>
<svg id="Layer_1" data-name="Layer 1" xmlns="http://www.w3.org/2000/svg" version="1.1" xmlns:xlink="http://www.w3.org/1999/xlink" viewBox="0 0 482 450">
  <defs>
    <style>
      .cls-1 {
        letter-spacing: -.05em;
      }

      .cls-2, .cls-3, .cls-4, .cls-5, .cls-6, .cls-7, .cls-8, .cls-9, .cls-10 {
        fill: none;
      }

      .cls-2, .cls-4, .cls-5, .cls-6, .cls-7, .cls-8, .cls-9, .cls-10 {
        stroke-linejoin: round;
      }

      .cls-2, .cls-5, .cls-7 {
        stroke-width: 1.07px;
      }

      .cls-2, .cls-8 {
        stroke: #000;
      }

      .cls-11 {
        letter-spacing: -.05em;
      }

      .cls-12, .cls-13, .cls-14, .cls-15 {
        fill: #000;
      }

      .cls-12, .cls-16, .cls-17, .cls-3, .cls-18, .cls-19, .cls-20 {
        stroke-width: 0px;
      }

      .cls-12, .cls-16, .cls-17, .cls-18, .cls-20 {
        opacity: .5;
      }

      .cls-13, .cls-14, .cls-21, .cls-15 {
        font-family: ArialMT, Arial;
      }

      .cls-13, .cls-21 {
        font-size: 9px;
      }

      .cls-16 {
        fill: #f8766d;
      }

      .cls-17 {
        fill: #c77cff;
      }

      .cls-22 {
        letter-spacing: -.05em;
      }

      .cls-4 {
        stroke: #f8766d;
      }

      .cls-4, .cls-6, .cls-7, .cls-8, .cls-9, .cls-10 {
        stroke-linecap: round;
      }

      .cls-4, .cls-6, .cls-8, .cls-9, .cls-10 {
        stroke-width: .71px;
      }

      .cls-23 {
        clip-path: url(#clippath-1);
      }

      .cls-5 {
        stroke: #333;
      }

      .cls-24 {
        letter-spacing: -.05em;
      }

      .cls-6 {
        stroke: #00bfc4;
      }

      .cls-25 {
        letter-spacing: 0em;
      }

      .cls-26 {
        clip-path: url(#clippath);
      }

      .cls-18 {
        fill: #7cae00;
      }

      .cls-14 {
        font-size: 11px;
      }

      .cls-21 {
        fill: #4d4d4d;
      }

      .cls-19 {
        fill: #fff;
      }

      .cls-7 {
        stroke: #fff;
      }

      .cls-9 {
        stroke: #7cae00;
      }

      .cls-10 {
        stroke: #c77cff;
      }

      .cls-20 {
        fill: #00bfc4;
      }

      .cls-15 {
        font-size: 13px;
      }
    </style>
    <clipPath id="clippath">
      <rect class="cls-3" y="78.12" width="482.25" height="293"/>
    </clipPath>
    <clipPath id="clippath-1">
      <rect class="cls-3" x="30.52" y="101.26" width="267.04" height="237.45"/>
    </clipPath>
  </defs>
  <g class="cls-26">
    <rect class="cls-19" y="78.12" width="482.25" height="293"/>
    <rect class="cls-7" y="78.12" width="482.25" height="293"/>
  </g>
  <g class="cls-23">
    <rect class="cls-19" x="30.52" y="101.26" width="267.04" height="237.45"/>
    <path class="cls-16" d="M206.74,316.7c0-4.38,3.59-7.96,7.96-7.96s7.97,3.58,7.97,7.96-3.59,7.96-7.97,7.96-7.96-3.58-7.96-7.96"/>
    <path class="cls-16" d="M173.99,202.78c0-4.83,3.95-8.79,8.78-8.79s8.78,3.96,8.78,8.79-3.95,8.78-8.78,8.78-8.78-3.95-8.78-8.78"/>
    <path class="cls-16" d="M243.29,321.07c0-5.04,4.12-9.16,9.16-9.16s9.16,4.12,9.16,9.16-4.12,9.16-9.16,9.16-9.16-4.12-9.16-9.16"/>
    <path class="cls-16" d="M216.61,196.48c0-5.55,4.54-10.09,10.09-10.09s10.08,4.54,10.08,10.09-4.54,10.08-10.08,10.08-10.09-4.54-10.09-10.08"/>
    <path class="cls-18" d="M245.85,318.91c0-5.4,4.41-9.81,9.81-9.81s9.81,4.41,9.81,9.81-4.42,9.81-9.81,9.81-9.81-4.42-9.81-9.81"/>
    <path class="cls-18" d="M214.03,176.52c0-5.58,4.57-10.15,10.14-10.15s10.15,4.57,10.15,10.15-4.57,10.14-10.15,10.14-10.14-4.57-10.14-10.14"/>
    <path class="cls-18" d="M275.29,112.05c0-5.57,4.56-10.14,10.14-10.14s10.14,4.57,10.14,10.14-4.56,10.15-10.14,10.15-10.14-4.57-10.14-10.15"/>
    <path class="cls-16" d="M264.98,301.79c0-4.3,3.52-7.81,7.82-7.81s7.81,3.51,7.81,7.81-3.51,7.82-7.81,7.82-7.82-3.52-7.82-7.82"/>
    <path class="cls-16" d="M70.86,238.13c0-4.76,3.9-8.66,8.66-8.66s8.65,3.9,8.65,8.66-3.89,8.65-8.65,8.65-8.66-3.9-8.66-8.65"/>
    <path class="cls-18" d="M91.79,234.14c0-5.75,4.71-10.46,10.46-10.46s10.47,4.71,10.47,10.46-4.71,10.46-10.47,10.46-10.46-4.7-10.46-10.46"/>
    <path class="cls-18" d="M238.58,311.13c0-6.06,4.96-11.02,11.02-11.02s11.03,4.96,11.03,11.02-4.96,11.02-11.03,11.02-11.02-4.96-11.02-11.02"/>
    <path class="cls-18" d="M40.18,274.66c0-4.97,4.06-9.04,9.03-9.04s9.04,4.07,9.04,9.04-4.07,9.03-9.04,9.03-9.03-4.06-9.03-9.03"/>
    <path class="cls-18" d="M141.33,268.69c0-3.35,2.74-6.1,6.1-6.1s6.09,2.75,6.09,6.1-2.74,6.1-6.09,6.1-6.1-2.74-6.1-6.1"/>
    <path class="cls-16" d="M87.37,219.88c0-4.38,3.58-7.96,7.96-7.96s7.96,3.58,7.96,7.96-3.58,7.96-7.96,7.96-7.96-3.58-7.96-7.96"/>
    <path class="cls-20" d="M215.08,214.61c0-3.86,3.16-7.02,7.02-7.02s7.02,3.16,7.02,7.02-3.16,7.03-7.02,7.03-7.02-3.16-7.02-7.03"/>
    <path class="cls-16" d="M239,195.27c0-5.87,4.8-10.67,10.67-10.67s10.67,4.8,10.67,10.67-4.8,10.67-10.67,10.67-10.67-4.8-10.67-10.67"/>
    <path class="cls-18" d="M123.2,223.99c0-4.09,3.34-7.43,7.43-7.43s7.43,3.34,7.43,7.43-3.34,7.43-7.43,7.43-7.43-3.34-7.43-7.43"/>
    <path class="cls-18" d="M139.17,222.1c0-2.72,2.22-4.94,4.94-4.94s4.94,2.22,4.94,4.94-2.22,4.94-4.94,4.94-4.94-2.23-4.94-4.94"/>
    <path class="cls-18" d="M202.68,196.37c0-5.3,4.34-9.64,9.64-9.64s9.63,4.34,9.63,9.64-4.33,9.63-9.63,9.63-9.64-4.33-9.64-9.63"/>
    <path class="cls-16" d="M210.67,206.95c0-6.04,4.93-10.98,10.97-10.98s10.98,4.94,10.98,10.98-4.94,10.97-10.98,10.97-10.97-4.93-10.97-10.97"/>
    <path class="cls-18" d="M61.43,252.3c0-3.62,2.96-6.58,6.58-6.58s6.58,2.96,6.58,6.58-2.96,6.58-6.58,6.58-6.58-2.96-6.58-6.58"/>
    <path class="cls-18" d="M244.3,293.68c0-1.32,1.08-2.4,2.4-2.4s2.39,1.08,2.39,2.4-1.08,2.4-2.39,2.4-2.4-1.08-2.4-2.4"/>
    <path class="cls-18" d="M81.44,236.93c0-2.4,1.96-4.35,4.35-4.35s4.35,1.95,4.35,4.35-1.96,4.34-4.35,4.34-4.35-1.95-4.35-4.34"/>
    <path class="cls-18" d="M247.01,327.91c0-4.25,3.49-7.74,7.74-7.74s7.74,3.49,7.74,7.74-3.48,7.74-7.74,7.74-7.74-3.48-7.74-7.74"/>
    <path class="cls-18" d="M58.4,239.08c0-5.61,4.58-10.2,10.19-10.2s10.2,4.59,10.2,10.2-4.59,10.19-10.2,10.19-10.19-4.58-10.19-10.19"/>
    <path class="cls-16" d="M117.42,258.43c0-3.18,2.61-5.78,5.79-5.78s5.78,2.6,5.78,5.78-2.6,5.78-5.78,5.78-5.79-2.6-5.79-5.78"/>
    <path class="cls-16" d="M90.59,229.04c0-4.3,3.52-7.81,7.82-7.81s7.81,3.51,7.81,7.81-3.51,7.82-7.81,7.82-7.82-3.52-7.82-7.82"/>
    <path class="cls-17" d="M41.24,277.93c0-.78.64-1.42,1.42-1.42s1.42.64,1.42,1.42-.64,1.42-1.42,1.42-1.42-.64-1.42-1.42"/>
    <path class="cls-17" d="M50.43,272.4c0-.79.64-1.43,1.42-1.43s1.42.64,1.42,1.43-.63,1.42-1.42,1.42-1.42-.64-1.42-1.42"/>
    <path class="cls-4" d="M206.74,316.7c0-4.38,3.59-7.96,7.96-7.96s7.97,3.58,7.97,7.96-3.59,7.96-7.97,7.96-7.96-3.58-7.96-7.96"/>
    <path class="cls-4" d="M173.99,202.78c0-4.83,3.95-8.79,8.78-8.79s8.78,3.96,8.78,8.79-3.95,8.78-8.78,8.78-8.78-3.95-8.78-8.78"/>
    <path class="cls-4" d="M243.29,321.07c0-5.04,4.12-9.16,9.16-9.16s9.16,4.12,9.16,9.16-4.12,9.16-9.16,9.16-9.16-4.12-9.16-9.16"/>
    <path class="cls-4" d="M216.61,196.48c0-5.55,4.54-10.09,10.09-10.09s10.08,4.54,10.08,10.09-4.54,10.08-10.08,10.08-10.09-4.54-10.09-10.08"/>
    <path class="cls-9" d="M245.85,318.91c0-5.4,4.41-9.81,9.81-9.81s9.81,4.41,9.81,9.81-4.42,9.81-9.81,9.81-9.81-4.42-9.81-9.81"/>
    <path class="cls-9" d="M214.03,176.52c0-5.58,4.57-10.15,10.14-10.15s10.15,4.57,10.15,10.15-4.57,10.14-10.15,10.14-10.14-4.57-10.14-10.14"/>
    <path class="cls-9" d="M275.29,112.05c0-5.57,4.56-10.14,10.14-10.14s10.14,4.57,10.14,10.14-4.56,10.15-10.14,10.15-10.14-4.57-10.14-10.15"/>
    <path class="cls-4" d="M264.98,301.79c0-4.3,3.52-7.81,7.82-7.81s7.81,3.51,7.81,7.81-3.51,7.82-7.81,7.82-7.82-3.52-7.82-7.82"/>
    <path class="cls-4" d="M70.86,238.13c0-4.76,3.9-8.66,8.66-8.66s8.65,3.9,8.65,8.66-3.89,8.65-8.65,8.65-8.66-3.9-8.66-8.65"/>
    <path class="cls-9" d="M91.79,234.14c0-5.75,4.71-10.46,10.46-10.46s10.47,4.71,10.47,10.46-4.71,10.46-10.47,10.46-10.46-4.7-10.46-10.46"/>
    <path class="cls-9" d="M238.58,311.13c0-6.06,4.96-11.02,11.02-11.02s11.03,4.96,11.03,11.02-4.96,11.02-11.03,11.02-11.02-4.96-11.02-11.02"/>
    <path class="cls-9" d="M40.18,274.66c0-4.97,4.06-9.04,9.03-9.04s9.04,4.07,9.04,9.04-4.07,9.03-9.04,9.03-9.03-4.06-9.03-9.03"/>
    <path class="cls-9" d="M141.33,268.69c0-3.35,2.74-6.1,6.1-6.1s6.09,2.75,6.09,6.1-2.74,6.1-6.09,6.1-6.1-2.74-6.1-6.1"/>
    <path class="cls-4" d="M87.37,219.88c0-4.38,3.58-7.96,7.96-7.96s7.96,3.58,7.96,7.96-3.58,7.96-7.96,7.96-7.96-3.58-7.96-7.96"/>
    <path class="cls-6" d="M215.08,214.61c0-3.86,3.16-7.02,7.02-7.02s7.02,3.16,7.02,7.02-3.16,7.03-7.02,7.03-7.02-3.16-7.02-7.03"/>
    <path class="cls-4" d="M239,195.27c0-5.87,4.8-10.67,10.67-10.67s10.67,4.8,10.67,10.67-4.8,10.67-10.67,10.67-10.67-4.8-10.67-10.67"/>
    <path class="cls-9" d="M123.2,223.99c0-4.09,3.34-7.43,7.43-7.43s7.43,3.34,7.43,7.43-3.34,7.43-7.43,7.43-7.43-3.34-7.43-7.43"/>
    <path class="cls-9" d="M139.17,222.1c0-2.72,2.22-4.94,4.94-4.94s4.94,2.22,4.94,4.94-2.22,4.94-4.94,4.94-4.94-2.23-4.94-4.94"/>
    <path class="cls-9" d="M202.68,196.37c0-5.3,4.34-9.64,9.64-9.64s9.63,4.34,9.63,9.64-4.33,9.63-9.63,9.63-9.64-4.33-9.64-9.63"/>
    <path class="cls-4" d="M210.67,206.95c0-6.04,4.93-10.98,10.97-10.98s10.98,4.94,10.98,10.98-4.94,10.97-10.98,10.97-10.97-4.93-10.97-10.97"/>
    <path class="cls-9" d="M61.43,252.3c0-3.62,2.96-6.58,6.58-6.58s6.58,2.96,6.58,6.58-2.96,6.58-6.58,6.58-6.58-2.96-6.58-6.58"/>
    <path class="cls-9" d="M244.3,293.68c0-1.32,1.08-2.4,2.4-2.4s2.39,1.08,2.39,2.4-1.08,2.4-2.39,2.4-2.4-1.08-2.4-2.4"/>
    <path class="cls-9" d="M81.44,236.93c0-2.4,1.96-4.35,4.35-4.35s4.35,1.95,4.35,4.35-1.96,4.34-4.35,4.34-4.35-1.95-4.35-4.34"/>
    <path class="cls-9" d="M247.01,327.91c0-4.25,3.49-7.74,7.74-7.74s7.74,3.49,7.74,7.74-3.48,7.74-7.74,7.74-7.74-3.48-7.74-7.74"/>
    <path class="cls-9" d="M58.4,239.08c0-5.61,4.58-10.2,10.19-10.2s10.2,4.59,10.2,10.2-4.59,10.19-10.2,10.19-10.19-4.58-10.19-10.19"/>
    <path class="cls-4" d="M117.42,258.43c0-3.18,2.61-5.78,5.79-5.78s5.78,2.6,5.78,5.78-2.6,5.78-5.78,5.78-5.79-2.6-5.79-5.78"/>
    <path class="cls-4" d="M90.59,229.04c0-4.3,3.52-7.81,7.82-7.81s7.81,3.51,7.81,7.81-3.51,7.82-7.81,7.82-7.82-3.52-7.82-7.82"/>
    <path class="cls-10" d="M41.24,277.93c0-.78.64-1.42,1.42-1.42s1.42.64,1.42,1.42-.64,1.42-1.42,1.42-1.42-.64-1.42-1.42"/>
    <path class="cls-10" d="M50.43,272.4c0-.79.64-1.43,1.42-1.43s1.42.64,1.42,1.43-.63,1.42-1.42,1.42-1.42-.64-1.42-1.42"/>
  </g>
  <line class="cls-2" x1="30.52" y1="338.71" x2="30.52" y2="101.26"/>
  <text class="cls-21" transform="translate(15.33 328.42)"><tspan x="0" y="0">−2</tspan></text>
  <text class="cls-21" transform="translate(20.59 249.43)"><tspan x="0" y="0">0</tspan></text>
  <text class="cls-21" transform="translate(20.59 170.45)"><tspan x="0" y="0">2</tspan></text>
  <line class="cls-5" x1="27.78" y1="325.19" x2="30.52" y2="325.19"/>
  <line class="cls-5" x1="27.78" y1="246.2" x2="30.52" y2="246.2"/>
  <line class="cls-5" x1="27.78" y1="167.22" x2="30.52" y2="167.22"/>
  <line class="cls-2" x1="30.52" y1="338.71" x2="297.57" y2="338.71"/>
  <line class="cls-5" x1="88.55" y1="341.45" x2="88.55" y2="338.71"/>
  <line class="cls-5" x1="167.53" y1="341.45" x2="167.53" y2="338.71"/>
  <line class="cls-5" x1="246.52" y1="341.45" x2="246.52" y2="338.71"/>
  <text class="cls-21" transform="translate(83.42 350.1)"><tspan x="0" y="0">−2</tspan></text>
  <text class="cls-21" transform="translate(165.03 350.1)"><tspan x="0" y="0">0</tspan></text>
  <text class="cls-21" transform="translate(244.02 350.1)"><tspan x="0" y="0">2</tspan></text>
  <text class="cls-14" transform="translate(161.29 363.75)"><tspan x="0" y="0">x</tspan></text>
  <text class="cls-14" transform="translate(13.38 222.73) rotate(-90)"><tspan x="0" y="0">y</tspan></text>
  <rect class="cls-19" x="308.53" y="120.46" width="86.75" height="91.17"/>
  <text class="cls-14" transform="translate(314.01 135.57)"><tspan x="0" y="0">(150 − aod + 1)</tspan></text>
  <rect class="cls-19" x="314.01" y="142.78" width="25.12" height="17.28"/>
  <path class="cls-12" d="M320.37,151.42c0-3.41,2.79-6.2,6.19-6.2s6.2,2.79,6.2,6.2-2.79,6.2-6.2,6.2-6.19-2.79-6.19-6.2"/>
  <path class="cls-8" d="M320.37,151.42c0-3.41,2.79-6.2,6.19-6.2s6.2,2.79,6.2,6.2-2.79,6.2-6.2,6.2-6.19-2.79-6.19-6.2"/>
  <rect class="cls-19" x="314.01" y="160.06" width="25.12" height="20.97"/>
  <path class="cls-12" d="M318.32,170.55c0-4.54,3.71-8.25,8.24-8.25s8.25,3.71,8.25,8.25-3.71,8.24-8.25,8.24-8.24-3.71-8.24-8.24"/>
  <path class="cls-8" d="M318.32,170.55c0-4.54,3.71-8.25,8.24-8.25s8.25,3.71,8.25,8.25-3.71,8.24-8.25,8.24-8.24-3.71-8.24-8.24"/>
  <rect class="cls-19" x="314.01" y="181.03" width="25.12" height="25.12"/>
  <path class="cls-12" d="M316.76,193.59c0-5.4,4.41-9.81,9.8-9.81s9.81,4.41,9.81,9.81-4.41,9.81-9.81,9.81-9.8-4.42-9.8-9.81"/>
  <path class="cls-8" d="M316.76,193.59c0-5.4,4.41-9.81,9.8-9.81s9.81,4.41,9.81,9.81-4.41,9.81-9.81,9.81-9.8-4.42-9.8-9.81"/>
  <text class="cls-13" transform="translate(344.6 154.65)"><tspan x="0" y="0">25</tspan></text>
  <text class="cls-13" transform="translate(344.6 173.78)"><tspan x="0" y="0">50</tspan></text>
  <text class="cls-13" transform="translate(344.6 196.82)"><tspan x="0" y="0">75</tspan></text>
  <rect class="cls-19" x="308.53" y="222.58" width="168.24" height="96.93"/>
  <text class="cls-14" transform="translate(314.01 237.7)"><tspan x="0" y="0">resultant_geno</tspan></text>
  <rect class="cls-19" x="314.01" y="244.91" width="17.28" height="17.28"/>
  <path class="cls-16" d="M320.69,253.55c0-1.07.88-1.95,1.96-1.95s1.95.88,1.95,1.95-.88,1.96-1.95,1.96-1.96-.88-1.96-1.96"/>
  <path class="cls-4" d="M320.69,253.55c0-1.07.88-1.95,1.96-1.95s1.95.88,1.95,1.95-.88,1.96-1.95,1.96-1.96-.88-1.96-1.96"/>
  <rect class="cls-19" x="314.01" y="262.19" width="17.28" height="17.28"/>
  <path class="cls-18" d="M320.69,270.83c0-1.07.88-1.95,1.96-1.95s1.95.88,1.95,1.95-.88,1.96-1.95,1.96-1.96-.88-1.96-1.96"/>
  <path class="cls-9" d="M320.69,270.83c0-1.07.88-1.95,1.96-1.95s1.95.88,1.95,1.95-.88,1.96-1.95,1.96-1.96-.88-1.96-1.96"/>
  <rect class="cls-19" x="314.01" y="279.47" width="17.28" height="17.28"/>
  <path class="cls-20" d="M320.69,288.11c0-1.07.88-1.95,1.96-1.95s1.95.88,1.95,1.95-.88,1.96-1.95,1.96-1.96-.88-1.96-1.96"/>
  <path class="cls-6" d="M320.69,288.11c0-1.07.88-1.95,1.96-1.95s1.95.88,1.95,1.95-.88,1.96-1.95,1.96-1.96-.88-1.96-1.96"/>
  <rect class="cls-19" x="314.01" y="296.75" width="17.28" height="17.28"/>
  <path class="cls-17" d="M320.69,305.39c0-1.07.88-1.95,1.96-1.95s1.95.88,1.95,1.95-.88,1.96-1.95,1.96-1.96-.88-1.96-1.96"/>
  <path class="cls-10" d="M320.69,305.39c0-1.07.88-1.95,1.96-1.95s1.95.88,1.95,1.95-.88,1.96-1.95,1.96-1.96-.88-1.96-1.96"/>
  <text class="cls-13" transform="translate(336.77 256.78)"><tspan x="0" y="0">nf1 </tspan><tspan class="cls-11" x="15.01" y="0">K</tspan><tspan x="20.56" y="0">O; pten </tspan><tspan class="cls-11" x="52.58" y="0">K</tspan><tspan x="58.14" y="0">O; ink </tspan><tspan class="cls-24" x="84.14" y="0">K</tspan><tspan class="cls-25" x="89.7" y="0">O; atrx </tspan><tspan class="cls-1" x="119.2" y="0">K</tspan><tspan x="124.76" y="0">O</tspan></text>
  <text class="cls-13" transform="translate(336.77 274.06)"><tspan x="0" y="0">nf1 </tspan><tspan class="cls-11" x="15.01" y="0">K</tspan><tspan x="20.56" y="0">O; pten </tspan><tspan class="cls-11" x="52.58" y="0">K</tspan><tspan x="58.14" y="0">O; ink </tspan><tspan class="cls-24" x="84.14" y="0">K</tspan><tspan class="cls-25" x="89.7" y="0">O; atrx wt</tspan></text>
  <text class="cls-13" transform="translate(336.77 291.34)"><tspan x="0" y="0">nf1 wt; pten </tspan><tspan class="cls-22" x="49.03" y="0">K</tspan><tspan class="cls-25" x="54.59" y="0">O; ink </tspan><tspan class="cls-11" x="80.6" y="0">K</tspan><tspan x="86.15" y="0">O; atrx </tspan><tspan class="cls-11" x="115.66" y="0">K</tspan><tspan x="121.21" y="0">O</tspan></text>
  <text class="cls-13" transform="translate(336.77 308.62)"><tspan x="0" y="0">nf1 wt; pten wt; ink wt; atrx wt</tspan></text>
  <text class="cls-15" transform="translate(30.52 92.94)"><tspan x="0" y="0">resultant genotype</tspan></text>
</svg>