<?xml version="1.0" encoding="UTF-8"?>
<svg id="Layer_1" data-name="Layer 1" xmlns="http://www.w3.org/2000/svg" version="1.1" xmlns:xlink="http://www.w3.org/1999/xlink" viewBox="0 0 792 612">
  <defs>
    <style>
      .cls-1 {
        stroke: #00c19f;
      }

      .cls-1, .cls-2, .cls-3, .cls-4, .cls-5, .cls-6, .cls-7, .cls-8, .cls-9, .cls-10, .cls-11, .cls-12, .cls-13 {
        fill: none;
      }

      .cls-1, .cls-2, .cls-4, .cls-5, .cls-6, .cls-7, .cls-8, .cls-9, .cls-10, .cls-11, .cls-12, .cls-13 {
        stroke-linejoin: round;
      }

      .cls-1, .cls-4, .cls-5, .cls-7, .cls-8, .cls-9, .cls-10, .cls-11, .cls-12, .cls-13 {
        stroke-linecap: round;
      }

      .cls-1, .cls-4, .cls-5, .cls-7, .cls-8, .cls-9, .cls-10, .cls-12, .cls-13 {
        stroke-width: .71px;
      }

      .cls-14 {
        fill: #619cff;
      }

      .cls-14, .cls-15, .cls-16, .cls-17, .cls-3, .cls-18, .cls-19, .cls-20, .cls-21, .cls-22, .cls-23 {
        stroke-width: 0px;
      }

      .cls-14, .cls-15, .cls-16, .cls-17, .cls-18, .cls-19, .cls-20, .cls-22, .cls-23 {
        opacity: .5;
      }

      .cls-2 {
        stroke: #000;
      }

      .cls-2, .cls-6, .cls-11 {
        stroke-width: 1.07px;
      }

      .cls-24, .cls-25, .cls-26, .cls-27 {
        font-family: ArialMT, Arial;
      }

      .cls-24, .cls-25, .cls-27 {
        fill: #000;
      }

      .cls-24, .cls-26 {
        font-size: 9px;
      }

      .cls-15 {
        fill: #f8766d;
      }

      .cls-16 {
        fill: #00b9e3;
      }

      .cls-17 {
        fill: #db72fb;
      }

      .cls-4 {
        stroke: #db72fb;
      }

      .cls-5 {
        stroke: #f8766d;
      }

      .cls-28 {
        clip-path: url(#clippath-1);
      }

      .cls-6 {
        stroke: #333;
      }

      .cls-7 {
        stroke: #619cff;
      }

      .cls-29 {
        letter-spacing: .01em;
      }

      .cls-18 {
        fill: #ff61c3;
      }

      .cls-30 {
        clip-path: url(#clippath);
      }

      .cls-8 {
        stroke: #d39200;
      }

      .cls-9 {
        stroke: #ff61c3;
      }

      .cls-19 {
        fill: #00ba38;
      }

      .cls-25 {
        font-size: 11px;
      }

      .cls-10 {
        stroke: #00b9e3;
      }

      .cls-26 {
        fill: #4d4d4d;
      }

      .cls-20 {
        fill: #00c19f;
      }

      .cls-21 {
        fill: #fff;
      }

      .cls-11 {
        stroke: #fff;
      }

      .cls-12 {
        stroke: #93aa00;
      }

      .cls-22 {
        fill: #93aa00;
      }

      .cls-23 {
        fill: #d39200;
      }

      .cls-13 {
        stroke: #00ba38;
      }

      .cls-27 {
        font-size: 13px;
      }
    </style>
    <clipPath id="clippath">
      <rect class="cls-3" x="28.56" width="734.89" height="612"/>
    </clipPath>
    <clipPath id="clippath-1">
      <rect class="cls-3" x="59.08" y="23.13" width="625.81" height="556.45"/>
    </clipPath>
  </defs>
  <g class="cls-30">
    <rect class="cls-21" x="28.56" width="734.89" height="612"/>
    <rect class="cls-11" x="28.56" width="734.89" height="612"/>
  </g>
  <g class="cls-28">
    <rect class="cls-21" x="59.08" y="23.13" width="625.81" height="556.45"/>
    <path class="cls-15" d="M486.08,528.02c0-2.54,2.08-4.62,4.62-4.62s4.63,2.08,4.63,4.62-2.08,4.62-4.63,4.62-4.62-2.08-4.62-4.62"/>
    <path class="cls-22" d="M411.24,261.03c0-2.54,2.08-4.62,4.62-4.62s4.62,2.08,4.62,4.62-2.08,4.63-4.62,4.63-4.62-2.08-4.62-4.63"/>
    <path class="cls-15" d="M574.54,538.26c0-2.54,2.08-4.62,4.62-4.62s4.62,2.08,4.62,4.62-2.08,4.62-4.62,4.62-4.62-2.08-4.62-4.62"/>
    <path class="cls-22" d="M514.18,246.27c0-2.55,2.08-4.63,4.63-4.63s4.62,2.08,4.62,4.63-2.08,4.62-4.62,4.62-4.63-2.08-4.63-4.62"/>
    <path class="cls-15" d="M582.05,533.19c0-2.54,2.08-4.62,4.62-4.62s4.63,2.08,4.63,4.62-2.08,4.62-4.63,4.62-4.62-2.08-4.62-4.62"/>
    <path class="cls-22" d="M508.27,199.49c0-2.54,2.08-4.62,4.62-4.62s4.63,2.08,4.63,4.62-2.08,4.63-4.63,4.63-4.62-2.08-4.62-4.63"/>
    <path class="cls-22" d="M651.82,48.43c0-2.54,2.08-4.62,4.62-4.62s4.63,2.08,4.63,4.62-2.08,4.62-4.63,4.62-4.62-2.08-4.62-4.62"/>
    <path class="cls-23" d="M622.22,493.07c0-2.54,2.08-4.62,4.63-4.62s4.62,2.08,4.62,4.62-2.08,4.62-4.62,4.62-4.63-2.08-4.63-4.62"/>
    <path class="cls-19" d="M169.27,343.87c0-2.54,2.08-4.62,4.62-4.62s4.63,2.08,4.63,4.62-2.08,4.63-4.63,4.63-4.62-2.08-4.62-4.63"/>
    <path class="cls-16" d="M222.56,334.54c0-2.54,2.08-4.62,4.62-4.62s4.62,2.08,4.62,4.62-2.08,4.62-4.62,4.62-4.62-2.08-4.62-4.62"/>
    <path class="cls-15" d="M567.87,514.96c0-2.55,2.08-4.63,4.62-4.63s4.62,2.08,4.62,4.63-2.08,4.62-4.62,4.62-4.62-2.08-4.62-4.62"/>
    <path class="cls-14" d="M98.25,429.48c0-2.54,2.08-4.62,4.63-4.62s4.62,2.08,4.62,4.62-2.08,4.63-4.62,4.63-4.63-2.08-4.63-4.63"/>
    <path class="cls-15" d="M328.42,415.51c0-2.55,2.08-4.63,4.62-4.63s4.62,2.08,4.62,4.63-2.08,4.62-4.62,4.62-4.62-2.08-4.62-4.62"/>
    <path class="cls-16" d="M206.33,301.12c0-2.55,2.08-4.63,4.62-4.63s4.63,2.08,4.63,4.63-2.08,4.62-4.63,4.62-4.62-2.08-4.62-4.62"/>
    <path class="cls-22" d="M503.41,288.77c0-2.54,2.08-4.62,4.63-4.62s4.62,2.08,4.62,4.62-2.08,4.63-4.62,4.63-4.63-2.08-4.63-4.63"/>
    <path class="cls-22" d="M568.03,243.45c0-2.54,2.08-4.62,4.62-4.62s4.62,2.08,4.62,4.62-2.08,4.62-4.62,4.62-4.62-2.08-4.62-4.62"/>
    <path class="cls-17" d="M289.05,310.75c0-2.55,2.08-4.63,4.62-4.63s4.62,2.08,4.62,4.63-2.08,4.62-4.62,4.62-4.62-2.08-4.62-4.62"/>
    <path class="cls-16" d="M320.64,306.32c0-2.55,2.08-4.63,4.63-4.63s4.62,2.08,4.62,4.63-2.08,4.62-4.62,4.62-4.63-2.08-4.63-4.62"/>
    <path class="cls-22" d="M480.49,246.01c0-2.54,2.08-4.62,4.62-4.62s4.62,2.08,4.62,4.62-2.08,4.62-4.62,4.62-4.62-2.08-4.62-4.62"/>
    <path class="cls-22" d="M502.34,270.81c0-2.54,2.08-4.62,4.62-4.62s4.62,2.08,4.62,4.62-2.08,4.62-4.62,4.62-4.62-2.08-4.62-4.62"/>
    <path class="cls-16" d="M142.3,377.09c0-2.55,2.08-4.63,4.63-4.63s4.62,2.08,4.62,4.63-2.08,4.62-4.62,4.62-4.63-2.08-4.63-4.62"/>
    <path class="cls-15" d="M561.05,474.07c0-2.55,2.08-4.63,4.62-4.63s4.63,2.08,4.63,4.63-2.08,4.62-4.63,4.62-4.62-2.08-4.62-4.62"/>
    <path class="cls-20" d="M183.97,341.06c0-2.54,2.08-4.62,4.62-4.62s4.62,2.08,4.62,4.62-2.08,4.62-4.62,4.62-4.62-2.08-4.62-4.62"/>
    <path class="cls-23" d="M579.94,554.29c0-2.54,2.08-4.62,4.62-4.62s4.62,2.08,4.62,4.62-2.08,4.62-4.62,4.62-4.62-2.08-4.62-4.62"/>
    <path class="cls-16" d="M143.67,346.11c0-2.55,2.08-4.63,4.62-4.63s4.63,2.08,4.63,4.63-2.08,4.62-4.63,4.62-4.62-2.08-4.62-4.62"/>
    <path class="cls-16" d="M271.66,391.46c0-2.54,2.08-4.62,4.62-4.62s4.62,2.08,4.62,4.62-2.08,4.63-4.62,4.63-4.62-2.08-4.62-4.63"/>
    <path class="cls-20" d="M213.54,322.58c0-2.54,2.08-4.62,4.63-4.62s4.62,2.08,4.62,4.62-2.08,4.63-4.62,4.63-4.63-2.08-4.63-4.63"/>
    <path class="cls-18" d="M82.9,437.16c0-2.54,2.08-4.62,4.62-4.62s4.63,2.08,4.63,4.62-2.08,4.62-4.63,4.62-4.62-2.08-4.62-4.62"/>
    <path class="cls-18" d="M104.44,424.18c0-2.54,2.08-4.62,4.63-4.62s4.62,2.08,4.62,4.62-2.08,4.63-4.62,4.63-4.63-2.08-4.63-4.63"/>
    <path class="cls-5" d="M486.08,528.02c0-2.54,2.08-4.62,4.62-4.62s4.63,2.08,4.63,4.62-2.08,4.62-4.63,4.62-4.62-2.08-4.62-4.62"/>
    <path class="cls-12" d="M411.24,261.03c0-2.54,2.08-4.62,4.62-4.62s4.62,2.08,4.62,4.62-2.08,4.63-4.62,4.63-4.62-2.08-4.62-4.63"/>
    <path class="cls-5" d="M574.54,538.26c0-2.54,2.08-4.62,4.62-4.62s4.62,2.08,4.62,4.62-2.08,4.62-4.62,4.62-4.62-2.08-4.62-4.62"/>
    <path class="cls-12" d="M514.18,246.27c0-2.55,2.08-4.63,4.63-4.63s4.62,2.08,4.62,4.63-2.08,4.62-4.62,4.62-4.63-2.08-4.63-4.62"/>
    <path class="cls-5" d="M582.05,533.19c0-2.54,2.08-4.62,4.62-4.62s4.63,2.08,4.63,4.62-2.08,4.62-4.63,4.62-4.62-2.08-4.62-4.62"/>
    <path class="cls-12" d="M508.27,199.49c0-2.54,2.08-4.62,4.62-4.62s4.63,2.08,4.63,4.62-2.08,4.63-4.63,4.63-4.62-2.08-4.62-4.63"/>
    <path class="cls-12" d="M651.82,48.43c0-2.54,2.08-4.62,4.62-4.62s4.63,2.08,4.63,4.62-2.08,4.62-4.63,4.62-4.62-2.08-4.62-4.62"/>
    <path class="cls-8" d="M622.22,493.07c0-2.54,2.08-4.62,4.63-4.62s4.62,2.08,4.62,4.62-2.08,4.62-4.62,4.62-4.63-2.08-4.63-4.62"/>
    <path class="cls-13" d="M169.27,343.87c0-2.54,2.08-4.62,4.62-4.62s4.63,2.08,4.63,4.62-2.08,4.63-4.63,4.63-4.62-2.08-4.62-4.63"/>
    <path class="cls-10" d="M222.56,334.54c0-2.54,2.08-4.62,4.62-4.62s4.62,2.08,4.62,4.62-2.08,4.62-4.62,4.62-4.62-2.08-4.62-4.62"/>
    <path class="cls-5" d="M567.87,514.96c0-2.55,2.08-4.63,4.62-4.63s4.62,2.08,4.62,4.63-2.08,4.62-4.62,4.62-4.62-2.08-4.62-4.62"/>
    <path class="cls-7" d="M98.25,429.48c0-2.54,2.08-4.62,4.63-4.62s4.62,2.08,4.62,4.62-2.08,4.63-4.62,4.63-4.63-2.08-4.63-4.63"/>
    <path class="cls-5" d="M328.42,415.51c0-2.55,2.08-4.63,4.62-4.63s4.62,2.08,4.62,4.63-2.08,4.62-4.62,4.62-4.62-2.08-4.62-4.62"/>
    <path class="cls-10" d="M206.33,301.12c0-2.55,2.08-4.63,4.62-4.63s4.63,2.08,4.63,4.63-2.08,4.62-4.63,4.62-4.62-2.08-4.62-4.62"/>
    <path class="cls-12" d="M503.41,288.77c0-2.54,2.08-4.62,4.63-4.62s4.62,2.08,4.62,4.62-2.08,4.63-4.62,4.63-4.63-2.08-4.63-4.63"/>
    <path class="cls-12" d="M568.03,243.45c0-2.54,2.08-4.62,4.62-4.62s4.62,2.08,4.62,4.62-2.08,4.62-4.62,4.62-4.62-2.08-4.62-4.62"/>
    <path class="cls-4" d="M289.05,310.75c0-2.55,2.08-4.63,4.62-4.63s4.62,2.08,4.62,4.63-2.08,4.62-4.62,4.62-4.62-2.08-4.62-4.62"/>
    <path class="cls-10" d="M320.64,306.32c0-2.55,2.08-4.63,4.63-4.63s4.62,2.08,4.62,4.63-2.08,4.62-4.62,4.62-4.63-2.08-4.63-4.62"/>
    <path class="cls-12" d="M480.49,246.01c0-2.54,2.08-4.62,4.62-4.62s4.62,2.08,4.62,4.62-2.08,4.62-4.62,4.62-4.62-2.08-4.62-4.62"/>
    <path class="cls-12" d="M502.34,270.81c0-2.54,2.08-4.62,4.62-4.62s4.62,2.08,4.62,4.62-2.08,4.62-4.62,4.62-4.62-2.08-4.62-4.62"/>
    <path class="cls-10" d="M142.3,377.09c0-2.55,2.08-4.63,4.63-4.63s4.62,2.08,4.62,4.63-2.08,4.62-4.62,4.62-4.63-2.08-4.63-4.62"/>
    <path class="cls-5" d="M561.05,474.07c0-2.55,2.08-4.63,4.62-4.63s4.63,2.08,4.63,4.63-2.08,4.62-4.63,4.62-4.62-2.08-4.62-4.62"/>
    <path class="cls-1" d="M183.97,341.06c0-2.54,2.08-4.62,4.62-4.62s4.62,2.08,4.62,4.62-2.08,4.62-4.62,4.62-4.62-2.08-4.62-4.62"/>
    <path class="cls-8" d="M579.94,554.29c0-2.54,2.08-4.62,4.62-4.62s4.62,2.08,4.62,4.62-2.08,4.62-4.62,4.62-4.62-2.08-4.62-4.62"/>
    <path class="cls-10" d="M143.67,346.11c0-2.55,2.08-4.63,4.62-4.63s4.63,2.08,4.63,4.63-2.08,4.62-4.63,4.62-4.62-2.08-4.62-4.62"/>
    <path class="cls-10" d="M271.66,391.46c0-2.54,2.08-4.62,4.62-4.62s4.62,2.08,4.62,4.62-2.08,4.63-4.62,4.63-4.62-2.08-4.62-4.63"/>
    <path class="cls-1" d="M213.54,322.58c0-2.54,2.08-4.62,4.63-4.62s4.62,2.08,4.62,4.62-2.08,4.63-4.62,4.63-4.63-2.08-4.63-4.63"/>
    <path class="cls-9" d="M82.9,437.16c0-2.54,2.08-4.62,4.62-4.62s4.63,2.08,4.63,4.62-2.08,4.62-4.63,4.62-4.62-2.08-4.62-4.62"/>
    <path class="cls-9" d="M104.44,424.18c0-2.54,2.08-4.62,4.63-4.62s4.62,2.08,4.62,4.62-2.08,4.63-4.62,4.63-4.63-2.08-4.63-4.63"/>
  </g>
  <line class="cls-2" x1="59.08" y1="579.58" x2="59.08" y2="23.14"/>
  <text class="cls-26" transform="translate(43.89 551.13)"><tspan x="0" y="0">−2</tspan></text>
  <text class="cls-26" transform="translate(49.14 366.04)"><tspan x="0" y="0">0</tspan></text>
  <text class="cls-26" transform="translate(49.14 180.94)"><tspan x="0" y="0">2</tspan></text>
  <line class="cls-6" x1="56.34" y1="547.9" x2="59.08" y2="547.9"/>
  <line class="cls-6" x1="56.34" y1="362.81" x2="59.08" y2="362.81"/>
  <line class="cls-6" x1="56.34" y1="177.71" x2="59.08" y2="177.71"/>
  <line class="cls-2" x1="59.08" y1="579.58" x2="684.89" y2="579.58"/>
  <line class="cls-6" x1="195.06" y1="582.32" x2="195.06" y2="579.58"/>
  <line class="cls-6" x1="380.16" y1="582.32" x2="380.16" y2="579.58"/>
  <line class="cls-6" x1="565.26" y1="582.32" x2="565.26" y2="579.58"/>
  <text class="cls-26" transform="translate(189.93 590.98)"><tspan x="0" y="0">−2</tspan></text>
  <text class="cls-26" transform="translate(377.66 590.98)"><tspan x="0" y="0">0</tspan></text>
  <text class="cls-26" transform="translate(562.75 590.98)"><tspan x="0" y="0">2</tspan></text>
  <text class="cls-25" transform="translate(369.23 604.63)"><tspan x="0" y="0">x</tspan></text>
  <text class="cls-25" transform="translate(41.93 304.11) rotate(-90)"><tspan x="0" y="0">y</tspan></text>
  <rect class="cls-21" x="695.85" y="209.69" width="62.12" height="183.33"/>
  <text class="cls-25" transform="translate(701.33 224.81)"><tspan x="0" y="0">patho_cat</tspan></text>
  <rect class="cls-21" x="701.33" y="232.02" width="17.28" height="17.28"/>
  <path class="cls-15" d="M705.35,240.66c0-2.54,2.08-4.62,4.62-4.62s4.62,2.08,4.62,4.62-2.08,4.63-4.62,4.63-4.62-2.08-4.62-4.63"/>
  <path class="cls-5" d="M705.35,240.66c0-2.54,2.08-4.62,4.62-4.62s4.62,2.08,4.62,4.62-2.08,4.63-4.62,4.63-4.62-2.08-4.62-4.63"/>
  <rect class="cls-21" x="701.33" y="249.3" width="17.28" height="17.28"/>
  <path class="cls-23" d="M705.35,257.94c0-2.54,2.08-4.62,4.62-4.62s4.62,2.08,4.62,4.62-2.08,4.63-4.62,4.63-4.62-2.08-4.62-4.63"/>
  <path class="cls-8" d="M705.35,257.94c0-2.54,2.08-4.62,4.62-4.62s4.62,2.08,4.62,4.62-2.08,4.63-4.62,4.63-4.62-2.08-4.62-4.63"/>
  <rect class="cls-21" x="701.33" y="266.58" width="17.28" height="17.28"/>
  <path class="cls-22" d="M705.35,275.22c0-2.54,2.08-4.62,4.62-4.62s4.62,2.08,4.62,4.62-2.08,4.63-4.62,4.63-4.62-2.08-4.62-4.63"/>
  <path class="cls-12" d="M705.35,275.22c0-2.54,2.08-4.62,4.62-4.62s4.62,2.08,4.62,4.62-2.08,4.63-4.62,4.63-4.62-2.08-4.62-4.63"/>
  <rect class="cls-21" x="701.33" y="283.86" width="17.28" height="17.28"/>
  <path class="cls-19" d="M705.35,292.5c0-2.54,2.08-4.62,4.62-4.62s4.62,2.08,4.62,4.62-2.08,4.63-4.62,4.63-4.62-2.08-4.62-4.63"/>
  <path class="cls-13" d="M705.35,292.5c0-2.54,2.08-4.62,4.62-4.62s4.62,2.08,4.62,4.62-2.08,4.63-4.62,4.63-4.62-2.08-4.62-4.63"/>
  <rect class="cls-21" x="701.33" y="301.14" width="17.28" height="17.28"/>
  <path class="cls-20" d="M705.35,309.78c0-2.54,2.08-4.62,4.62-4.62s4.62,2.08,4.62,4.62-2.08,4.63-4.62,4.63-4.62-2.08-4.62-4.63"/>
  <path class="cls-1" d="M705.35,309.78c0-2.54,2.08-4.62,4.62-4.62s4.62,2.08,4.62,4.62-2.08,4.63-4.62,4.63-4.62-2.08-4.62-4.63"/>
  <rect class="cls-21" x="701.33" y="318.42" width="17.28" height="17.28"/>
  <path class="cls-16" d="M705.35,327.06c0-2.54,2.08-4.62,4.62-4.62s4.62,2.08,4.62,4.62-2.08,4.63-4.62,4.63-4.62-2.08-4.62-4.63"/>
  <path class="cls-10" d="M705.35,327.06c0-2.54,2.08-4.62,4.62-4.62s4.62,2.08,4.62,4.62-2.08,4.63-4.62,4.63-4.62-2.08-4.62-4.63"/>
  <rect class="cls-21" x="701.33" y="335.7" width="17.28" height="17.28"/>
  <path class="cls-14" d="M705.35,344.34c0-2.54,2.08-4.62,4.62-4.62s4.62,2.08,4.62,4.62-2.08,4.63-4.62,4.63-4.62-2.08-4.62-4.63"/>
  <path class="cls-7" d="M705.35,344.34c0-2.54,2.08-4.62,4.62-4.62s4.62,2.08,4.62,4.62-2.08,4.63-4.62,4.63-4.62-2.08-4.62-4.63"/>
  <rect class="cls-21" x="701.33" y="352.98" width="17.28" height="17.28"/>
  <path class="cls-17" d="M705.35,361.62c0-2.54,2.08-4.62,4.62-4.62s4.62,2.08,4.62,4.62-2.08,4.63-4.62,4.63-4.62-2.08-4.62-4.63"/>
  <path class="cls-4" d="M705.35,361.62c0-2.54,2.08-4.62,4.62-4.62s4.62,2.08,4.62,4.62-2.08,4.63-4.62,4.63-4.62-2.08-4.62-4.63"/>
  <rect class="cls-21" x="701.33" y="370.26" width="17.28" height="17.28"/>
  <path class="cls-18" d="M705.35,378.9c0-2.54,2.08-4.62,4.62-4.62s4.62,2.08,4.62,4.62-2.08,4.63-4.62,4.63-4.62-2.08-4.62-4.63"/>
  <path class="cls-9" d="M705.35,378.9c0-2.54,2.08-4.62,4.62-4.62s4.62,2.08,4.62,4.62-2.08,4.63-4.62,4.63-4.62-2.08-4.62-4.63"/>
  <text class="cls-24" transform="translate(724.09 243.89)"><tspan x="0" y="0">1.2</tspan></text>
  <text class="cls-24" transform="translate(724.09 261.17)"><tspan x="0" y="0">1.4</tspan></text>
  <text class="cls-24" transform="translate(724.09 278.45)"><tspan x="0" y="0">2.4</tspan></text>
  <text class="cls-24" transform="translate(724.09 295.73)"><tspan x="0" y="0">3.2</tspan></text>
  <text class="cls-24" transform="translate(724.09 313.01)"><tspan x="0" y="0">3.3</tspan></text>
  <text class="cls-24" transform="translate(724.09 330.29)"><tspan x="0" y="0">3.4</tspan></text>
  <text class="cls-24" transform="translate(724.09 347.57)"><tspan x="0" y="0">4.2</tspan></text>
  <text class="cls-24" transform="translate(724.09 364.85)"><tspan x="0" y="0">4.N</tspan></text>
  <text class="cls-24" transform="translate(724.09 382.13)"><tspan x="0" y="0">NED</tspan></text>
  <text class="cls-27" transform="translate(59.08 14.81)"><tspan x="0" y="0">major pathologist catego</tspan><tspan class="cls-29" x="141.64" y="0">r</tspan><tspan x="146.15" y="0">ization</tspan></text>
</svg>