<?xml version="1.0" encoding="UTF-8"?>
<svg id="Layer_1" data-name="Layer 1" xmlns="http://www.w3.org/2000/svg" version="1.1" xmlns:xlink="http://www.w3.org/1999/xlink" viewBox="0 0 504 504">
  <defs>
    <style>
      .cls-1 {
        letter-spacing: -.05em;
      }

      .cls-2, .cls-3, .cls-4, .cls-5, .cls-6, .cls-7, .cls-8, .cls-9, .cls-10 {
        fill: none;
      }

      .cls-2, .cls-4, .cls-5, .cls-6, .cls-7, .cls-8, .cls-9, .cls-10 {
        stroke-linejoin: round;
      }

      .cls-2, .cls-5, .cls-7 {
        stroke-width: 1.07px;
      }

      .cls-2, .cls-8 {
        stroke: #000;
      }

      .cls-11 {
        letter-spacing: -.05em;
      }

      .cls-12, .cls-13, .cls-14, .cls-15 {
        fill: #000;
      }

      .cls-12, .cls-16, .cls-17, .cls-3, .cls-18, .cls-19, .cls-20 {
        stroke-width: 0px;
      }

      .cls-12, .cls-16, .cls-17, .cls-18, .cls-20 {
        opacity: .5;
      }

      .cls-13, .cls-14, .cls-21, .cls-15 {
        font-family: ArialMT, Arial;
      }

      .cls-13, .cls-21 {
        font-size: 9px;
      }

      .cls-16 {
        fill: #f8766d;
      }

      .cls-17 {
        fill: #c77cff;
      }

      .cls-22 {
        letter-spacing: -.05em;
      }

      .cls-4 {
        stroke: #f8766d;
      }

      .cls-4, .cls-6, .cls-7, .cls-8, .cls-9, .cls-10 {
        stroke-linecap: round;
      }

      .cls-4, .cls-6, .cls-8, .cls-9, .cls-10 {
        stroke-width: .71px;
      }

      .cls-23 {
        clip-path: url(#clippath-1);
      }

      .cls-5 {
        stroke: #333;
      }

      .cls-24 {
        letter-spacing: -.05em;
      }

      .cls-6 {
        stroke: #00bfc4;
      }

      .cls-25 {
        letter-spacing: 0em;
      }

      .cls-26 {
        clip-path: url(#clippath);
      }

      .cls-18 {
        fill: #7cae00;
      }

      .cls-14 {
        font-size: 11px;
      }

      .cls-21 {
        fill: #4d4d4d;
      }

      .cls-19 {
        fill: #fff;
      }

      .cls-7 {
        stroke: #fff;
      }

      .cls-9 {
        stroke: #7cae00;
      }

      .cls-10 {
        stroke: #c77cff;
      }

      .cls-20 {
        fill: #00bfc4;
      }

      .cls-15 {
        font-size: 13px;
      }
    </style>
    <clipPath id="clippath">
      <rect class="cls-3" y="95.83" width="504" height="312.34"/>
    </clipPath>
    <clipPath id="clippath-1">
      <rect class="cls-3" x="30.52" y="118.97" width="288.79" height="256.78"/>
    </clipPath>
  </defs>
  <g class="cls-26">
    <rect class="cls-19" y="95.83" width="504" height="312.34"/>
    <rect class="cls-7" y="95.83" width="504" height="312.34"/>
  </g>
  <g class="cls-23">
    <rect class="cls-19" x="30.52" y="118.97" width="288.79" height="256.78"/>
    <path class="cls-16" d="M221.74,351.96c0-4.38,3.59-7.97,7.97-7.97s7.96,3.59,7.96,7.97-3.59,7.96-7.96,7.96-7.97-3.59-7.97-7.96"/>
    <path class="cls-16" d="M186.39,228.75c0-4.83,3.95-8.78,8.78-8.78s8.78,3.95,8.78,8.78-3.95,8.78-8.78,8.78-8.78-3.95-8.78-8.78"/>
    <path class="cls-16" d="M261.37,356.68c0-5.04,4.12-9.16,9.16-9.16s9.16,4.12,9.16,9.16-4.13,9.16-9.16,9.16-9.16-4.12-9.16-9.16"/>
    <path class="cls-16" d="M232.59,221.94c0-5.55,4.54-10.09,10.08-10.09s10.09,4.54,10.09,10.09-4.54,10.08-10.09,10.08-10.08-4.54-10.08-10.08"/>
    <path class="cls-18" d="M264.18,354.34c0-5.39,4.42-9.81,9.81-9.81s9.81,4.42,9.81,9.81-4.41,9.81-9.81,9.81-9.81-4.41-9.81-9.81"/>
    <path class="cls-18" d="M229.8,200.35c0-5.58,4.57-10.14,10.15-10.14s10.14,4.56,10.14,10.14-4.57,10.14-10.14,10.14-10.15-4.56-10.15-10.14"/>
    <path class="cls-18" d="M296.05,130.64c0-5.58,4.56-10.14,10.14-10.14s10.14,4.56,10.14,10.14-4.56,10.14-10.14,10.14-10.14-4.56-10.14-10.14"/>
    <path class="cls-16" d="M284.72,335.83c0-4.3,3.51-7.82,7.81-7.82s7.82,3.52,7.82,7.82-3.52,7.81-7.82,7.81-7.81-3.51-7.81-7.81"/>
    <path class="cls-16" d="M74.86,266.98c0-4.76,3.89-8.65,8.65-8.65s8.65,3.89,8.65,8.65-3.89,8.65-8.65,8.65-8.65-3.89-8.65-8.65"/>
    <path class="cls-18" d="M97.63,262.67c0-5.75,4.71-10.46,10.47-10.46s10.46,4.71,10.46,10.46-4.71,10.46-10.46,10.46-10.47-4.71-10.47-10.46"/>
    <path class="cls-18" d="M256.42,345.93c0-6.07,4.96-11.03,11.03-11.03s11.02,4.96,11.02,11.03-4.96,11.02-11.02,11.02-11.03-4.96-11.03-11.02"/>
    <path class="cls-18" d="M41.7,306.49c0-4.97,4.06-9.04,9.03-9.04s9.04,4.07,9.04,9.04-4.07,9.03-9.04,9.03-9.03-4.06-9.03-9.03"/>
    <path class="cls-18" d="M150.85,300.03c0-3.35,2.74-6.09,6.1-6.09s6.09,2.74,6.09,6.09-2.74,6.1-6.09,6.1-6.1-2.74-6.1-6.1"/>
    <path class="cls-16" d="M92.65,247.25c0-4.38,3.58-7.96,7.96-7.96s7.96,3.58,7.96,7.96-3.58,7.96-7.96,7.96-7.96-3.58-7.96-7.96"/>
    <path class="cls-20" d="M230.68,241.55c0-3.86,3.16-7.02,7.02-7.02s7.03,3.16,7.03,7.02-3.16,7.02-7.03,7.02-7.02-3.16-7.02-7.02"/>
    <path class="cls-16" d="M256.85,220.64c0-5.87,4.8-10.68,10.67-10.68s10.67,4.81,10.67,10.68-4.8,10.67-10.67,10.67-10.67-4.8-10.67-10.67"/>
    <path class="cls-18" d="M131.35,251.69c0-4.09,3.34-7.43,7.43-7.43s7.43,3.34,7.43,7.43-3.34,7.43-7.43,7.43-7.43-3.34-7.43-7.43"/>
    <path class="cls-18" d="M148.42,249.65c0-2.72,2.23-4.94,4.94-4.94s4.94,2.22,4.94,4.94-2.22,4.93-4.94,4.93-4.94-2.22-4.94-4.93"/>
    <path class="cls-18" d="M217.49,221.82c0-5.3,4.33-9.64,9.63-9.64s9.64,4.34,9.64,9.64-4.34,9.63-9.64,9.63-9.63-4.33-9.63-9.63"/>
    <path class="cls-16" d="M226.23,233.26c0-6.03,4.94-10.97,10.98-10.97s10.97,4.94,10.97,10.97-4.94,10.98-10.97,10.98-10.98-4.94-10.98-10.98"/>
    <path class="cls-18" d="M64.48,282.3c0-3.61,2.96-6.58,6.58-6.58s6.58,2.97,6.58,6.58-2.96,6.59-6.58,6.59-6.58-2.97-6.58-6.59"/>
    <path class="cls-18" d="M261.91,327.06c0-1.32,1.07-2.4,2.39-2.4s2.4,1.08,2.4,2.4-1.08,2.4-2.4,2.4-2.39-1.08-2.39-2.4"/>
    <path class="cls-18" d="M85.94,265.68c0-2.39,1.96-4.35,4.35-4.35s4.35,1.96,4.35,4.35-1.96,4.35-4.35,4.35-4.35-1.96-4.35-4.35"/>
    <path class="cls-18" d="M265.28,364.08c0-4.26,3.48-7.74,7.74-7.74s7.74,3.48,7.74,7.74-3.49,7.74-7.74,7.74-7.74-3.48-7.74-7.74"/>
    <path class="cls-18" d="M61.5,268.01c0-5.61,4.59-10.2,10.19-10.2s10.2,4.59,10.2,10.2-4.59,10.2-10.2,10.2-10.19-4.59-10.19-10.2"/>
    <path class="cls-16" d="M124.97,288.94c0-3.18,2.61-5.78,5.79-5.78s5.78,2.6,5.78,5.78-2.6,5.78-5.78,5.78-5.79-2.6-5.79-5.78"/>
    <path class="cls-16" d="M96.12,257.15c0-4.29,3.52-7.81,7.82-7.81s7.81,3.52,7.81,7.81-3.51,7.82-7.81,7.82-7.82-3.52-7.82-7.82"/>
    <path class="cls-17" d="M42.23,310.03c0-.78.64-1.42,1.42-1.42s1.42.64,1.42,1.42-.64,1.42-1.42,1.42-1.42-.64-1.42-1.42"/>
    <path class="cls-17" d="M52.17,304.04c0-.78.64-1.42,1.42-1.42s1.42.64,1.42,1.42-.64,1.42-1.42,1.42-1.42-.64-1.42-1.42"/>
    <path class="cls-4" d="M221.74,351.96c0-4.38,3.59-7.97,7.97-7.97s7.96,3.59,7.96,7.97-3.59,7.96-7.96,7.96-7.97-3.59-7.97-7.96"/>
    <path class="cls-4" d="M186.39,228.75c0-4.83,3.95-8.78,8.78-8.78s8.78,3.95,8.78,8.78-3.95,8.78-8.78,8.78-8.78-3.95-8.78-8.78"/>
    <path class="cls-4" d="M261.37,356.68c0-5.04,4.12-9.16,9.16-9.16s9.16,4.12,9.16,9.16-4.13,9.16-9.16,9.16-9.16-4.12-9.16-9.16"/>
    <path class="cls-4" d="M232.59,221.94c0-5.55,4.54-10.09,10.08-10.09s10.09,4.54,10.09,10.09-4.54,10.08-10.09,10.08-10.08-4.54-10.08-10.08"/>
    <path class="cls-9" d="M264.18,354.34c0-5.39,4.42-9.81,9.81-9.81s9.81,4.42,9.81,9.81-4.41,9.81-9.81,9.81-9.81-4.41-9.81-9.81"/>
    <path class="cls-9" d="M229.8,200.35c0-5.58,4.57-10.14,10.15-10.14s10.14,4.56,10.14,10.14-4.57,10.14-10.14,10.14-10.15-4.56-10.15-10.14"/>
    <path class="cls-9" d="M296.05,130.64c0-5.58,4.56-10.14,10.14-10.14s10.14,4.56,10.14,10.14-4.56,10.14-10.14,10.14-10.14-4.56-10.14-10.14"/>
    <path class="cls-4" d="M284.72,335.83c0-4.3,3.51-7.82,7.81-7.82s7.82,3.52,7.82,7.82-3.52,7.81-7.82,7.81-7.81-3.51-7.81-7.81"/>
    <path class="cls-4" d="M74.86,266.98c0-4.76,3.89-8.65,8.65-8.65s8.65,3.89,8.65,8.65-3.89,8.65-8.65,8.65-8.65-3.89-8.65-8.65"/>
    <path class="cls-9" d="M97.63,262.67c0-5.75,4.71-10.46,10.47-10.46s10.46,4.71,10.46,10.46-4.71,10.46-10.46,10.46-10.47-4.71-10.47-10.46"/>
    <path class="cls-9" d="M256.42,345.93c0-6.07,4.96-11.03,11.03-11.03s11.02,4.96,11.02,11.03-4.96,11.02-11.02,11.02-11.03-4.96-11.03-11.02"/>
    <path class="cls-9" d="M41.7,306.49c0-4.97,4.06-9.04,9.03-9.04s9.04,4.07,9.04,9.04-4.07,9.03-9.04,9.03-9.03-4.06-9.03-9.03"/>
    <path class="cls-9" d="M150.85,300.03c0-3.35,2.74-6.09,6.1-6.09s6.09,2.74,6.09,6.09-2.74,6.1-6.09,6.1-6.1-2.74-6.1-6.1"/>
    <path class="cls-4" d="M92.65,247.25c0-4.38,3.58-7.96,7.96-7.96s7.96,3.58,7.96,7.96-3.58,7.96-7.96,7.96-7.96-3.58-7.96-7.96"/>
    <path class="cls-6" d="M230.68,241.55c0-3.86,3.16-7.02,7.02-7.02s7.03,3.16,7.03,7.02-3.16,7.02-7.03,7.02-7.02-3.16-7.02-7.02"/>
    <path class="cls-4" d="M256.85,220.64c0-5.87,4.8-10.68,10.67-10.68s10.67,4.81,10.67,10.68-4.8,10.67-10.67,10.67-10.67-4.8-10.67-10.67"/>
    <path class="cls-9" d="M131.35,251.69c0-4.09,3.34-7.43,7.43-7.43s7.43,3.34,7.43,7.43-3.34,7.43-7.43,7.43-7.43-3.34-7.43-7.43"/>
    <path class="cls-9" d="M148.42,249.65c0-2.72,2.23-4.94,4.94-4.94s4.94,2.22,4.94,4.94-2.22,4.93-4.94,4.93-4.94-2.22-4.94-4.93"/>
    <path class="cls-9" d="M217.49,221.82c0-5.3,4.33-9.64,9.63-9.64s9.64,4.34,9.64,9.64-4.34,9.63-9.64,9.63-9.63-4.33-9.63-9.63"/>
    <path class="cls-4" d="M226.23,233.26c0-6.03,4.94-10.97,10.98-10.97s10.97,4.94,10.97,10.97-4.94,10.98-10.97,10.98-10.98-4.94-10.98-10.98"/>
    <path class="cls-9" d="M64.48,282.3c0-3.61,2.96-6.58,6.58-6.58s6.58,2.97,6.58,6.58-2.96,6.59-6.58,6.59-6.58-2.97-6.58-6.59"/>
    <path class="cls-9" d="M261.91,327.06c0-1.32,1.07-2.4,2.39-2.4s2.4,1.08,2.4,2.4-1.08,2.4-2.4,2.4-2.39-1.08-2.39-2.4"/>
    <path class="cls-9" d="M85.94,265.68c0-2.39,1.96-4.35,4.35-4.35s4.35,1.96,4.35,4.35-1.96,4.35-4.35,4.35-4.35-1.96-4.35-4.35"/>
    <path class="cls-9" d="M265.28,364.08c0-4.26,3.48-7.74,7.74-7.74s7.74,3.48,7.74,7.74-3.49,7.74-7.74,7.74-7.74-3.48-7.74-7.74"/>
    <path class="cls-9" d="M61.5,268.01c0-5.61,4.59-10.2,10.19-10.2s10.2,4.59,10.2,10.2-4.59,10.2-10.2,10.2-10.19-4.59-10.19-10.2"/>
    <path class="cls-4" d="M124.97,288.94c0-3.18,2.61-5.78,5.79-5.78s5.78,2.6,5.78,5.78-2.6,5.78-5.78,5.78-5.79-2.6-5.79-5.78"/>
    <path class="cls-4" d="M96.12,257.15c0-4.29,3.52-7.81,7.82-7.81s7.81,3.52,7.81,7.81-3.51,7.82-7.81,7.82-7.82-3.52-7.82-7.82"/>
    <path class="cls-10" d="M42.23,310.03c0-.78.64-1.42,1.42-1.42s1.42.64,1.42,1.42-.64,1.42-1.42,1.42-1.42-.64-1.42-1.42"/>
    <path class="cls-10" d="M52.17,304.04c0-.78.64-1.42,1.42-1.42s1.42.64,1.42,1.42-.64,1.42-1.42,1.42-1.42-.64-1.42-1.42"/>
  </g>
  <line class="cls-2" x1="30.52" y1="375.75" x2="30.52" y2="118.97"/>
  <text class="cls-21" transform="translate(15.33 364.36)"><tspan x="0" y="0">−2</tspan></text>
  <text class="cls-21" transform="translate(20.59 278.95)"><tspan x="0" y="0">0</tspan></text>
  <text class="cls-21" transform="translate(20.59 193.53)"><tspan x="0" y="0">2</tspan></text>
  <line class="cls-5" x1="27.78" y1="361.13" x2="30.52" y2="361.13"/>
  <line class="cls-5" x1="27.78" y1="275.71" x2="30.52" y2="275.71"/>
  <line class="cls-5" x1="27.78" y1="190.3" x2="30.52" y2="190.3"/>
  <line class="cls-2" x1="30.52" y1="375.75" x2="319.32" y2="375.75"/>
  <line class="cls-5" x1="93.27" y1="378.49" x2="93.27" y2="375.75"/>
  <line class="cls-5" x1="178.69" y1="378.49" x2="178.69" y2="375.75"/>
  <line class="cls-5" x1="264.11" y1="378.49" x2="264.11" y2="375.75"/>
  <text class="cls-21" transform="translate(88.14 387.14)"><tspan x="0" y="0">−2</tspan></text>
  <text class="cls-21" transform="translate(176.19 387.14)"><tspan x="0" y="0">0</tspan></text>
  <text class="cls-21" transform="translate(261.61 387.14)"><tspan x="0" y="0">2</tspan></text>
  <text class="cls-14" transform="translate(172.17 400.79)"><tspan x="0" y="0">x</tspan></text>
  <text class="cls-14" transform="translate(13.38 250.11) rotate(-90)"><tspan x="0" y="0">y</tspan></text>
  <rect class="cls-19" x="330.28" y="147.83" width="86.75" height="91.17"/>
  <text class="cls-14" transform="translate(335.76 162.94)"><tspan x="0" y="0">(150 − aod + 1)</tspan></text>
  <rect class="cls-19" x="335.76" y="170.16" width="25.12" height="17.28"/>
  <path class="cls-12" d="M342.12,178.8c0-3.41,2.79-6.2,6.19-6.2s6.2,2.79,6.2,6.2-2.79,6.2-6.2,6.2-6.19-2.79-6.19-6.2"/>
  <path class="cls-8" d="M342.12,178.8c0-3.41,2.79-6.2,6.19-6.2s6.2,2.79,6.2,6.2-2.79,6.2-6.2,6.2-6.19-2.79-6.19-6.2"/>
  <rect class="cls-19" x="335.76" y="187.43" width="25.12" height="20.97"/>
  <path class="cls-12" d="M340.07,197.92c0-4.53,3.71-8.25,8.24-8.25s8.25,3.72,8.25,8.25-3.71,8.25-8.25,8.25-8.24-3.71-8.24-8.25"/>
  <path class="cls-8" d="M340.07,197.92c0-4.53,3.71-8.25,8.24-8.25s8.25,3.72,8.25,8.25-3.71,8.25-8.25,8.25-8.24-3.71-8.24-8.25"/>
  <rect class="cls-19" x="335.76" y="208.4" width="25.12" height="25.12"/>
  <path class="cls-12" d="M338.51,220.96c0-5.39,4.41-9.81,9.8-9.81s9.81,4.42,9.81,9.81-4.41,9.81-9.81,9.81-9.8-4.41-9.8-9.81"/>
  <path class="cls-8" d="M338.51,220.96c0-5.39,4.41-9.81,9.8-9.81s9.81,4.42,9.81,9.81-4.41,9.81-9.81,9.81-9.8-4.41-9.8-9.81"/>
  <text class="cls-13" transform="translate(366.35 182.03)"><tspan x="0" y="0">25</tspan></text>
  <text class="cls-13" transform="translate(366.35 201.15)"><tspan x="0" y="0">50</tspan></text>
  <text class="cls-13" transform="translate(366.35 224.19)"><tspan x="0" y="0">75</tspan></text>
  <rect class="cls-19" x="330.28" y="249.96" width="168.24" height="96.93"/>
  <text class="cls-14" transform="translate(335.76 265.07)"><tspan x="0" y="0">resultant_geno</tspan></text>
  <rect class="cls-19" x="335.76" y="272.29" width="17.28" height="17.28"/>
  <path class="cls-16" d="M342.44,280.93c0-1.08.88-1.96,1.96-1.96s1.95.88,1.95,1.96-.88,1.95-1.95,1.95-1.96-.88-1.96-1.95"/>
  <path class="cls-4" d="M342.44,280.93c0-1.08.88-1.96,1.96-1.96s1.95.88,1.95,1.96-.88,1.95-1.95,1.95-1.96-.88-1.96-1.95"/>
  <rect class="cls-19" x="335.76" y="289.57" width="17.28" height="17.28"/>
  <path class="cls-18" d="M342.44,298.21c0-1.08.88-1.96,1.96-1.96s1.95.88,1.95,1.96-.88,1.95-1.95,1.95-1.96-.88-1.96-1.95"/>
  <path class="cls-9" d="M342.44,298.21c0-1.08.88-1.96,1.96-1.96s1.95.88,1.95,1.96-.88,1.95-1.95,1.95-1.96-.88-1.96-1.95"/>
  <rect class="cls-19" x="335.76" y="306.85" width="17.28" height="17.28"/>
  <path class="cls-20" d="M342.44,315.49c0-1.08.88-1.96,1.96-1.96s1.95.88,1.95,1.96-.88,1.95-1.95,1.95-1.96-.88-1.96-1.95"/>
  <path class="cls-6" d="M342.44,315.49c0-1.08.88-1.96,1.96-1.96s1.95.88,1.95,1.96-.88,1.95-1.95,1.95-1.96-.88-1.96-1.95"/>
  <rect class="cls-19" x="335.76" y="324.13" width="17.28" height="17.28"/>
  <path class="cls-17" d="M342.44,332.77c0-1.08.88-1.96,1.96-1.96s1.95.88,1.95,1.96-.88,1.95-1.95,1.95-1.96-.88-1.96-1.95"/>
  <path class="cls-10" d="M342.44,332.77c0-1.08.88-1.96,1.96-1.96s1.95.88,1.95,1.96-.88,1.95-1.95,1.95-1.96-.88-1.96-1.95"/>
  <text class="cls-13" transform="translate(358.51 284.16)"><tspan x="0" y="0">nf1 </tspan><tspan class="cls-11" x="15.01" y="0">K</tspan><tspan x="20.56" y="0">O; pten </tspan><tspan class="cls-11" x="52.58" y="0">K</tspan><tspan x="58.14" y="0">O; ink </tspan><tspan class="cls-22" x="84.14" y="0">K</tspan><tspan class="cls-25" x="89.71" y="0">O; atrx </tspan><tspan class="cls-11" x="119.21" y="0">K</tspan><tspan x="124.76" y="0">O</tspan></text>
  <text class="cls-13" transform="translate(358.51 301.44)"><tspan x="0" y="0">nf1 </tspan><tspan class="cls-11" x="15.01" y="0">K</tspan><tspan x="20.56" y="0">O; pten </tspan><tspan class="cls-11" x="52.58" y="0">K</tspan><tspan x="58.14" y="0">O; ink </tspan><tspan class="cls-22" x="84.14" y="0">K</tspan><tspan class="cls-25" x="89.71" y="0">O; atrx wt</tspan></text>
  <text class="cls-13" transform="translate(358.51 318.72)"><tspan x="0" y="0">nf1 wt; pten </tspan><tspan class="cls-24" x="49.03" y="0">K</tspan><tspan class="cls-25" x="54.58" y="0">O; ink </tspan><tspan class="cls-11" x="80.59" y="0">K</tspan><tspan class="cls-25" x="86.14" y="0">O; atrx </tspan><tspan class="cls-1" x="115.65" y="0">K</tspan><tspan x="121.21" y="0">O</tspan></text>
  <text class="cls-13" transform="translate(358.51 336)"><tspan x="0" y="0">nf1 wt; pten wt; ink wt; atrx wt</tspan></text>
  <text class="cls-15" transform="translate(30.52 110.64)"><tspan x="0" y="0">resultant genotype</tspan></text>
</svg>