<?xml version="1.0" encoding="UTF-8"?>
<svg id="Layer_1" data-name="Layer 1" xmlns="http://www.w3.org/2000/svg" version="1.1" xmlns:xlink="http://www.w3.org/1999/xlink" viewBox="0 0 792 612">
  <defs>
    <style>
      .cls-1 {
        fill: #00be70;
      }

      .cls-1, .cls-2, .cls-3, .cls-4, .cls-5, .cls-6, .cls-7, .cls-8, .cls-9, .cls-10, .cls-11, .cls-12, .cls-13, .cls-14, .cls-15 {
        stroke-width: 0px;
      }

      .cls-1, .cls-2, .cls-3, .cls-4, .cls-5, .cls-6, .cls-7, .cls-8, .cls-10, .cls-11, .cls-12, .cls-14, .cls-15 {
        opacity: .5;
      }

      .cls-16 {
        stroke: #be9c00;
      }

      .cls-16, .cls-17, .cls-18, .cls-19, .cls-20, .cls-21, .cls-22, .cls-23, .cls-9, .cls-24, .cls-25, .cls-26, .cls-27, .cls-28, .cls-29, .cls-30, .cls-31 {
        fill: none;
      }

      .cls-16, .cls-17, .cls-18, .cls-19, .cls-20, .cls-21, .cls-22, .cls-23, .cls-24, .cls-25, .cls-26, .cls-27, .cls-28, .cls-29, .cls-30, .cls-31 {
        stroke-linejoin: round;
      }

      .cls-16, .cls-17, .cls-18, .cls-20, .cls-21, .cls-22, .cls-23, .cls-24, .cls-25, .cls-26, .cls-28, .cls-29, .cls-30 {
        stroke-width: .71px;
      }

      .cls-16, .cls-17, .cls-18, .cls-20, .cls-21, .cls-22, .cls-23, .cls-24, .cls-25, .cls-26, .cls-28, .cls-29, .cls-30, .cls-31 {
        stroke-linecap: round;
      }

      .cls-17 {
        stroke: #00c1ab;
      }

      .cls-2 {
        fill: #f962dd;
      }

      .cls-3 {
        fill: #be9c00;
      }

      .cls-18 {
        stroke: #00acfc;
      }

      .cls-4 {
        fill: #8cab00;
      }

      .cls-19 {
        stroke: #000;
      }

      .cls-19, .cls-27, .cls-31 {
        stroke-width: 1.07px;
      }

      .cls-5 {
        fill: #ff65ac;
      }

      .cls-32, .cls-33, .cls-34, .cls-35 {
        font-family: ArialMT, Arial;
      }

      .cls-32, .cls-33, .cls-35 {
        fill: #000;
      }

      .cls-32, .cls-34 {
        font-size: 9px;
      }

      .cls-6 {
        fill: #f8766d;
      }

      .cls-7 {
        fill: #00c1ab;
      }

      .cls-20 {
        stroke: #00bbda;
      }

      .cls-21 {
        stroke: #24b700;
      }

      .cls-22 {
        stroke: #8b93ff;
      }

      .cls-8 {
        fill: #8b93ff;
      }

      .cls-23 {
        stroke: #f962dd;
      }

      .cls-24 {
        stroke: #f8766d;
      }

      .cls-10 {
        fill: #d575fe;
      }

      .cls-36 {
        clip-path: url(#clippath-1);
      }

      .cls-25 {
        stroke: #ff65ac;
      }

      .cls-26 {
        stroke: #00be70;
      }

      .cls-27 {
        stroke: #333;
      }

      .cls-11 {
        fill: #00acfc;
      }

      .cls-37 {
        clip-path: url(#clippath);
      }

      .cls-12 {
        fill: #00bbda;
      }

      .cls-28 {
        stroke: #e18a00;
      }

      .cls-33 {
        font-size: 11px;
      }

      .cls-29 {
        stroke: #8cab00;
      }

      .cls-30 {
        stroke: #d575fe;
      }

      .cls-34 {
        fill: #4d4d4d;
      }

      .cls-13 {
        fill: #fff;
      }

      .cls-31 {
        stroke: #fff;
      }

      .cls-14 {
        fill: #24b700;
      }

      .cls-15 {
        fill: #e18a00;
      }

      .cls-35 {
        font-size: 13px;
      }
    </style>
    <clipPath id="clippath">
      <rect class="cls-9" x="9.13" width="773.73" height="612"/>
    </clipPath>
    <clipPath id="clippath-1">
      <rect class="cls-9" x="39.66" y="23.13" width="625.81" height="556.45"/>
    </clipPath>
  </defs>
  <g class="cls-37">
    <rect class="cls-13" x="9.13" width="773.73" height="612"/>
    <rect class="cls-31" x="9.13" width="773.73" height="612"/>
  </g>
  <g class="cls-36">
    <rect class="cls-13" x="39.66" y="23.13" width="625.81" height="556.45"/>
    <path class="cls-6" d="M466.66,528.02c0-2.54,2.08-4.62,4.62-4.62s4.63,2.08,4.63,4.62-2.08,4.62-4.63,4.62-4.62-2.08-4.62-4.62"/>
    <path class="cls-3" d="M391.82,261.03c0-2.54,2.08-4.62,4.62-4.62s4.62,2.08,4.62,4.62-2.08,4.63-4.62,4.63-4.62-2.08-4.62-4.63"/>
    <path class="cls-6" d="M555.12,538.26c0-2.54,2.08-4.62,4.62-4.62s4.62,2.08,4.62,4.62-2.08,4.62-4.62,4.62-4.62-2.08-4.62-4.62"/>
    <path class="cls-4" d="M494.76,246.27c0-2.55,2.08-4.63,4.62-4.63s4.63,2.08,4.63,4.63-2.08,4.62-4.63,4.62-4.62-2.08-4.62-4.62"/>
    <path class="cls-1" d="M562.63,533.19c0-2.54,2.08-4.62,4.62-4.62s4.63,2.08,4.63,4.62-2.08,4.62-4.63,4.62-4.62-2.08-4.62-4.62"/>
    <path class="cls-7" d="M488.85,199.49c0-2.54,2.08-4.62,4.62-4.62s4.62,2.08,4.62,4.62-2.08,4.63-4.62,4.63-4.62-2.08-4.62-4.63"/>
    <path class="cls-7" d="M632.4,48.43c0-2.54,2.08-4.62,4.62-4.62s4.62,2.08,4.62,4.62-2.08,4.62-4.62,4.62-4.62-2.08-4.62-4.62"/>
    <path class="cls-15" d="M602.8,493.07c0-2.54,2.08-4.62,4.62-4.62s4.63,2.08,4.63,4.62-2.08,4.62-4.63,4.62-4.62-2.08-4.62-4.62"/>
    <path class="cls-14" d="M149.85,343.87c0-2.54,2.08-4.62,4.62-4.62s4.63,2.08,4.63,4.62-2.08,4.63-4.63,4.63-4.62-2.08-4.62-4.63"/>
    <path class="cls-12" d="M203.14,334.54c0-2.54,2.08-4.62,4.62-4.62s4.62,2.08,4.62,4.62-2.08,4.62-4.62,4.62-4.62-2.08-4.62-4.62"/>
    <path class="cls-1" d="M548.45,514.96c0-2.55,2.08-4.63,4.62-4.63s4.62,2.08,4.62,4.63-2.08,4.62-4.62,4.62-4.62-2.08-4.62-4.62"/>
    <path class="cls-12" d="M78.83,429.48c0-2.54,2.08-4.62,4.62-4.62s4.63,2.08,4.63,4.62-2.08,4.63-4.63,4.63-4.62-2.08-4.62-4.63"/>
    <path class="cls-12" d="M308.99,415.51c0-2.55,2.08-4.63,4.63-4.63s4.62,2.08,4.62,4.63-2.08,4.62-4.62,4.62-4.63-2.08-4.63-4.62"/>
    <path class="cls-14" d="M186.91,301.12c0-2.55,2.08-4.63,4.62-4.63s4.62,2.08,4.62,4.63-2.08,4.62-4.62,4.62-4.62-2.08-4.62-4.62"/>
    <path class="cls-2" d="M483.99,288.77c0-2.54,2.08-4.62,4.62-4.62s4.63,2.08,4.63,4.62-2.08,4.63-4.63,4.63-4.62-2.08-4.62-4.63"/>
    <path class="cls-4" d="M548.61,243.45c0-2.54,2.08-4.62,4.62-4.62s4.62,2.08,4.62,4.62-2.08,4.62-4.62,4.62-4.62-2.08-4.62-4.62"/>
    <path class="cls-11" d="M269.63,310.75c0-2.55,2.08-4.63,4.62-4.63s4.62,2.08,4.62,4.63-2.08,4.62-4.62,4.62-4.62-2.08-4.62-4.62"/>
    <path class="cls-8" d="M301.22,306.32c0-2.55,2.08-4.63,4.63-4.63s4.62,2.08,4.62,4.63-2.08,4.62-4.62,4.62-4.63-2.08-4.63-4.62"/>
    <path class="cls-7" d="M461.07,246.01c0-2.54,2.08-4.62,4.62-4.62s4.62,2.08,4.62,4.62-2.08,4.62-4.62,4.62-4.62-2.08-4.62-4.62"/>
    <path class="cls-4" d="M482.91,270.81c0-2.54,2.08-4.62,4.63-4.62s4.62,2.08,4.62,4.62-2.08,4.62-4.62,4.62-4.63-2.08-4.63-4.62"/>
    <path class="cls-10" d="M122.88,377.09c0-2.55,2.08-4.63,4.62-4.63s4.63,2.08,4.63,4.63-2.08,4.62-4.63,4.62-4.62-2.08-4.62-4.62"/>
    <path class="cls-1" d="M541.63,474.07c0-2.55,2.08-4.63,4.62-4.63s4.63,2.08,4.63,4.63-2.08,4.62-4.63,4.62-4.62-2.08-4.62-4.62"/>
    <path class="cls-11" d="M164.55,341.06c0-2.54,2.08-4.62,4.62-4.62s4.62,2.08,4.62,4.62-2.08,4.62-4.62,4.62-4.62-2.08-4.62-4.62"/>
    <path class="cls-1" d="M560.51,554.29c0-2.54,2.08-4.62,4.63-4.62s4.62,2.08,4.62,4.62-2.08,4.62-4.62,4.62-4.63-2.08-4.63-4.62"/>
    <path class="cls-12" d="M124.25,346.11c0-2.55,2.08-4.63,4.62-4.63s4.63,2.08,4.63,4.63-2.08,4.62-4.63,4.62-4.62-2.08-4.62-4.62"/>
    <path class="cls-14" d="M252.24,391.46c0-2.54,2.08-4.62,4.62-4.62s4.62,2.08,4.62,4.62-2.08,4.63-4.62,4.63-4.62-2.08-4.62-4.63"/>
    <path class="cls-14" d="M194.12,322.58c0-2.54,2.08-4.62,4.63-4.62s4.62,2.08,4.62,4.62-2.08,4.63-4.62,4.63-4.63-2.08-4.63-4.63"/>
    <path class="cls-5" d="M63.48,437.16c0-2.54,2.08-4.62,4.62-4.62s4.62,2.08,4.62,4.62-2.08,4.62-4.62,4.62-4.62-2.08-4.62-4.62"/>
    <path class="cls-5" d="M85.02,424.18c0-2.54,2.08-4.62,4.63-4.62s4.62,2.08,4.62,4.62-2.08,4.63-4.62,4.63-4.63-2.08-4.63-4.63"/>
    <path class="cls-24" d="M466.66,528.02c0-2.54,2.08-4.62,4.62-4.62s4.63,2.08,4.63,4.62-2.08,4.62-4.63,4.62-4.62-2.08-4.62-4.62"/>
    <path class="cls-16" d="M391.82,261.03c0-2.54,2.08-4.62,4.62-4.62s4.62,2.08,4.62,4.62-2.08,4.63-4.62,4.63-4.62-2.08-4.62-4.63"/>
    <path class="cls-24" d="M555.12,538.26c0-2.54,2.08-4.62,4.62-4.62s4.62,2.08,4.62,4.62-2.08,4.62-4.62,4.62-4.62-2.08-4.62-4.62"/>
    <path class="cls-29" d="M494.76,246.27c0-2.55,2.08-4.63,4.62-4.63s4.63,2.08,4.63,4.63-2.08,4.62-4.63,4.62-4.62-2.08-4.62-4.62"/>
    <path class="cls-26" d="M562.63,533.19c0-2.54,2.08-4.62,4.62-4.62s4.63,2.08,4.63,4.62-2.08,4.62-4.63,4.62-4.62-2.08-4.62-4.62"/>
    <path class="cls-17" d="M488.85,199.49c0-2.54,2.08-4.62,4.62-4.62s4.62,2.08,4.62,4.62-2.08,4.63-4.62,4.63-4.62-2.08-4.62-4.63"/>
    <path class="cls-17" d="M632.4,48.43c0-2.54,2.08-4.62,4.62-4.62s4.62,2.08,4.62,4.62-2.08,4.62-4.62,4.62-4.62-2.08-4.62-4.62"/>
    <path class="cls-28" d="M602.8,493.07c0-2.54,2.08-4.62,4.62-4.62s4.63,2.08,4.63,4.62-2.08,4.62-4.63,4.62-4.62-2.08-4.62-4.62"/>
    <path class="cls-21" d="M149.85,343.87c0-2.54,2.08-4.62,4.62-4.62s4.63,2.08,4.63,4.62-2.08,4.63-4.63,4.63-4.62-2.08-4.62-4.63"/>
    <path class="cls-20" d="M203.14,334.54c0-2.54,2.08-4.62,4.62-4.62s4.62,2.08,4.62,4.62-2.08,4.62-4.62,4.62-4.62-2.08-4.62-4.62"/>
    <path class="cls-26" d="M548.45,514.96c0-2.55,2.08-4.63,4.62-4.63s4.62,2.08,4.62,4.63-2.08,4.62-4.62,4.62-4.62-2.08-4.62-4.62"/>
    <path class="cls-20" d="M78.83,429.48c0-2.54,2.08-4.62,4.62-4.62s4.63,2.08,4.63,4.62-2.08,4.63-4.63,4.63-4.62-2.08-4.62-4.63"/>
    <path class="cls-20" d="M308.99,415.51c0-2.55,2.08-4.63,4.63-4.63s4.62,2.08,4.62,4.63-2.08,4.62-4.62,4.62-4.63-2.08-4.63-4.62"/>
    <path class="cls-21" d="M186.91,301.12c0-2.55,2.08-4.63,4.62-4.63s4.62,2.08,4.62,4.63-2.08,4.62-4.62,4.62-4.62-2.08-4.62-4.62"/>
    <path class="cls-23" d="M483.99,288.77c0-2.54,2.08-4.62,4.62-4.62s4.63,2.08,4.63,4.62-2.08,4.63-4.63,4.63-4.62-2.08-4.62-4.63"/>
    <path class="cls-29" d="M548.61,243.45c0-2.54,2.08-4.62,4.62-4.62s4.62,2.08,4.62,4.62-2.08,4.62-4.62,4.62-4.62-2.08-4.62-4.62"/>
    <path class="cls-18" d="M269.63,310.75c0-2.55,2.08-4.63,4.62-4.63s4.62,2.08,4.62,4.63-2.08,4.62-4.62,4.62-4.62-2.08-4.62-4.62"/>
    <path class="cls-22" d="M301.22,306.32c0-2.55,2.08-4.63,4.63-4.63s4.62,2.08,4.62,4.63-2.08,4.62-4.62,4.62-4.63-2.08-4.63-4.62"/>
    <path class="cls-17" d="M461.07,246.01c0-2.54,2.08-4.62,4.62-4.62s4.62,2.08,4.62,4.62-2.08,4.62-4.62,4.62-4.62-2.08-4.62-4.62"/>
    <path class="cls-29" d="M482.91,270.81c0-2.54,2.08-4.62,4.63-4.62s4.62,2.08,4.62,4.62-2.08,4.62-4.62,4.62-4.63-2.08-4.63-4.62"/>
    <path class="cls-30" d="M122.88,377.09c0-2.55,2.08-4.63,4.62-4.63s4.63,2.08,4.63,4.63-2.08,4.62-4.63,4.62-4.62-2.08-4.62-4.62"/>
    <path class="cls-26" d="M541.63,474.07c0-2.55,2.08-4.63,4.62-4.63s4.63,2.08,4.63,4.63-2.08,4.62-4.63,4.62-4.62-2.08-4.62-4.62"/>
    <path class="cls-18" d="M164.55,341.06c0-2.54,2.08-4.62,4.62-4.62s4.62,2.08,4.62,4.62-2.08,4.62-4.62,4.62-4.62-2.08-4.62-4.62"/>
    <path class="cls-26" d="M560.51,554.29c0-2.54,2.08-4.62,4.63-4.62s4.62,2.08,4.62,4.62-2.08,4.62-4.62,4.62-4.63-2.08-4.63-4.62"/>
    <path class="cls-20" d="M124.25,346.11c0-2.55,2.08-4.63,4.62-4.63s4.63,2.08,4.63,4.63-2.08,4.62-4.63,4.62-4.62-2.08-4.62-4.62"/>
    <path class="cls-21" d="M252.24,391.46c0-2.54,2.08-4.62,4.62-4.62s4.62,2.08,4.62,4.62-2.08,4.63-4.62,4.63-4.62-2.08-4.62-4.63"/>
    <path class="cls-21" d="M194.12,322.58c0-2.54,2.08-4.62,4.63-4.62s4.62,2.08,4.62,4.62-2.08,4.63-4.62,4.63-4.63-2.08-4.63-4.63"/>
    <path class="cls-25" d="M63.48,437.16c0-2.54,2.08-4.62,4.62-4.62s4.62,2.08,4.62,4.62-2.08,4.62-4.62,4.62-4.62-2.08-4.62-4.62"/>
    <path class="cls-25" d="M85.02,424.18c0-2.54,2.08-4.62,4.63-4.62s4.62,2.08,4.62,4.62-2.08,4.63-4.62,4.63-4.63-2.08-4.63-4.63"/>
  </g>
  <line class="cls-19" x1="39.66" y1="579.58" x2="39.66" y2="23.14"/>
  <text class="cls-34" transform="translate(24.46 551.13)"><tspan x="0" y="0">−2</tspan></text>
  <text class="cls-34" transform="translate(29.72 366.04)"><tspan x="0" y="0">0</tspan></text>
  <text class="cls-34" transform="translate(29.72 180.94)"><tspan x="0" y="0">2</tspan></text>
  <line class="cls-27" x1="36.92" y1="547.9" x2="39.66" y2="547.9"/>
  <line class="cls-27" x1="36.92" y1="362.81" x2="39.66" y2="362.81"/>
  <line class="cls-27" x1="36.92" y1="177.71" x2="39.66" y2="177.71"/>
  <line class="cls-19" x1="39.66" y1="579.58" x2="665.47" y2="579.58"/>
  <line class="cls-27" x1="175.64" y1="582.32" x2="175.64" y2="579.58"/>
  <line class="cls-27" x1="360.74" y1="582.32" x2="360.74" y2="579.58"/>
  <line class="cls-27" x1="545.84" y1="582.32" x2="545.84" y2="579.58"/>
  <text class="cls-34" transform="translate(170.51 590.98)"><tspan x="0" y="0">−2</tspan></text>
  <text class="cls-34" transform="translate(358.24 590.98)"><tspan x="0" y="0">0</tspan></text>
  <text class="cls-34" transform="translate(543.33 590.98)"><tspan x="0" y="0">2</tspan></text>
  <text class="cls-33" transform="translate(349.81 604.63)"><tspan x="0" y="0">x</tspan></text>
  <text class="cls-33" transform="translate(22.51 304.11) rotate(-90)"><tspan x="0" y="0">y</tspan></text>
  <rect class="cls-13" x="676.43" y="175.13" width="100.96" height="252.45"/>
  <text class="cls-33" transform="translate(681.91 190.25)"><tspan x="0" y="0">tumor_grouping1</tspan></text>
  <rect class="cls-13" x="681.91" y="197.46" width="17.28" height="17.28"/>
  <path class="cls-6" d="M685.92,206.1c0-2.54,2.08-4.62,4.63-4.62s4.62,2.08,4.62,4.62-2.08,4.63-4.62,4.63-4.63-2.08-4.63-4.63"/>
  <path class="cls-24" d="M685.92,206.1c0-2.54,2.08-4.62,4.63-4.62s4.62,2.08,4.62,4.62-2.08,4.63-4.62,4.63-4.63-2.08-4.63-4.63"/>
  <rect class="cls-13" x="681.91" y="214.74" width="17.28" height="17.28"/>
  <path class="cls-15" d="M685.92,223.38c0-2.54,2.08-4.62,4.63-4.62s4.62,2.08,4.62,4.62-2.08,4.63-4.62,4.63-4.63-2.08-4.63-4.63"/>
  <path class="cls-28" d="M685.92,223.38c0-2.54,2.08-4.62,4.63-4.62s4.62,2.08,4.62,4.62-2.08,4.63-4.62,4.63-4.63-2.08-4.63-4.63"/>
  <rect class="cls-13" x="681.91" y="232.02" width="17.28" height="17.28"/>
  <path class="cls-3" d="M685.92,240.66c0-2.54,2.08-4.62,4.63-4.62s4.62,2.08,4.62,4.62-2.08,4.63-4.62,4.63-4.63-2.08-4.63-4.63"/>
  <path class="cls-16" d="M685.92,240.66c0-2.54,2.08-4.62,4.63-4.62s4.62,2.08,4.62,4.62-2.08,4.63-4.62,4.63-4.63-2.08-4.63-4.63"/>
  <rect class="cls-13" x="681.91" y="249.3" width="17.28" height="17.28"/>
  <path class="cls-4" d="M685.92,257.94c0-2.54,2.08-4.62,4.63-4.62s4.62,2.08,4.62,4.62-2.08,4.63-4.62,4.63-4.63-2.08-4.63-4.63"/>
  <path class="cls-29" d="M685.92,257.94c0-2.54,2.08-4.62,4.63-4.62s4.62,2.08,4.62,4.62-2.08,4.63-4.62,4.63-4.63-2.08-4.63-4.63"/>
  <rect class="cls-13" x="681.91" y="266.58" width="17.28" height="17.28"/>
  <path class="cls-14" d="M685.92,275.22c0-2.54,2.08-4.62,4.63-4.62s4.62,2.08,4.62,4.62-2.08,4.63-4.62,4.63-4.63-2.08-4.63-4.63"/>
  <path class="cls-21" d="M685.92,275.22c0-2.54,2.08-4.62,4.63-4.62s4.62,2.08,4.62,4.62-2.08,4.63-4.62,4.63-4.63-2.08-4.63-4.63"/>
  <rect class="cls-13" x="681.91" y="283.86" width="17.28" height="17.28"/>
  <path class="cls-1" d="M685.92,292.5c0-2.54,2.08-4.62,4.63-4.62s4.62,2.08,4.62,4.62-2.08,4.63-4.62,4.63-4.63-2.08-4.63-4.63"/>
  <path class="cls-26" d="M685.92,292.5c0-2.54,2.08-4.62,4.63-4.62s4.62,2.08,4.62,4.62-2.08,4.63-4.62,4.63-4.63-2.08-4.63-4.63"/>
  <rect class="cls-13" x="681.91" y="301.14" width="17.28" height="17.28"/>
  <path class="cls-7" d="M685.92,309.78c0-2.54,2.08-4.62,4.63-4.62s4.62,2.08,4.62,4.62-2.08,4.63-4.62,4.63-4.63-2.08-4.63-4.63"/>
  <path class="cls-17" d="M685.92,309.78c0-2.54,2.08-4.62,4.63-4.62s4.62,2.08,4.62,4.62-2.08,4.63-4.62,4.63-4.63-2.08-4.63-4.63"/>
  <rect class="cls-13" x="681.91" y="318.42" width="17.28" height="17.28"/>
  <path class="cls-12" d="M685.92,327.06c0-2.54,2.08-4.62,4.63-4.62s4.62,2.08,4.62,4.62-2.08,4.63-4.62,4.63-4.63-2.08-4.63-4.63"/>
  <path class="cls-20" d="M685.92,327.06c0-2.54,2.08-4.62,4.63-4.62s4.62,2.08,4.62,4.62-2.08,4.63-4.62,4.63-4.63-2.08-4.63-4.63"/>
  <rect class="cls-13" x="681.91" y="335.7" width="17.28" height="17.28"/>
  <path class="cls-11" d="M685.92,344.34c0-2.54,2.08-4.62,4.63-4.62s4.62,2.08,4.62,4.62-2.08,4.63-4.62,4.63-4.63-2.08-4.63-4.63"/>
  <path class="cls-18" d="M685.92,344.34c0-2.54,2.08-4.62,4.63-4.62s4.62,2.08,4.62,4.62-2.08,4.63-4.62,4.63-4.63-2.08-4.63-4.63"/>
  <rect class="cls-13" x="681.91" y="352.98" width="17.28" height="17.28"/>
  <path class="cls-8" d="M685.92,361.62c0-2.54,2.08-4.62,4.63-4.62s4.62,2.08,4.62,4.62-2.08,4.63-4.62,4.63-4.63-2.08-4.63-4.63"/>
  <path class="cls-22" d="M685.92,361.62c0-2.54,2.08-4.62,4.63-4.62s4.62,2.08,4.62,4.62-2.08,4.63-4.62,4.63-4.63-2.08-4.63-4.63"/>
  <rect class="cls-13" x="681.91" y="370.26" width="17.28" height="17.28"/>
  <path class="cls-10" d="M685.92,378.9c0-2.54,2.08-4.62,4.63-4.62s4.62,2.08,4.62,4.62-2.08,4.63-4.62,4.63-4.63-2.08-4.63-4.63"/>
  <path class="cls-30" d="M685.92,378.9c0-2.54,2.08-4.62,4.63-4.62s4.62,2.08,4.62,4.62-2.08,4.63-4.62,4.63-4.63-2.08-4.63-4.63"/>
  <rect class="cls-13" x="681.91" y="387.54" width="17.28" height="17.28"/>
  <path class="cls-2" d="M685.92,396.18c0-2.54,2.08-4.62,4.63-4.62s4.62,2.08,4.62,4.62-2.08,4.63-4.62,4.63-4.63-2.08-4.63-4.63"/>
  <path class="cls-23" d="M685.92,396.18c0-2.54,2.08-4.62,4.63-4.62s4.62,2.08,4.62,4.62-2.08,4.63-4.62,4.63-4.63-2.08-4.63-4.63"/>
  <rect class="cls-13" x="681.91" y="404.82" width="17.28" height="17.28"/>
  <path class="cls-5" d="M685.92,413.46c0-2.54,2.08-4.62,4.63-4.62s4.62,2.08,4.62,4.62-2.08,4.63-4.62,4.63-4.63-2.08-4.63-4.63"/>
  <path class="cls-25" d="M685.92,413.46c0-2.54,2.08-4.62,4.63-4.62s4.62,2.08,4.62,4.62-2.08,4.63-4.62,4.63-4.63-2.08-4.63-4.63"/>
  <text class="cls-32" transform="translate(704.67 209.33)"><tspan x="0" y="0">1.01</tspan></text>
  <text class="cls-32" transform="translate(704.67 226.61)"><tspan x="0" y="0">1.01.3</tspan></text>
  <text class="cls-32" transform="translate(704.67 243.89)"><tspan x="0" y="0">1.02</tspan></text>
  <text class="cls-32" transform="translate(704.67 261.17)"><tspan x="0" y="0">1.03</tspan></text>
  <text class="cls-32" transform="translate(704.67 278.45)"><tspan x="0" y="0">1.08</tspan></text>
  <text class="cls-32" transform="translate(704.67 295.73)"><tspan x="0" y="0">2.02</tspan></text>
  <text class="cls-32" transform="translate(704.67 313.01)"><tspan x="0" y="0">2.03</tspan></text>
  <text class="cls-32" transform="translate(704.67 330.29)"><tspan x="0" y="0">2.04</tspan></text>
  <text class="cls-32" transform="translate(704.67 347.57)"><tspan x="0" y="0">2.05</tspan></text>
  <text class="cls-32" transform="translate(704.67 364.85)"><tspan x="0" y="0">2.07</tspan></text>
  <text class="cls-32" transform="translate(704.67 382.13)"><tspan x="0" y="0">2.09</tspan></text>
  <text class="cls-32" transform="translate(704.67 399.41)"><tspan x="0" y="0">5.01</tspan></text>
  <text class="cls-32" transform="translate(704.67 416.69)"><tspan x="0" y="0">NED</tspan></text>
  <text class="cls-35" transform="translate(39.66 14.81)"><tspan x="0" y="0">first tumor grouping</tspan></text>
</svg>