<?xml version="1.0" encoding="UTF-8"?>
<svg id="Layer_1" data-name="Layer 1" xmlns="http://www.w3.org/2000/svg" version="1.1" xmlns:xlink="http://www.w3.org/1999/xlink" viewBox="0 0 504 504">
  <defs>
    <style>
      .cls-1 {
        letter-spacing: -.05em;
      }

      .cls-2 {
        stroke: #000;
      }

      .cls-2, .cls-3, .cls-4, .cls-5, .cls-6, .cls-7, .cls-8, .cls-9 {
        fill: none;
      }

      .cls-2, .cls-4, .cls-5, .cls-6, .cls-7, .cls-8, .cls-9 {
        stroke-linejoin: round;
      }

      .cls-2, .cls-5, .cls-7 {
        stroke-width: 1.07px;
      }

      .cls-10 {
        letter-spacing: -.05em;
      }

      .cls-11, .cls-12, .cls-13, .cls-14 {
        font-family: ArialMT, Arial;
      }

      .cls-11, .cls-12, .cls-14 {
        fill: #000;
      }

      .cls-11, .cls-13 {
        font-size: 9px;
      }

      .cls-15 {
        fill: #f8766d;
      }

      .cls-15, .cls-16, .cls-3, .cls-17, .cls-18, .cls-19 {
        stroke-width: 0px;
      }

      .cls-15, .cls-16, .cls-17, .cls-19 {
        opacity: .5;
      }

      .cls-16 {
        fill: #c77cff;
      }

      .cls-20 {
        letter-spacing: -.05em;
      }

      .cls-4 {
        stroke: #f8766d;
      }

      .cls-4, .cls-6, .cls-7, .cls-8, .cls-9 {
        stroke-linecap: round;
      }

      .cls-4, .cls-6, .cls-8, .cls-9 {
        stroke-width: .71px;
      }

      .cls-21 {
        clip-path: url(#clippath-1);
      }

      .cls-5 {
        stroke: #333;
      }

      .cls-22 {
        letter-spacing: -.05em;
      }

      .cls-6 {
        stroke: #00bfc4;
      }

      .cls-23 {
        letter-spacing: 0em;
      }

      .cls-24 {
        clip-path: url(#clippath);
      }

      .cls-17 {
        fill: #7cae00;
      }

      .cls-12 {
        font-size: 11px;
      }

      .cls-13 {
        fill: #4d4d4d;
      }

      .cls-18 {
        fill: #fff;
      }

      .cls-7 {
        stroke: #fff;
      }

      .cls-8 {
        stroke: #7cae00;
      }

      .cls-9 {
        stroke: #c77cff;
      }

      .cls-19 {
        fill: #00bfc4;
      }

      .cls-14 {
        font-size: 13px;
      }
    </style>
    <clipPath id="clippath">
      <rect class="cls-3" y="95.83" width="504" height="312.34"/>
    </clipPath>
    <clipPath id="clippath-1">
      <rect class="cls-3" x="30.52" y="118.97" width="288.79" height="256.78"/>
    </clipPath>
  </defs>
  <g class="cls-24">
    <rect class="cls-18" y="95.83" width="504" height="312.34"/>
    <rect class="cls-7" y="95.83" width="504" height="312.34"/>
  </g>
  <g class="cls-21">
    <rect class="cls-18" x="30.52" y="118.97" width="288.79" height="256.78"/>
    <path class="cls-15" d="M225.08,351.96c0-2.55,2.08-4.63,4.63-4.63s4.62,2.08,4.62,4.63-2.08,4.62-4.62,4.62-4.63-2.08-4.63-4.62"/>
    <path class="cls-15" d="M190.55,228.75c0-2.54,2.08-4.62,4.62-4.62s4.62,2.08,4.62,4.62-2.08,4.62-4.62,4.62-4.62-2.08-4.62-4.62"/>
    <path class="cls-15" d="M265.9,356.68c0-2.54,2.08-4.62,4.63-4.62s4.62,2.08,4.62,4.62-2.08,4.62-4.62,4.62-4.63-2.08-4.63-4.62"/>
    <path class="cls-15" d="M238.05,221.94c0-2.55,2.08-4.63,4.62-4.63s4.63,2.08,4.63,4.63-2.08,4.62-4.63,4.62-4.62-2.08-4.62-4.62"/>
    <path class="cls-17" d="M269.37,354.34c0-2.54,2.08-4.62,4.62-4.62s4.63,2.08,4.63,4.62-2.08,4.62-4.63,4.62-4.62-2.08-4.62-4.62"/>
    <path class="cls-17" d="M235.32,200.35c0-2.54,2.08-4.62,4.63-4.62s4.62,2.08,4.62,4.62-2.08,4.62-4.62,4.62-4.63-2.08-4.63-4.62"/>
    <path class="cls-17" d="M301.57,130.64c0-2.54,2.08-4.62,4.62-4.62s4.62,2.08,4.62,4.62-2.08,4.62-4.62,4.62-4.62-2.08-4.62-4.62"/>
    <path class="cls-15" d="M287.91,335.83c0-2.54,2.08-4.62,4.62-4.62s4.62,2.08,4.62,4.62-2.08,4.62-4.62,4.62-4.62-2.08-4.62-4.62"/>
    <path class="cls-15" d="M78.89,266.98c0-2.54,2.08-4.62,4.62-4.62s4.62,2.08,4.62,4.62-2.08,4.62-4.62,4.62-4.62-2.08-4.62-4.62"/>
    <path class="cls-17" d="M103.47,262.67c0-2.54,2.08-4.62,4.63-4.62s4.62,2.08,4.62,4.62-2.08,4.62-4.62,4.62-4.63-2.08-4.63-4.62"/>
    <path class="cls-17" d="M262.83,345.93c0-2.54,2.08-4.62,4.62-4.62s4.62,2.08,4.62,4.62-2.08,4.62-4.62,4.62-4.62-2.08-4.62-4.62"/>
    <path class="cls-17" d="M46.11,306.49c0-2.55,2.08-4.63,4.62-4.63s4.63,2.08,4.63,4.63-2.08,4.62-4.63,4.62-4.62-2.08-4.62-4.62"/>
    <path class="cls-17" d="M152.33,300.03c0-2.54,2.08-4.62,4.62-4.62s4.62,2.08,4.62,4.62-2.08,4.63-4.62,4.63-4.62-2.08-4.62-4.63"/>
    <path class="cls-15" d="M95.99,247.25c0-2.54,2.08-4.62,4.62-4.62s4.62,2.08,4.62,4.62-2.08,4.62-4.62,4.62-4.62-2.08-4.62-4.62"/>
    <path class="cls-19" d="M233.08,241.55c0-2.54,2.08-4.62,4.62-4.62s4.63,2.08,4.63,4.62-2.08,4.62-4.63,4.62-4.62-2.08-4.62-4.62"/>
    <path class="cls-15" d="M262.9,220.64c0-2.55,2.08-4.63,4.62-4.63s4.62,2.08,4.62,4.63-2.08,4.62-4.62,4.62-4.62-2.08-4.62-4.62"/>
    <path class="cls-17" d="M134.16,251.69c0-2.54,2.08-4.62,4.62-4.62s4.62,2.08,4.62,4.62-2.08,4.62-4.62,4.62-4.62-2.08-4.62-4.62"/>
    <path class="cls-17" d="M148.74,249.65c0-2.55,2.08-4.63,4.62-4.63s4.62,2.08,4.62,4.63-2.08,4.62-4.62,4.62-4.62-2.08-4.62-4.62"/>
    <path class="cls-17" d="M222.5,221.82c0-2.54,2.08-4.62,4.62-4.62s4.63,2.08,4.63,4.62-2.08,4.62-4.63,4.62-4.62-2.08-4.62-4.62"/>
    <path class="cls-15" d="M232.58,233.26c0-2.54,2.08-4.62,4.63-4.62s4.62,2.08,4.62,4.62-2.08,4.62-4.62,4.62-4.63-2.08-4.63-4.62"/>
    <path class="cls-17" d="M66.44,282.3c0-2.54,2.08-4.62,4.62-4.62s4.62,2.08,4.62,4.62-2.08,4.63-4.62,4.63-4.62-2.08-4.62-4.63"/>
    <path class="cls-17" d="M259.68,327.06c0-2.54,2.08-4.62,4.62-4.62s4.62,2.08,4.62,4.62-2.08,4.62-4.62,4.62-4.62-2.08-4.62-4.62"/>
    <path class="cls-17" d="M85.67,265.68c0-2.54,2.08-4.62,4.62-4.62s4.62,2.08,4.62,4.62-2.08,4.62-4.62,4.62-4.62-2.08-4.62-4.62"/>
    <path class="cls-17" d="M268.39,364.08c0-2.54,2.08-4.62,4.63-4.62s4.62,2.08,4.62,4.62-2.08,4.62-4.62,4.62-4.63-2.08-4.63-4.62"/>
    <path class="cls-17" d="M67.07,268.01c0-2.54,2.08-4.62,4.62-4.62s4.63,2.08,4.63,4.62-2.08,4.62-4.63,4.62-4.62-2.08-4.62-4.62"/>
    <path class="cls-15" d="M126.13,288.94c0-2.54,2.08-4.62,4.63-4.62s4.62,2.08,4.62,4.62-2.08,4.62-4.62,4.62-4.63-2.08-4.63-4.62"/>
    <path class="cls-15" d="M99.32,257.15c0-2.54,2.08-4.62,4.62-4.62s4.62,2.08,4.62,4.62-2.08,4.63-4.62,4.63-4.62-2.08-4.62-4.63"/>
    <path class="cls-16" d="M39.03,310.03c0-2.54,2.08-4.62,4.62-4.62s4.62,2.08,4.62,4.62-2.08,4.62-4.62,4.62-4.62-2.08-4.62-4.62"/>
    <path class="cls-16" d="M48.97,304.04c0-2.54,2.08-4.62,4.62-4.62s4.62,2.08,4.62,4.62-2.08,4.62-4.62,4.62-4.62-2.08-4.62-4.62"/>
    <path class="cls-4" d="M225.08,351.96c0-2.55,2.08-4.63,4.63-4.63s4.62,2.08,4.62,4.63-2.08,4.62-4.62,4.62-4.63-2.08-4.63-4.62"/>
    <path class="cls-4" d="M190.55,228.75c0-2.54,2.08-4.62,4.62-4.62s4.62,2.08,4.62,4.62-2.08,4.62-4.62,4.62-4.62-2.08-4.62-4.62"/>
    <path class="cls-4" d="M265.9,356.68c0-2.54,2.08-4.62,4.63-4.62s4.62,2.08,4.62,4.62-2.08,4.62-4.62,4.62-4.63-2.08-4.63-4.62"/>
    <path class="cls-4" d="M238.05,221.94c0-2.55,2.08-4.63,4.62-4.63s4.63,2.08,4.63,4.63-2.08,4.62-4.63,4.62-4.62-2.08-4.62-4.62"/>
    <path class="cls-8" d="M269.37,354.34c0-2.54,2.08-4.62,4.62-4.62s4.63,2.08,4.63,4.62-2.08,4.62-4.63,4.62-4.62-2.08-4.62-4.62"/>
    <path class="cls-8" d="M235.32,200.35c0-2.54,2.08-4.62,4.63-4.62s4.62,2.08,4.62,4.62-2.08,4.62-4.62,4.62-4.63-2.08-4.63-4.62"/>
    <path class="cls-8" d="M301.57,130.64c0-2.54,2.08-4.62,4.62-4.62s4.62,2.08,4.62,4.62-2.08,4.62-4.62,4.62-4.62-2.08-4.62-4.62"/>
    <path class="cls-4" d="M287.91,335.83c0-2.54,2.08-4.62,4.62-4.62s4.62,2.08,4.62,4.62-2.08,4.62-4.62,4.62-4.62-2.08-4.62-4.62"/>
    <path class="cls-4" d="M78.89,266.98c0-2.54,2.08-4.62,4.62-4.62s4.62,2.08,4.62,4.62-2.08,4.62-4.62,4.62-4.62-2.08-4.62-4.62"/>
    <path class="cls-8" d="M103.47,262.67c0-2.54,2.08-4.62,4.63-4.62s4.62,2.08,4.62,4.62-2.08,4.62-4.62,4.62-4.63-2.08-4.63-4.62"/>
    <path class="cls-8" d="M262.83,345.93c0-2.54,2.08-4.62,4.62-4.62s4.62,2.08,4.62,4.62-2.08,4.62-4.62,4.62-4.62-2.08-4.62-4.62"/>
    <path class="cls-8" d="M46.11,306.49c0-2.55,2.08-4.63,4.62-4.63s4.63,2.08,4.63,4.63-2.08,4.62-4.63,4.62-4.62-2.08-4.62-4.62"/>
    <path class="cls-8" d="M152.33,300.03c0-2.54,2.08-4.62,4.62-4.62s4.62,2.08,4.62,4.62-2.08,4.63-4.62,4.63-4.62-2.08-4.62-4.63"/>
    <path class="cls-4" d="M95.99,247.25c0-2.54,2.08-4.62,4.62-4.62s4.62,2.08,4.62,4.62-2.08,4.62-4.62,4.62-4.62-2.08-4.62-4.62"/>
    <path class="cls-6" d="M233.08,241.55c0-2.54,2.08-4.62,4.62-4.62s4.63,2.08,4.63,4.62-2.08,4.62-4.63,4.62-4.62-2.08-4.62-4.62"/>
    <path class="cls-4" d="M262.9,220.64c0-2.55,2.08-4.63,4.62-4.63s4.62,2.08,4.62,4.63-2.08,4.62-4.62,4.62-4.62-2.08-4.62-4.62"/>
    <path class="cls-8" d="M134.16,251.69c0-2.54,2.08-4.62,4.62-4.62s4.62,2.08,4.62,4.62-2.08,4.62-4.62,4.62-4.62-2.08-4.62-4.62"/>
    <path class="cls-8" d="M148.74,249.65c0-2.55,2.08-4.63,4.62-4.63s4.62,2.08,4.62,4.63-2.08,4.62-4.62,4.62-4.62-2.08-4.62-4.62"/>
    <path class="cls-8" d="M222.5,221.82c0-2.54,2.08-4.62,4.62-4.62s4.63,2.08,4.63,4.62-2.08,4.62-4.63,4.62-4.62-2.08-4.62-4.62"/>
    <path class="cls-4" d="M232.58,233.26c0-2.54,2.08-4.62,4.63-4.62s4.62,2.08,4.62,4.62-2.08,4.62-4.62,4.62-4.63-2.08-4.63-4.62"/>
    <path class="cls-8" d="M66.44,282.3c0-2.54,2.08-4.62,4.62-4.62s4.62,2.08,4.62,4.62-2.08,4.63-4.62,4.63-4.62-2.08-4.62-4.63"/>
    <path class="cls-8" d="M259.68,327.06c0-2.54,2.08-4.62,4.62-4.62s4.62,2.08,4.62,4.62-2.08,4.62-4.62,4.62-4.62-2.08-4.62-4.62"/>
    <path class="cls-8" d="M85.67,265.68c0-2.54,2.08-4.62,4.62-4.62s4.62,2.08,4.62,4.62-2.08,4.62-4.62,4.62-4.62-2.08-4.62-4.62"/>
    <path class="cls-8" d="M268.39,364.08c0-2.54,2.08-4.62,4.63-4.62s4.62,2.08,4.62,4.62-2.08,4.62-4.62,4.62-4.63-2.08-4.63-4.62"/>
    <path class="cls-8" d="M67.07,268.01c0-2.54,2.08-4.62,4.62-4.62s4.63,2.08,4.63,4.62-2.08,4.62-4.63,4.62-4.62-2.08-4.62-4.62"/>
    <path class="cls-4" d="M126.13,288.94c0-2.54,2.08-4.62,4.63-4.62s4.62,2.08,4.62,4.62-2.08,4.62-4.62,4.62-4.63-2.08-4.63-4.62"/>
    <path class="cls-4" d="M99.32,257.15c0-2.54,2.08-4.62,4.62-4.62s4.62,2.08,4.62,4.62-2.08,4.63-4.62,4.63-4.62-2.08-4.62-4.63"/>
    <path class="cls-9" d="M39.03,310.03c0-2.54,2.08-4.62,4.62-4.62s4.62,2.08,4.62,4.62-2.08,4.62-4.62,4.62-4.62-2.08-4.62-4.62"/>
    <path class="cls-9" d="M48.97,304.04c0-2.54,2.08-4.62,4.62-4.62s4.62,2.08,4.62,4.62-2.08,4.62-4.62,4.62-4.62-2.08-4.62-4.62"/>
  </g>
  <line class="cls-2" x1="30.52" y1="375.75" x2="30.52" y2="118.97"/>
  <text class="cls-13" transform="translate(15.33 364.36)"><tspan x="0" y="0">−2</tspan></text>
  <text class="cls-13" transform="translate(20.59 278.95)"><tspan x="0" y="0">0</tspan></text>
  <text class="cls-13" transform="translate(20.59 193.53)"><tspan x="0" y="0">2</tspan></text>
  <line class="cls-5" x1="27.78" y1="361.13" x2="30.52" y2="361.13"/>
  <line class="cls-5" x1="27.78" y1="275.71" x2="30.52" y2="275.71"/>
  <line class="cls-5" x1="27.78" y1="190.3" x2="30.52" y2="190.3"/>
  <line class="cls-2" x1="30.52" y1="375.75" x2="319.32" y2="375.75"/>
  <line class="cls-5" x1="93.27" y1="378.49" x2="93.27" y2="375.75"/>
  <line class="cls-5" x1="178.69" y1="378.49" x2="178.69" y2="375.75"/>
  <line class="cls-5" x1="264.11" y1="378.49" x2="264.11" y2="375.75"/>
  <text class="cls-13" transform="translate(88.14 387.14)"><tspan x="0" y="0">−2</tspan></text>
  <text class="cls-13" transform="translate(176.19 387.14)"><tspan x="0" y="0">0</tspan></text>
  <text class="cls-13" transform="translate(261.61 387.14)"><tspan x="0" y="0">2</tspan></text>
  <text class="cls-12" transform="translate(172.17 400.79)"><tspan x="0" y="0">x</tspan></text>
  <text class="cls-12" transform="translate(13.38 250.11) rotate(-90)"><tspan x="0" y="0">y</tspan></text>
  <rect class="cls-18" x="330.28" y="198.89" width="168.24" height="96.93"/>
  <text class="cls-12" transform="translate(335.76 214.01)"><tspan x="0" y="0">resultant_geno</tspan></text>
  <rect class="cls-18" x="335.76" y="221.22" width="17.28" height="17.28"/>
  <path class="cls-15" d="M339.77,229.86c0-2.54,2.08-4.62,4.63-4.62s4.62,2.08,4.62,4.62-2.08,4.63-4.62,4.63-4.63-2.08-4.63-4.63"/>
  <path class="cls-4" d="M339.77,229.86c0-2.54,2.08-4.62,4.63-4.62s4.62,2.08,4.62,4.62-2.08,4.63-4.62,4.63-4.63-2.08-4.63-4.63"/>
  <rect class="cls-18" x="335.76" y="238.5" width="17.28" height="17.28"/>
  <path class="cls-17" d="M339.77,247.14c0-2.54,2.08-4.62,4.63-4.62s4.62,2.08,4.62,4.62-2.08,4.63-4.62,4.63-4.63-2.08-4.63-4.63"/>
  <path class="cls-8" d="M339.77,247.14c0-2.54,2.08-4.62,4.63-4.62s4.62,2.08,4.62,4.62-2.08,4.63-4.62,4.63-4.63-2.08-4.63-4.63"/>
  <rect class="cls-18" x="335.76" y="255.78" width="17.28" height="17.28"/>
  <path class="cls-19" d="M339.77,264.42c0-2.54,2.08-4.62,4.63-4.62s4.62,2.08,4.62,4.62-2.08,4.63-4.62,4.63-4.63-2.08-4.63-4.63"/>
  <path class="cls-6" d="M339.77,264.42c0-2.54,2.08-4.62,4.63-4.62s4.62,2.08,4.62,4.62-2.08,4.63-4.62,4.63-4.63-2.08-4.63-4.63"/>
  <rect class="cls-18" x="335.76" y="273.06" width="17.28" height="17.28"/>
  <path class="cls-16" d="M339.77,281.7c0-2.54,2.08-4.62,4.63-4.62s4.62,2.08,4.62,4.62-2.08,4.63-4.62,4.63-4.63-2.08-4.63-4.63"/>
  <path class="cls-9" d="M339.77,281.7c0-2.54,2.08-4.62,4.63-4.62s4.62,2.08,4.62,4.62-2.08,4.63-4.62,4.63-4.63-2.08-4.63-4.63"/>
  <text class="cls-11" transform="translate(358.51 233.09)"><tspan x="0" y="0">nf1 </tspan><tspan class="cls-10" x="15.01" y="0">K</tspan><tspan x="20.56" y="0">O; pten </tspan><tspan class="cls-10" x="52.58" y="0">K</tspan><tspan x="58.14" y="0">O; ink </tspan><tspan class="cls-20" x="84.14" y="0">K</tspan><tspan class="cls-23" x="89.71" y="0">O; atrx </tspan><tspan class="cls-10" x="119.21" y="0">K</tspan><tspan x="124.76" y="0">O</tspan></text>
  <text class="cls-11" transform="translate(358.51 250.37)"><tspan x="0" y="0">nf1 </tspan><tspan class="cls-10" x="15.01" y="0">K</tspan><tspan x="20.56" y="0">O; pten </tspan><tspan class="cls-10" x="52.58" y="0">K</tspan><tspan x="58.14" y="0">O; ink </tspan><tspan class="cls-20" x="84.14" y="0">K</tspan><tspan class="cls-23" x="89.71" y="0">O; atrx wt</tspan></text>
  <text class="cls-11" transform="translate(358.51 267.65)"><tspan x="0" y="0">nf1 wt; pten </tspan><tspan class="cls-22" x="49.03" y="0">K</tspan><tspan class="cls-23" x="54.58" y="0">O; ink </tspan><tspan class="cls-10" x="80.59" y="0">K</tspan><tspan class="cls-23" x="86.14" y="0">O; atrx </tspan><tspan class="cls-1" x="115.65" y="0">K</tspan><tspan x="121.21" y="0">O</tspan></text>
  <text class="cls-11" transform="translate(358.51 284.93)"><tspan x="0" y="0">nf1 wt; pten wt; ink wt; atrx wt</tspan></text>
  <text class="cls-14" transform="translate(30.52 110.64)"><tspan x="0" y="0">resultant genotype</tspan></text>
</svg>