<?xml version="1.0" encoding="UTF-8"?>
<svg id="Layer_1" data-name="Layer 1" xmlns="http://www.w3.org/2000/svg" version="1.1" xmlns:xlink="http://www.w3.org/1999/xlink" viewBox="0 0 576 576">
  <defs>
    <style>
      .cls-1 {
        fill: #00be70;
      }

      .cls-1, .cls-2, .cls-3, .cls-4, .cls-5, .cls-6, .cls-7, .cls-8, .cls-9, .cls-10, .cls-11, .cls-12, .cls-13, .cls-14, .cls-15 {
        stroke-width: 0px;
      }

      .cls-1, .cls-2, .cls-3, .cls-4, .cls-5, .cls-6, .cls-7, .cls-8, .cls-10, .cls-11, .cls-12, .cls-14, .cls-15 {
        opacity: .5;
      }

      .cls-16 {
        stroke: #be9c00;
      }

      .cls-16, .cls-17, .cls-18, .cls-19, .cls-20, .cls-21, .cls-22, .cls-23, .cls-9, .cls-24, .cls-25, .cls-26, .cls-27, .cls-28, .cls-29, .cls-30, .cls-31 {
        fill: none;
      }

      .cls-16, .cls-17, .cls-18, .cls-19, .cls-20, .cls-21, .cls-22, .cls-23, .cls-24, .cls-25, .cls-26, .cls-27, .cls-28, .cls-29, .cls-30, .cls-31 {
        stroke-linejoin: round;
      }

      .cls-16, .cls-17, .cls-18, .cls-20, .cls-21, .cls-22, .cls-23, .cls-24, .cls-25, .cls-26, .cls-28, .cls-29, .cls-30 {
        stroke-width: .71px;
      }

      .cls-16, .cls-17, .cls-18, .cls-20, .cls-21, .cls-22, .cls-23, .cls-24, .cls-25, .cls-26, .cls-28, .cls-29, .cls-30, .cls-31 {
        stroke-linecap: round;
      }

      .cls-17 {
        stroke: #00c1ab;
      }

      .cls-2 {
        fill: #f962dd;
      }

      .cls-3 {
        fill: #be9c00;
      }

      .cls-18 {
        stroke: #00acfc;
      }

      .cls-4 {
        fill: #8cab00;
      }

      .cls-19 {
        stroke: #000;
      }

      .cls-19, .cls-27, .cls-31 {
        stroke-width: 1.07px;
      }

      .cls-5 {
        fill: #ff65ac;
      }

      .cls-32, .cls-33, .cls-34, .cls-35 {
        font-family: ArialMT, Arial;
      }

      .cls-32, .cls-33, .cls-35 {
        fill: #000;
      }

      .cls-32, .cls-34 {
        font-size: 9px;
      }

      .cls-6 {
        fill: #f8766d;
      }

      .cls-7 {
        fill: #00c1ab;
      }

      .cls-20 {
        stroke: #00bbda;
      }

      .cls-21 {
        stroke: #24b700;
      }

      .cls-22 {
        stroke: #8b93ff;
      }

      .cls-8 {
        fill: #8b93ff;
      }

      .cls-23 {
        stroke: #f962dd;
      }

      .cls-24 {
        stroke: #f8766d;
      }

      .cls-10 {
        fill: #d575fe;
      }

      .cls-36 {
        clip-path: url(#clippath-1);
      }

      .cls-25 {
        stroke: #ff65ac;
      }

      .cls-26 {
        stroke: #00be70;
      }

      .cls-27 {
        stroke: #333;
      }

      .cls-11 {
        fill: #00acfc;
      }

      .cls-37 {
        clip-path: url(#clippath);
      }

      .cls-12 {
        fill: #00bbda;
      }

      .cls-28 {
        stroke: #e18a00;
      }

      .cls-33 {
        font-size: 11px;
      }

      .cls-29 {
        stroke: #8cab00;
      }

      .cls-30 {
        stroke: #d575fe;
      }

      .cls-34 {
        fill: #4d4d4d;
      }

      .cls-13 {
        fill: #fff;
      }

      .cls-31 {
        stroke: #fff;
      }

      .cls-14 {
        fill: #24b700;
      }

      .cls-15 {
        fill: #e18a00;
      }

      .cls-35 {
        font-size: 13px;
      }
    </style>
    <clipPath id="clippath">
      <rect class="cls-9" width="576" height="576"/>
    </clipPath>
    <clipPath id="clippath-1">
      <rect class="cls-9" x="30.52" y="23.13" width="428.08" height="520.45"/>
    </clipPath>
  </defs>
  <g class="cls-37">
    <rect class="cls-13" width="576" height="576"/>
    <rect class="cls-31" width="576" height="576"/>
  </g>
  <g class="cls-36">
    <rect class="cls-13" x="30.52" y="23.13" width="428.08" height="520.45"/>
    <path class="cls-6" d="M321.15,495.35c0-2.54,2.08-4.62,4.62-4.62s4.62,2.08,4.62,4.62-2.08,4.63-4.62,4.63-4.62-2.08-4.62-4.63"/>
    <path class="cls-3" d="M269.96,245.64c0-2.54,2.08-4.62,4.62-4.62s4.62,2.08,4.62,4.62-2.08,4.62-4.62,4.62-4.62-2.08-4.62-4.62"/>
    <path class="cls-6" d="M381.66,504.93c0-2.54,2.08-4.62,4.62-4.62s4.62,2.08,4.62,4.62-2.08,4.62-4.62,4.62-4.62-2.08-4.62-4.62"/>
    <path class="cls-4" d="M340.37,231.83c0-2.54,2.08-4.62,4.62-4.62s4.63,2.08,4.63,4.62-2.08,4.62-4.63,4.62-4.62-2.08-4.62-4.62"/>
    <path class="cls-1" d="M386.8,500.19c0-2.54,2.08-4.62,4.62-4.62s4.62,2.08,4.62,4.62-2.08,4.62-4.62,4.62-4.62-2.08-4.62-4.62"/>
    <path class="cls-7" d="M336.33,188.08c0-2.54,2.08-4.62,4.62-4.62s4.62,2.08,4.62,4.62-2.08,4.63-4.62,4.63-4.62-2.08-4.62-4.63"/>
    <path class="cls-7" d="M434.52,46.79c0-2.54,2.08-4.62,4.62-4.62s4.63,2.08,4.63,4.62-2.08,4.62-4.63,4.62-4.62-2.08-4.62-4.62"/>
    <path class="cls-15" d="M414.28,462.67c0-2.54,2.08-4.62,4.62-4.62s4.62,2.08,4.62,4.62-2.08,4.62-4.62,4.62-4.62-2.08-4.62-4.62"/>
    <path class="cls-14" d="M104.44,323.12c0-2.54,2.08-4.62,4.62-4.62s4.62,2.08,4.62,4.62-2.08,4.63-4.62,4.63-4.62-2.08-4.62-4.63"/>
    <path class="cls-12" d="M140.89,314.39c0-2.54,2.08-4.62,4.62-4.62s4.62,2.08,4.62,4.62-2.08,4.62-4.62,4.62-4.62-2.08-4.62-4.62"/>
    <path class="cls-1" d="M377.1,483.14c0-2.54,2.08-4.62,4.62-4.62s4.62,2.08,4.62,4.62-2.08,4.62-4.62,4.62-4.62-2.08-4.62-4.62"/>
    <path class="cls-12" d="M55.86,403.2c0-2.55,2.08-4.63,4.62-4.63s4.62,2.08,4.62,4.63-2.08,4.62-4.62,4.62-4.62-2.08-4.62-4.62"/>
    <path class="cls-12" d="M213.3,390.12c0-2.54,2.08-4.62,4.62-4.62s4.62,2.08,4.62,4.62-2.08,4.62-4.62,4.62-4.62-2.08-4.62-4.62"/>
    <path class="cls-14" d="M129.79,283.13c0-2.54,2.08-4.62,4.62-4.62s4.62,2.08,4.62,4.62-2.08,4.63-4.62,4.63-4.62-2.08-4.62-4.63"/>
    <path class="cls-2" d="M333.01,271.59c0-2.54,2.08-4.62,4.62-4.62s4.62,2.08,4.62,4.62-2.08,4.62-4.62,4.62-4.62-2.08-4.62-4.62"/>
    <path class="cls-4" d="M377.21,229.2c0-2.55,2.08-4.63,4.62-4.63s4.62,2.08,4.62,4.63-2.08,4.62-4.62,4.62-4.62-2.08-4.62-4.62"/>
    <path class="cls-11" d="M186.37,292.14c0-2.54,2.08-4.62,4.62-4.62s4.63,2.08,4.63,4.62-2.08,4.62-4.63,4.62-4.62-2.08-4.62-4.62"/>
    <path class="cls-8" d="M207.98,288c0-2.55,2.08-4.63,4.63-4.63s4.62,2.08,4.62,4.63-2.08,4.62-4.62,4.62-4.63-2.08-4.63-4.62"/>
    <path class="cls-7" d="M317.32,231.59c0-2.54,2.08-4.62,4.62-4.62s4.63,2.08,4.63,4.62-2.08,4.62-4.63,4.62-4.62-2.08-4.62-4.62"/>
    <path class="cls-4" d="M332.27,254.79c0-2.54,2.08-4.62,4.62-4.62s4.62,2.08,4.62,4.62-2.08,4.62-4.62,4.62-4.62-2.08-4.62-4.62"/>
    <path class="cls-10" d="M85.99,354.19c0-2.55,2.08-4.63,4.62-4.63s4.63,2.08,4.63,4.63-2.08,4.62-4.63,4.62-4.62-2.08-4.62-4.62"/>
    <path class="cls-1" d="M372.43,444.89c0-2.54,2.08-4.62,4.62-4.62s4.63,2.08,4.63,4.62-2.08,4.63-4.63,4.63-4.62-2.08-4.62-4.63"/>
    <path class="cls-11" d="M114.49,320.49c0-2.54,2.08-4.62,4.63-4.62s4.62,2.08,4.62,4.62-2.08,4.62-4.62,4.62-4.63-2.08-4.63-4.62"/>
    <path class="cls-1" d="M385.35,519.93c0-2.55,2.08-4.63,4.62-4.63s4.62,2.08,4.62,4.63-2.08,4.62-4.62,4.62-4.62-2.08-4.62-4.62"/>
    <path class="cls-12" d="M86.93,325.21c0-2.54,2.08-4.62,4.62-4.62s4.62,2.08,4.62,4.62-2.08,4.62-4.62,4.62-4.62-2.08-4.62-4.62"/>
    <path class="cls-14" d="M174.48,367.63c0-2.54,2.08-4.62,4.62-4.62s4.62,2.08,4.62,4.62-2.08,4.63-4.62,4.63-4.62-2.08-4.62-4.63"/>
    <path class="cls-14" d="M134.72,303.21c0-2.54,2.08-4.62,4.63-4.62s4.62,2.08,4.62,4.62-2.08,4.62-4.62,4.62-4.63-2.08-4.63-4.62"/>
    <path class="cls-5" d="M45.36,410.38c0-2.55,2.08-4.63,4.62-4.63s4.62,2.08,4.62,4.63-2.08,4.62-4.62,4.62-4.62-2.08-4.62-4.62"/>
    <path class="cls-5" d="M60.09,398.24c0-2.55,2.08-4.63,4.63-4.63s4.62,2.08,4.62,4.63-2.08,4.62-4.62,4.62-4.63-2.08-4.63-4.62"/>
    <path class="cls-24" d="M321.15,495.35c0-2.54,2.08-4.62,4.62-4.62s4.62,2.08,4.62,4.62-2.08,4.63-4.62,4.63-4.62-2.08-4.62-4.63"/>
    <path class="cls-16" d="M269.96,245.64c0-2.54,2.08-4.62,4.62-4.62s4.62,2.08,4.62,4.62-2.08,4.62-4.62,4.62-4.62-2.08-4.62-4.62"/>
    <path class="cls-24" d="M381.66,504.93c0-2.54,2.08-4.62,4.62-4.62s4.62,2.08,4.62,4.62-2.08,4.62-4.62,4.62-4.62-2.08-4.62-4.62"/>
    <path class="cls-29" d="M340.37,231.83c0-2.54,2.08-4.62,4.62-4.62s4.63,2.08,4.63,4.62-2.08,4.62-4.63,4.62-4.62-2.08-4.62-4.62"/>
    <path class="cls-26" d="M386.8,500.19c0-2.54,2.08-4.62,4.62-4.62s4.62,2.08,4.62,4.62-2.08,4.62-4.62,4.62-4.62-2.08-4.62-4.62"/>
    <path class="cls-17" d="M336.33,188.08c0-2.54,2.08-4.62,4.62-4.62s4.62,2.08,4.62,4.62-2.08,4.63-4.62,4.63-4.62-2.08-4.62-4.63"/>
    <path class="cls-17" d="M434.52,46.79c0-2.54,2.08-4.62,4.62-4.62s4.63,2.08,4.63,4.62-2.08,4.62-4.63,4.62-4.62-2.08-4.62-4.62"/>
    <path class="cls-28" d="M414.28,462.67c0-2.54,2.08-4.62,4.62-4.62s4.62,2.08,4.62,4.62-2.08,4.62-4.62,4.62-4.62-2.08-4.62-4.62"/>
    <path class="cls-21" d="M104.44,323.12c0-2.54,2.08-4.62,4.62-4.62s4.62,2.08,4.62,4.62-2.08,4.63-4.62,4.63-4.62-2.08-4.62-4.63"/>
    <path class="cls-20" d="M140.89,314.39c0-2.54,2.08-4.62,4.62-4.62s4.62,2.08,4.62,4.62-2.08,4.62-4.62,4.62-4.62-2.08-4.62-4.62"/>
    <path class="cls-26" d="M377.1,483.14c0-2.54,2.08-4.62,4.62-4.62s4.62,2.08,4.62,4.62-2.08,4.62-4.62,4.62-4.62-2.08-4.62-4.62"/>
    <path class="cls-20" d="M55.86,403.2c0-2.55,2.08-4.63,4.62-4.63s4.62,2.08,4.62,4.63-2.08,4.62-4.62,4.62-4.62-2.08-4.62-4.62"/>
    <path class="cls-20" d="M213.3,390.12c0-2.54,2.08-4.62,4.62-4.62s4.62,2.08,4.62,4.62-2.08,4.62-4.62,4.62-4.62-2.08-4.62-4.62"/>
    <path class="cls-21" d="M129.79,283.13c0-2.54,2.08-4.62,4.62-4.62s4.62,2.08,4.62,4.62-2.08,4.63-4.62,4.63-4.62-2.08-4.62-4.63"/>
    <path class="cls-23" d="M333.01,271.59c0-2.54,2.08-4.62,4.62-4.62s4.62,2.08,4.62,4.62-2.08,4.62-4.62,4.62-4.62-2.08-4.62-4.62"/>
    <path class="cls-29" d="M377.21,229.2c0-2.55,2.08-4.63,4.62-4.63s4.62,2.08,4.62,4.63-2.08,4.62-4.62,4.62-4.62-2.08-4.62-4.62"/>
    <path class="cls-18" d="M186.37,292.14c0-2.54,2.08-4.62,4.62-4.62s4.63,2.08,4.63,4.62-2.08,4.62-4.63,4.62-4.62-2.08-4.62-4.62"/>
    <path class="cls-22" d="M207.98,288c0-2.55,2.08-4.63,4.63-4.63s4.62,2.08,4.62,4.63-2.08,4.62-4.62,4.62-4.63-2.08-4.63-4.62"/>
    <path class="cls-17" d="M317.32,231.59c0-2.54,2.08-4.62,4.62-4.62s4.63,2.08,4.63,4.62-2.08,4.62-4.63,4.62-4.62-2.08-4.62-4.62"/>
    <path class="cls-29" d="M332.27,254.79c0-2.54,2.08-4.62,4.62-4.62s4.62,2.08,4.62,4.62-2.08,4.62-4.62,4.62-4.62-2.08-4.62-4.62"/>
    <path class="cls-30" d="M85.99,354.19c0-2.55,2.08-4.63,4.62-4.63s4.63,2.08,4.63,4.63-2.08,4.62-4.63,4.62-4.62-2.08-4.62-4.62"/>
    <path class="cls-26" d="M372.43,444.89c0-2.54,2.08-4.62,4.62-4.62s4.63,2.08,4.63,4.62-2.08,4.63-4.63,4.63-4.62-2.08-4.62-4.63"/>
    <path class="cls-18" d="M114.49,320.49c0-2.54,2.08-4.62,4.63-4.62s4.62,2.08,4.62,4.62-2.08,4.62-4.62,4.62-4.63-2.08-4.63-4.62"/>
    <path class="cls-26" d="M385.35,519.93c0-2.55,2.08-4.63,4.62-4.63s4.62,2.08,4.62,4.63-2.08,4.62-4.62,4.62-4.62-2.08-4.62-4.62"/>
    <path class="cls-20" d="M86.93,325.21c0-2.54,2.08-4.62,4.62-4.62s4.62,2.08,4.62,4.62-2.08,4.62-4.62,4.62-4.62-2.08-4.62-4.62"/>
    <path class="cls-21" d="M174.48,367.63c0-2.54,2.08-4.62,4.62-4.62s4.62,2.08,4.62,4.62-2.08,4.63-4.62,4.63-4.62-2.08-4.62-4.63"/>
    <path class="cls-21" d="M134.72,303.21c0-2.54,2.08-4.62,4.63-4.62s4.62,2.08,4.62,4.62-2.08,4.62-4.62,4.62-4.63-2.08-4.63-4.62"/>
    <path class="cls-25" d="M45.36,410.38c0-2.55,2.08-4.63,4.62-4.63s4.62,2.08,4.62,4.63-2.08,4.62-4.62,4.62-4.62-2.08-4.62-4.62"/>
    <path class="cls-25" d="M60.09,398.24c0-2.55,2.08-4.63,4.63-4.63s4.62,2.08,4.62,4.63-2.08,4.62-4.62,4.62-4.63-2.08-4.63-4.62"/>
  </g>
  <line class="cls-19" x1="30.52" y1="543.58" x2="30.52" y2="23.14"/>
  <text class="cls-34" transform="translate(15.33 517.18)"><tspan x="0" y="0">−2</tspan></text>
  <text class="cls-34" transform="translate(20.59 344.06)"><tspan x="0" y="0">0</tspan></text>
  <text class="cls-34" transform="translate(20.59 170.94)"><tspan x="0" y="0">2</tspan></text>
  <line class="cls-27" x1="27.78" y1="513.95" x2="30.52" y2="513.95"/>
  <line class="cls-27" x1="27.78" y1="340.83" x2="30.52" y2="340.83"/>
  <line class="cls-27" x1="27.78" y1="167.71" x2="30.52" y2="167.71"/>
  <line class="cls-19" x1="30.52" y1="543.58" x2="458.6" y2="543.58"/>
  <line class="cls-27" x1="123.54" y1="546.32" x2="123.54" y2="543.58"/>
  <line class="cls-27" x1="250.15" y1="546.32" x2="250.15" y2="543.58"/>
  <line class="cls-27" x1="376.77" y1="546.32" x2="376.77" y2="543.58"/>
  <text class="cls-34" transform="translate(118.41 554.98)"><tspan x="0" y="0">−2</tspan></text>
  <text class="cls-34" transform="translate(247.65 554.98)"><tspan x="0" y="0">0</tspan></text>
  <text class="cls-34" transform="translate(374.27 554.98)"><tspan x="0" y="0">2</tspan></text>
  <text class="cls-33" transform="translate(241.81 568.63)"><tspan x="0" y="0">x</tspan></text>
  <text class="cls-33" transform="translate(13.38 286.11) rotate(-90)"><tspan x="0" y="0">y</tspan></text>
  <rect class="cls-13" x="469.56" y="157.13" width="100.96" height="252.45"/>
  <text class="cls-33" transform="translate(475.04 172.25)"><tspan x="0" y="0">tumor_grouping1</tspan></text>
  <rect class="cls-13" x="475.04" y="179.46" width="17.28" height="17.28"/>
  <path class="cls-6" d="M479.06,188.1c0-2.54,2.08-4.62,4.62-4.62s4.62,2.08,4.62,4.62-2.08,4.63-4.62,4.63-4.62-2.08-4.62-4.63"/>
  <path class="cls-24" d="M479.06,188.1c0-2.54,2.08-4.62,4.62-4.62s4.62,2.08,4.62,4.62-2.08,4.63-4.62,4.63-4.62-2.08-4.62-4.63"/>
  <rect class="cls-13" x="475.04" y="196.74" width="17.28" height="17.28"/>
  <path class="cls-15" d="M479.06,205.38c0-2.54,2.08-4.62,4.62-4.62s4.62,2.08,4.62,4.62-2.08,4.63-4.62,4.63-4.62-2.08-4.62-4.63"/>
  <path class="cls-28" d="M479.06,205.38c0-2.54,2.08-4.62,4.62-4.62s4.62,2.08,4.62,4.62-2.08,4.63-4.62,4.63-4.62-2.08-4.62-4.63"/>
  <rect class="cls-13" x="475.04" y="214.02" width="17.28" height="17.28"/>
  <path class="cls-3" d="M479.06,222.66c0-2.54,2.08-4.62,4.62-4.62s4.62,2.08,4.62,4.62-2.08,4.63-4.62,4.63-4.62-2.08-4.62-4.63"/>
  <path class="cls-16" d="M479.06,222.66c0-2.54,2.08-4.62,4.62-4.62s4.62,2.08,4.62,4.62-2.08,4.63-4.62,4.63-4.62-2.08-4.62-4.63"/>
  <rect class="cls-13" x="475.04" y="231.3" width="17.28" height="17.28"/>
  <path class="cls-4" d="M479.06,239.94c0-2.54,2.08-4.62,4.62-4.62s4.62,2.08,4.62,4.62-2.08,4.63-4.62,4.63-4.62-2.08-4.62-4.63"/>
  <path class="cls-29" d="M479.06,239.94c0-2.54,2.08-4.62,4.62-4.62s4.62,2.08,4.62,4.62-2.08,4.63-4.62,4.63-4.62-2.08-4.62-4.63"/>
  <rect class="cls-13" x="475.04" y="248.58" width="17.28" height="17.28"/>
  <path class="cls-14" d="M479.06,257.22c0-2.54,2.08-4.62,4.62-4.62s4.62,2.08,4.62,4.62-2.08,4.63-4.62,4.63-4.62-2.08-4.62-4.63"/>
  <path class="cls-21" d="M479.06,257.22c0-2.54,2.08-4.62,4.62-4.62s4.62,2.08,4.62,4.62-2.08,4.63-4.62,4.63-4.62-2.08-4.62-4.63"/>
  <rect class="cls-13" x="475.04" y="265.86" width="17.28" height="17.28"/>
  <path class="cls-1" d="M479.06,274.5c0-2.54,2.08-4.62,4.62-4.62s4.62,2.08,4.62,4.62-2.08,4.63-4.62,4.63-4.62-2.08-4.62-4.63"/>
  <path class="cls-26" d="M479.06,274.5c0-2.54,2.08-4.62,4.62-4.62s4.62,2.08,4.62,4.62-2.08,4.63-4.62,4.63-4.62-2.08-4.62-4.63"/>
  <rect class="cls-13" x="475.04" y="283.14" width="17.28" height="17.28"/>
  <path class="cls-7" d="M479.06,291.78c0-2.54,2.08-4.62,4.62-4.62s4.62,2.08,4.62,4.62-2.08,4.63-4.62,4.63-4.62-2.08-4.62-4.63"/>
  <path class="cls-17" d="M479.06,291.78c0-2.54,2.08-4.62,4.62-4.62s4.62,2.08,4.62,4.62-2.08,4.63-4.62,4.63-4.62-2.08-4.62-4.63"/>
  <rect class="cls-13" x="475.04" y="300.42" width="17.28" height="17.28"/>
  <path class="cls-12" d="M479.06,309.06c0-2.54,2.08-4.62,4.62-4.62s4.62,2.08,4.62,4.62-2.08,4.63-4.62,4.63-4.62-2.08-4.62-4.63"/>
  <path class="cls-20" d="M479.06,309.06c0-2.54,2.08-4.62,4.62-4.62s4.62,2.08,4.62,4.62-2.08,4.63-4.62,4.63-4.62-2.08-4.62-4.63"/>
  <rect class="cls-13" x="475.04" y="317.7" width="17.28" height="17.28"/>
  <path class="cls-11" d="M479.06,326.34c0-2.54,2.08-4.62,4.62-4.62s4.62,2.08,4.62,4.62-2.08,4.63-4.62,4.63-4.62-2.08-4.62-4.63"/>
  <path class="cls-18" d="M479.06,326.34c0-2.54,2.08-4.62,4.62-4.62s4.62,2.08,4.62,4.62-2.08,4.63-4.62,4.63-4.62-2.08-4.62-4.63"/>
  <rect class="cls-13" x="475.04" y="334.98" width="17.28" height="17.28"/>
  <path class="cls-8" d="M479.06,343.62c0-2.54,2.08-4.62,4.62-4.62s4.62,2.08,4.62,4.62-2.08,4.63-4.62,4.63-4.62-2.08-4.62-4.63"/>
  <path class="cls-22" d="M479.06,343.62c0-2.54,2.08-4.62,4.62-4.62s4.62,2.08,4.62,4.62-2.08,4.63-4.62,4.63-4.62-2.08-4.62-4.63"/>
  <rect class="cls-13" x="475.04" y="352.26" width="17.28" height="17.28"/>
  <path class="cls-10" d="M479.06,360.9c0-2.54,2.08-4.62,4.62-4.62s4.62,2.08,4.62,4.62-2.08,4.63-4.62,4.63-4.62-2.08-4.62-4.63"/>
  <path class="cls-30" d="M479.06,360.9c0-2.54,2.08-4.62,4.62-4.62s4.62,2.08,4.62,4.62-2.08,4.63-4.62,4.63-4.62-2.08-4.62-4.63"/>
  <rect class="cls-13" x="475.04" y="369.54" width="17.28" height="17.28"/>
  <path class="cls-2" d="M479.06,378.18c0-2.54,2.08-4.62,4.62-4.62s4.62,2.08,4.62,4.62-2.08,4.63-4.62,4.63-4.62-2.08-4.62-4.63"/>
  <path class="cls-23" d="M479.06,378.18c0-2.54,2.08-4.62,4.62-4.62s4.62,2.08,4.62,4.62-2.08,4.63-4.62,4.63-4.62-2.08-4.62-4.63"/>
  <rect class="cls-13" x="475.04" y="386.82" width="17.28" height="17.28"/>
  <path class="cls-5" d="M479.06,395.46c0-2.54,2.08-4.62,4.62-4.62s4.62,2.08,4.62,4.62-2.08,4.63-4.62,4.63-4.62-2.08-4.62-4.63"/>
  <path class="cls-25" d="M479.06,395.46c0-2.54,2.08-4.62,4.62-4.62s4.62,2.08,4.62,4.62-2.08,4.63-4.62,4.63-4.62-2.08-4.62-4.63"/>
  <text class="cls-32" transform="translate(497.8 191.33)"><tspan x="0" y="0">1.01</tspan></text>
  <text class="cls-32" transform="translate(497.8 208.61)"><tspan x="0" y="0">1.01.3</tspan></text>
  <text class="cls-32" transform="translate(497.8 225.89)"><tspan x="0" y="0">1.02</tspan></text>
  <text class="cls-32" transform="translate(497.8 243.17)"><tspan x="0" y="0">1.03</tspan></text>
  <text class="cls-32" transform="translate(497.8 260.45)"><tspan x="0" y="0">1.08</tspan></text>
  <text class="cls-32" transform="translate(497.8 277.73)"><tspan x="0" y="0">2.02</tspan></text>
  <text class="cls-32" transform="translate(497.8 295.01)"><tspan x="0" y="0">2.03</tspan></text>
  <text class="cls-32" transform="translate(497.8 312.29)"><tspan x="0" y="0">2.04</tspan></text>
  <text class="cls-32" transform="translate(497.8 329.57)"><tspan x="0" y="0">2.05</tspan></text>
  <text class="cls-32" transform="translate(497.8 346.85)"><tspan x="0" y="0">2.07</tspan></text>
  <text class="cls-32" transform="translate(497.8 364.13)"><tspan x="0" y="0">2.09</tspan></text>
  <text class="cls-32" transform="translate(497.8 381.41)"><tspan x="0" y="0">5.01</tspan></text>
  <text class="cls-32" transform="translate(497.8 398.69)"><tspan x="0" y="0">NED</tspan></text>
  <text class="cls-35" transform="translate(30.52 14.81)"><tspan x="0" y="0">first tumor grouping</tspan></text>
</svg>