<?xml version="1.0" encoding="UTF-8"?>
<svg id="Layer_1" data-name="Layer 1" xmlns="http://www.w3.org/2000/svg" version="1.1" xmlns:xlink="http://www.w3.org/1999/xlink" viewBox="0 0 482 450">
  <defs>
    <style>
      .cls-1 {
        letter-spacing: -.05em;
      }

      .cls-2 {
        stroke: #000;
      }

      .cls-2, .cls-3, .cls-4, .cls-5, .cls-6, .cls-7, .cls-8, .cls-9 {
        fill: none;
      }

      .cls-2, .cls-4, .cls-5, .cls-6, .cls-7, .cls-8, .cls-9 {
        stroke-linejoin: round;
      }

      .cls-2, .cls-5, .cls-7 {
        stroke-width: 1.07px;
      }

      .cls-10 {
        letter-spacing: -.05em;
      }

      .cls-11, .cls-12, .cls-13, .cls-14 {
        font-family: ArialMT, Arial;
      }

      .cls-11, .cls-12, .cls-14 {
        fill: #000;
      }

      .cls-11, .cls-13 {
        font-size: 9px;
      }

      .cls-15 {
        fill: #f8766d;
      }

      .cls-15, .cls-16, .cls-3, .cls-17, .cls-18, .cls-19 {
        stroke-width: 0px;
      }

      .cls-15, .cls-16, .cls-17, .cls-19 {
        opacity: .5;
      }

      .cls-16 {
        fill: #c77cff;
      }

      .cls-20 {
        letter-spacing: -.05em;
      }

      .cls-4 {
        stroke: #f8766d;
      }

      .cls-4, .cls-6, .cls-7, .cls-8, .cls-9 {
        stroke-linecap: round;
      }

      .cls-4, .cls-6, .cls-8, .cls-9 {
        stroke-width: .71px;
      }

      .cls-21 {
        clip-path: url(#clippath-1);
      }

      .cls-5 {
        stroke: #333;
      }

      .cls-22 {
        letter-spacing: -.05em;
      }

      .cls-6 {
        stroke: #00bfc4;
      }

      .cls-23 {
        letter-spacing: 0em;
      }

      .cls-24 {
        clip-path: url(#clippath);
      }

      .cls-17 {
        fill: #7cae00;
      }

      .cls-12 {
        font-size: 11px;
      }

      .cls-13 {
        fill: #4d4d4d;
      }

      .cls-18 {
        fill: #fff;
      }

      .cls-7 {
        stroke: #fff;
      }

      .cls-8 {
        stroke: #7cae00;
      }

      .cls-9 {
        stroke: #c77cff;
      }

      .cls-19 {
        fill: #00bfc4;
      }

      .cls-14 {
        font-size: 13px;
      }
    </style>
    <clipPath id="clippath">
      <rect class="cls-3" y="78.12" width="482.25" height="293"/>
    </clipPath>
    <clipPath id="clippath-1">
      <rect class="cls-3" x="30.52" y="101.26" width="267.04" height="237.45"/>
    </clipPath>
  </defs>
  <g class="cls-24">
    <rect class="cls-18" y="78.12" width="482.25" height="293"/>
    <rect class="cls-7" y="78.12" width="482.25" height="293"/>
  </g>
  <g class="cls-21">
    <rect class="cls-18" x="30.52" y="101.26" width="267.04" height="237.45"/>
    <path class="cls-15" d="M210.08,316.7c0-2.54,2.08-4.62,4.62-4.62s4.63,2.08,4.63,4.62-2.08,4.63-4.63,4.63-4.62-2.08-4.62-4.63"/>
    <path class="cls-15" d="M178.15,202.78c0-2.55,2.08-4.63,4.62-4.63s4.62,2.08,4.62,4.63-2.08,4.62-4.62,4.62-4.62-2.08-4.62-4.62"/>
    <path class="cls-15" d="M247.83,321.07c0-2.54,2.08-4.62,4.62-4.62s4.62,2.08,4.62,4.62-2.08,4.63-4.62,4.63-4.62-2.08-4.62-4.63"/>
    <path class="cls-15" d="M222.07,196.48c0-2.55,2.08-4.63,4.63-4.63s4.62,2.08,4.62,4.63-2.08,4.62-4.62,4.62-4.63-2.08-4.63-4.62"/>
    <path class="cls-17" d="M251.03,318.91c0-2.54,2.08-4.62,4.63-4.62s4.62,2.08,4.62,4.62-2.08,4.62-4.62,4.62-4.63-2.08-4.63-4.62"/>
    <path class="cls-17" d="M219.55,176.52c0-2.55,2.08-4.63,4.62-4.63s4.63,2.08,4.63,4.63-2.08,4.62-4.63,4.62-4.62-2.08-4.62-4.62"/>
    <path class="cls-17" d="M280.81,112.05c0-2.54,2.08-4.62,4.62-4.62s4.62,2.08,4.62,4.62-2.08,4.63-4.62,4.63-4.62-2.08-4.62-4.63"/>
    <path class="cls-15" d="M268.18,301.79c0-2.54,2.08-4.62,4.62-4.62s4.62,2.08,4.62,4.62-2.08,4.62-4.62,4.62-4.62-2.08-4.62-4.62"/>
    <path class="cls-15" d="M74.89,238.13c0-2.55,2.08-4.63,4.63-4.63s4.62,2.08,4.62,4.63-2.08,4.62-4.62,4.62-4.63-2.08-4.63-4.62"/>
    <path class="cls-17" d="M97.63,234.14c0-2.54,2.08-4.62,4.62-4.62s4.63,2.08,4.63,4.62-2.08,4.62-4.63,4.62-4.62-2.08-4.62-4.62"/>
    <path class="cls-17" d="M244.98,311.13c0-2.54,2.08-4.62,4.62-4.62s4.63,2.08,4.63,4.62-2.08,4.62-4.63,4.62-4.62-2.08-4.62-4.62"/>
    <path class="cls-17" d="M44.59,274.66c0-2.55,2.08-4.63,4.62-4.63s4.62,2.08,4.62,4.63-2.08,4.62-4.62,4.62-4.62-2.08-4.62-4.62"/>
    <path class="cls-17" d="M142.8,268.69c0-2.54,2.08-4.62,4.63-4.62s4.62,2.08,4.62,4.62-2.08,4.62-4.62,4.62-4.63-2.08-4.63-4.62"/>
    <path class="cls-15" d="M90.71,219.88c0-2.54,2.08-4.62,4.62-4.62s4.62,2.08,4.62,4.62-2.08,4.62-4.62,4.62-4.62-2.08-4.62-4.62"/>
    <path class="cls-19" d="M217.48,214.61c0-2.54,2.08-4.62,4.62-4.62s4.62,2.08,4.62,4.62-2.08,4.63-4.62,4.63-4.62-2.08-4.62-4.63"/>
    <path class="cls-15" d="M245.05,195.27c0-2.54,2.08-4.62,4.62-4.62s4.63,2.08,4.63,4.62-2.08,4.63-4.63,4.63-4.62-2.08-4.62-4.63"/>
    <path class="cls-17" d="M126.01,223.99c0-2.54,2.08-4.62,4.62-4.62s4.62,2.08,4.62,4.62-2.08,4.62-4.62,4.62-4.62-2.08-4.62-4.62"/>
    <path class="cls-17" d="M139.49,222.1c0-2.54,2.08-4.62,4.62-4.62s4.62,2.08,4.62,4.62-2.08,4.62-4.62,4.62-4.62-2.08-4.62-4.62"/>
    <path class="cls-17" d="M207.69,196.37c0-2.55,2.08-4.63,4.63-4.63s4.62,2.08,4.62,4.63-2.08,4.62-4.62,4.62-4.63-2.08-4.63-4.62"/>
    <path class="cls-15" d="M217.02,206.95c0-2.54,2.08-4.62,4.62-4.62s4.62,2.08,4.62,4.62-2.08,4.62-4.62,4.62-4.62-2.08-4.62-4.62"/>
    <path class="cls-17" d="M63.39,252.3c0-2.54,2.08-4.62,4.62-4.62s4.62,2.08,4.62,4.62-2.08,4.62-4.62,4.62-4.62-2.08-4.62-4.62"/>
    <path class="cls-17" d="M242.07,293.68c0-2.54,2.08-4.62,4.63-4.62s4.62,2.08,4.62,4.62-2.08,4.62-4.62,4.62-4.63-2.08-4.63-4.62"/>
    <path class="cls-17" d="M81.17,236.93c0-2.55,2.08-4.63,4.62-4.63s4.62,2.08,4.62,4.63-2.08,4.62-4.62,4.62-4.62-2.08-4.62-4.62"/>
    <path class="cls-17" d="M250.13,327.91c0-2.54,2.08-4.62,4.62-4.62s4.63,2.08,4.63,4.62-2.08,4.63-4.63,4.63-4.62-2.08-4.62-4.63"/>
    <path class="cls-17" d="M63.97,239.08c0-2.54,2.08-4.62,4.62-4.62s4.62,2.08,4.62,4.62-2.08,4.62-4.62,4.62-4.62-2.08-4.62-4.62"/>
    <path class="cls-15" d="M118.58,258.43c0-2.54,2.08-4.62,4.63-4.62s4.62,2.08,4.62,4.62-2.08,4.62-4.62,4.62-4.63-2.08-4.63-4.62"/>
    <path class="cls-15" d="M93.79,229.04c0-2.54,2.08-4.62,4.62-4.62s4.62,2.08,4.62,4.62-2.08,4.62-4.62,4.62-4.62-2.08-4.62-4.62"/>
    <path class="cls-16" d="M38.04,277.93c0-2.54,2.08-4.62,4.62-4.62s4.62,2.08,4.62,4.62-2.08,4.63-4.62,4.63-4.62-2.08-4.62-4.63"/>
    <path class="cls-16" d="M47.23,272.4c0-2.55,2.08-4.63,4.62-4.63s4.63,2.08,4.63,4.63-2.08,4.62-4.63,4.62-4.62-2.08-4.62-4.62"/>
    <path class="cls-4" d="M210.08,316.7c0-2.54,2.08-4.62,4.62-4.62s4.63,2.08,4.63,4.62-2.08,4.63-4.63,4.63-4.62-2.08-4.62-4.63"/>
    <path class="cls-4" d="M178.15,202.78c0-2.55,2.08-4.63,4.62-4.63s4.62,2.08,4.62,4.63-2.08,4.62-4.62,4.62-4.62-2.08-4.62-4.62"/>
    <path class="cls-4" d="M247.83,321.07c0-2.54,2.08-4.62,4.62-4.62s4.62,2.08,4.62,4.62-2.08,4.63-4.62,4.63-4.62-2.08-4.62-4.63"/>
    <path class="cls-4" d="M222.07,196.48c0-2.55,2.08-4.63,4.63-4.63s4.62,2.08,4.62,4.63-2.08,4.62-4.62,4.62-4.63-2.08-4.63-4.62"/>
    <path class="cls-8" d="M251.03,318.91c0-2.54,2.08-4.62,4.63-4.62s4.62,2.08,4.62,4.62-2.08,4.62-4.62,4.62-4.63-2.08-4.63-4.62"/>
    <path class="cls-8" d="M219.55,176.52c0-2.55,2.08-4.63,4.62-4.63s4.63,2.08,4.63,4.63-2.08,4.62-4.63,4.62-4.62-2.08-4.62-4.62"/>
    <path class="cls-8" d="M280.81,112.05c0-2.54,2.08-4.62,4.62-4.62s4.62,2.08,4.62,4.62-2.08,4.63-4.62,4.63-4.62-2.08-4.62-4.63"/>
    <path class="cls-4" d="M268.18,301.79c0-2.54,2.08-4.62,4.62-4.62s4.62,2.08,4.62,4.62-2.08,4.62-4.62,4.62-4.62-2.08-4.62-4.62"/>
    <path class="cls-4" d="M74.89,238.13c0-2.55,2.08-4.63,4.63-4.63s4.62,2.08,4.62,4.63-2.08,4.62-4.62,4.62-4.63-2.08-4.63-4.62"/>
    <path class="cls-8" d="M97.63,234.14c0-2.54,2.08-4.62,4.62-4.62s4.63,2.08,4.63,4.62-2.08,4.62-4.63,4.62-4.62-2.08-4.62-4.62"/>
    <path class="cls-8" d="M244.98,311.13c0-2.54,2.08-4.62,4.62-4.62s4.63,2.08,4.63,4.62-2.08,4.62-4.63,4.62-4.62-2.08-4.62-4.62"/>
    <path class="cls-8" d="M44.59,274.66c0-2.55,2.08-4.63,4.62-4.63s4.62,2.08,4.62,4.63-2.08,4.62-4.62,4.62-4.62-2.08-4.62-4.62"/>
    <path class="cls-8" d="M142.8,268.69c0-2.54,2.08-4.62,4.63-4.62s4.62,2.08,4.62,4.62-2.08,4.62-4.62,4.62-4.63-2.08-4.63-4.62"/>
    <path class="cls-4" d="M90.71,219.88c0-2.54,2.08-4.62,4.62-4.62s4.62,2.08,4.62,4.62-2.08,4.62-4.62,4.62-4.62-2.08-4.62-4.62"/>
    <path class="cls-6" d="M217.48,214.61c0-2.54,2.08-4.62,4.62-4.62s4.62,2.08,4.62,4.62-2.08,4.63-4.62,4.63-4.62-2.08-4.62-4.63"/>
    <path class="cls-4" d="M245.05,195.27c0-2.54,2.08-4.62,4.62-4.62s4.63,2.08,4.63,4.62-2.08,4.63-4.63,4.63-4.62-2.08-4.62-4.63"/>
    <path class="cls-8" d="M126.01,223.99c0-2.54,2.08-4.62,4.62-4.62s4.62,2.08,4.62,4.62-2.08,4.62-4.62,4.62-4.62-2.08-4.62-4.62"/>
    <path class="cls-8" d="M139.49,222.1c0-2.54,2.08-4.62,4.62-4.62s4.62,2.08,4.62,4.62-2.08,4.62-4.62,4.62-4.62-2.08-4.62-4.62"/>
    <path class="cls-8" d="M207.69,196.37c0-2.55,2.08-4.63,4.63-4.63s4.62,2.08,4.62,4.63-2.08,4.62-4.62,4.62-4.63-2.08-4.63-4.62"/>
    <path class="cls-4" d="M217.02,206.95c0-2.54,2.08-4.62,4.62-4.62s4.62,2.08,4.62,4.62-2.08,4.62-4.62,4.62-4.62-2.08-4.62-4.62"/>
    <path class="cls-8" d="M63.39,252.3c0-2.54,2.08-4.62,4.62-4.62s4.62,2.08,4.62,4.62-2.08,4.62-4.62,4.62-4.62-2.08-4.62-4.62"/>
    <path class="cls-8" d="M242.07,293.68c0-2.54,2.08-4.62,4.63-4.62s4.62,2.08,4.62,4.62-2.08,4.62-4.62,4.62-4.63-2.08-4.63-4.62"/>
    <path class="cls-8" d="M81.17,236.93c0-2.55,2.08-4.63,4.62-4.63s4.62,2.08,4.62,4.63-2.08,4.62-4.62,4.62-4.62-2.08-4.62-4.62"/>
    <path class="cls-8" d="M250.13,327.91c0-2.54,2.08-4.62,4.62-4.62s4.63,2.08,4.63,4.62-2.08,4.63-4.63,4.63-4.62-2.08-4.62-4.63"/>
    <path class="cls-8" d="M63.97,239.08c0-2.54,2.08-4.62,4.62-4.62s4.62,2.08,4.62,4.62-2.08,4.62-4.62,4.62-4.62-2.08-4.62-4.62"/>
    <path class="cls-4" d="M118.58,258.43c0-2.54,2.08-4.62,4.63-4.62s4.62,2.08,4.62,4.62-2.08,4.62-4.62,4.62-4.63-2.08-4.63-4.62"/>
    <path class="cls-4" d="M93.79,229.04c0-2.54,2.08-4.62,4.62-4.62s4.62,2.08,4.62,4.62-2.08,4.62-4.62,4.62-4.62-2.08-4.62-4.62"/>
    <path class="cls-9" d="M38.04,277.93c0-2.54,2.08-4.62,4.62-4.62s4.62,2.08,4.62,4.62-2.08,4.63-4.62,4.63-4.62-2.08-4.62-4.63"/>
    <path class="cls-9" d="M47.23,272.4c0-2.55,2.08-4.63,4.62-4.63s4.63,2.08,4.63,4.63-2.08,4.62-4.63,4.62-4.62-2.08-4.62-4.62"/>
  </g>
  <line class="cls-2" x1="30.52" y1="338.71" x2="30.52" y2="101.26"/>
  <text class="cls-13" transform="translate(15.33 328.42)"><tspan x="0" y="0">−2</tspan></text>
  <text class="cls-13" transform="translate(20.59 249.43)"><tspan x="0" y="0">0</tspan></text>
  <text class="cls-13" transform="translate(20.59 170.45)"><tspan x="0" y="0">2</tspan></text>
  <line class="cls-5" x1="27.78" y1="325.19" x2="30.52" y2="325.19"/>
  <line class="cls-5" x1="27.78" y1="246.2" x2="30.52" y2="246.2"/>
  <line class="cls-5" x1="27.78" y1="167.22" x2="30.52" y2="167.22"/>
  <line class="cls-2" x1="30.52" y1="338.71" x2="297.57" y2="338.71"/>
  <line class="cls-5" x1="88.55" y1="341.45" x2="88.55" y2="338.71"/>
  <line class="cls-5" x1="167.53" y1="341.45" x2="167.53" y2="338.71"/>
  <line class="cls-5" x1="246.52" y1="341.45" x2="246.52" y2="338.71"/>
  <text class="cls-13" transform="translate(83.42 350.1)"><tspan x="0" y="0">−2</tspan></text>
  <text class="cls-13" transform="translate(165.03 350.1)"><tspan x="0" y="0">0</tspan></text>
  <text class="cls-13" transform="translate(244.02 350.1)"><tspan x="0" y="0">2</tspan></text>
  <text class="cls-12" transform="translate(161.29 363.75)"><tspan x="0" y="0">x</tspan></text>
  <text class="cls-12" transform="translate(13.38 222.73) rotate(-90)"><tspan x="0" y="0">y</tspan></text>
  <rect class="cls-18" x="308.53" y="171.52" width="168.24" height="96.93"/>
  <text class="cls-12" transform="translate(314.01 186.63)"><tspan x="0" y="0">resultant_geno</tspan></text>
  <rect class="cls-18" x="314.01" y="193.85" width="17.28" height="17.28"/>
  <path class="cls-15" d="M318.02,202.49c0-2.54,2.08-4.62,4.63-4.62s4.62,2.08,4.62,4.62-2.08,4.62-4.62,4.62-4.63-2.08-4.63-4.62"/>
  <path class="cls-4" d="M318.02,202.49c0-2.54,2.08-4.62,4.63-4.62s4.62,2.08,4.62,4.62-2.08,4.62-4.62,4.62-4.63-2.08-4.63-4.62"/>
  <rect class="cls-18" x="314.01" y="211.13" width="17.28" height="17.28"/>
  <path class="cls-17" d="M318.02,219.77c0-2.54,2.08-4.62,4.63-4.62s4.62,2.08,4.62,4.62-2.08,4.62-4.62,4.62-4.63-2.08-4.63-4.62"/>
  <path class="cls-8" d="M318.02,219.77c0-2.54,2.08-4.62,4.63-4.62s4.62,2.08,4.62,4.62-2.08,4.62-4.62,4.62-4.63-2.08-4.63-4.62"/>
  <rect class="cls-18" x="314.01" y="228.41" width="17.28" height="17.28"/>
  <path class="cls-19" d="M318.02,237.05c0-2.54,2.08-4.62,4.63-4.62s4.62,2.08,4.62,4.62-2.08,4.62-4.62,4.62-4.63-2.08-4.63-4.62"/>
  <path class="cls-6" d="M318.02,237.05c0-2.54,2.08-4.62,4.63-4.62s4.62,2.08,4.62,4.62-2.08,4.62-4.62,4.62-4.63-2.08-4.63-4.62"/>
  <rect class="cls-18" x="314.01" y="245.69" width="17.28" height="17.28"/>
  <path class="cls-16" d="M318.02,254.33c0-2.54,2.08-4.62,4.63-4.62s4.62,2.08,4.62,4.62-2.08,4.62-4.62,4.62-4.63-2.08-4.63-4.62"/>
  <path class="cls-9" d="M318.02,254.33c0-2.54,2.08-4.62,4.63-4.62s4.62,2.08,4.62,4.62-2.08,4.62-4.62,4.62-4.63-2.08-4.63-4.62"/>
  <text class="cls-11" transform="translate(336.77 205.72)"><tspan x="0" y="0">nf1 </tspan><tspan class="cls-10" x="15.01" y="0">K</tspan><tspan x="20.56" y="0">O; pten </tspan><tspan class="cls-10" x="52.58" y="0">K</tspan><tspan x="58.14" y="0">O; ink </tspan><tspan class="cls-22" x="84.14" y="0">K</tspan><tspan class="cls-23" x="89.7" y="0">O; atrx </tspan><tspan class="cls-1" x="119.2" y="0">K</tspan><tspan x="124.76" y="0">O</tspan></text>
  <text class="cls-11" transform="translate(336.77 223)"><tspan x="0" y="0">nf1 </tspan><tspan class="cls-10" x="15.01" y="0">K</tspan><tspan x="20.56" y="0">O; pten </tspan><tspan class="cls-10" x="52.58" y="0">K</tspan><tspan x="58.14" y="0">O; ink </tspan><tspan class="cls-22" x="84.14" y="0">K</tspan><tspan class="cls-23" x="89.7" y="0">O; atrx wt</tspan></text>
  <text class="cls-11" transform="translate(336.77 240.28)"><tspan x="0" y="0">nf1 wt; pten </tspan><tspan class="cls-20" x="49.03" y="0">K</tspan><tspan class="cls-23" x="54.59" y="0">O; ink </tspan><tspan class="cls-10" x="80.6" y="0">K</tspan><tspan x="86.15" y="0">O; atrx </tspan><tspan class="cls-10" x="115.66" y="0">K</tspan><tspan x="121.21" y="0">O</tspan></text>
  <text class="cls-11" transform="translate(336.77 257.56)"><tspan x="0" y="0">nf1 wt; pten wt; ink wt; atrx wt</tspan></text>
  <text class="cls-14" transform="translate(30.52 92.94)"><tspan x="0" y="0">resultant genotype</tspan></text>
</svg>